<svg width="325" height="325" viewBox="0 0 325 325" fill="none" xmlns="http://www.w3.org/2000/svg">
<circle cx="162.5" cy="162.5" r="162.5" fill="url(#paint0_linear)"/>
<circle cx="162.5" cy="162.5" r="138.125" fill="url(#paint1_linear)"/>
<circle cx="162.5" cy="162.5" r="138.125" fill="url(#paint2_linear)"/>
<g filter="url(#filter0_d)">
<path d="M158.071 208.571C146.67 208.571 136.931 199.665 126.645 194.724C123.486 193.207 119.948 192.357 116.213 192.357C102.841 192.357 92.0005 203.246 92.0005 216.678C92.0005 230.111 102.841 241 116.213 241C119.948 241 123.486 240.15 126.645 238.633C136.931 233.692 146.67 224.786 158.071 224.786H165.821C177.223 224.786 186.962 233.692 197.248 238.633C200.407 240.15 203.945 241 207.68 241C221.052 241 231.892 230.111 231.892 216.678C231.892 203.246 221.052 192.357 207.68 192.357C203.945 192.357 200.407 193.207 197.248 194.724C186.962 199.665 177.223 208.571 165.821 208.571H158.071Z" fill="url(#paint3_linear)"/>
<path d="M158.071 208.821C152.306 208.821 146.975 206.57 141.819 203.719C139.78 202.592 137.762 201.368 135.754 200.15C135.223 199.828 134.692 199.506 134.162 199.186C131.626 197.657 129.097 196.179 126.537 194.95C123.411 193.448 119.91 192.607 116.213 192.607C102.98 192.607 92.2505 203.383 92.2505 216.678C92.2505 229.974 102.98 240.75 116.213 240.75C119.91 240.75 123.411 239.909 126.537 238.407C129.097 237.178 131.626 235.7 134.162 234.17C134.692 233.851 135.223 233.529 135.754 233.207C137.762 231.989 139.78 230.764 141.819 229.637C146.975 226.787 152.306 224.536 158.071 224.536H165.821C171.587 224.536 176.917 226.787 182.074 229.637C184.113 230.764 186.131 231.989 188.139 233.207C188.67 233.529 189.2 233.851 189.73 234.17C192.267 235.7 194.796 237.178 197.356 238.407C200.482 239.909 203.983 240.75 207.68 240.75C220.913 240.75 231.642 229.974 231.642 216.678C231.642 203.383 220.913 192.607 207.68 192.607C203.983 192.607 200.482 193.448 197.356 194.95C194.796 196.179 192.267 197.657 189.73 199.186C189.2 199.506 188.67 199.828 188.139 200.15C186.131 201.368 184.113 202.592 182.074 203.719C176.917 206.57 171.587 208.821 165.821 208.821H158.071Z" stroke="url(#paint4_linear)" stroke-width="0.5"/>
</g>
<g filter="url(#filter1_d)">
<path d="M158.071 116.355C146.669 116.355 136.931 125.221 126.645 130.14C123.485 131.651 119.947 132.497 116.212 132.497C102.84 132.497 92 121.657 92 108.285C92 94.9128 102.84 84.0727 116.212 84.0727C119.947 84.0727 123.485 84.9186 126.645 86.4294C136.931 91.3482 146.669 100.214 158.071 100.214H165.821C177.222 100.214 186.961 91.3482 197.247 86.4294C200.406 84.9186 203.944 84.0727 207.679 84.0727C221.051 84.0727 231.891 94.9128 231.891 108.285C231.891 121.657 221.051 132.497 207.679 132.497C203.944 132.497 200.406 131.651 197.247 130.14C186.961 125.221 177.222 116.355 165.821 116.355H158.071Z" fill="url(#paint5_linear)"/>
<path d="M158.071 116.105C152.306 116.105 146.975 118.347 141.819 121.184C139.78 122.306 137.762 123.525 135.754 124.737C135.223 125.058 134.692 125.379 134.162 125.697C131.626 127.219 129.097 128.69 126.537 129.914C123.41 131.409 119.909 132.247 116.212 132.247C102.978 132.247 92.25 121.519 92.25 108.285C92.25 95.0508 102.978 84.3227 116.212 84.3227C119.909 84.3227 123.41 85.1599 126.537 86.6549C129.097 87.8792 131.626 89.3503 134.162 90.8727C134.692 91.1908 135.223 91.5111 135.754 91.8319C137.762 93.0447 139.78 94.2634 141.819 95.3853C146.975 98.2225 152.306 100.464 158.071 100.464H165.821C171.586 100.464 176.916 98.2225 182.073 95.3853C184.112 94.2634 186.129 93.0448 188.137 91.832C188.669 91.5112 189.199 91.1908 189.729 90.8727C192.266 89.3503 194.795 87.8792 197.355 86.6549C200.481 85.1599 203.982 84.3227 207.679 84.3227C220.913 84.3227 231.641 95.0508 231.641 108.285C231.641 121.519 220.913 132.247 207.679 132.247C203.982 132.247 200.481 131.409 197.355 129.914C194.795 128.69 192.266 127.219 189.729 125.697C189.199 125.379 188.669 125.058 188.138 124.737C186.13 123.525 184.112 122.306 182.073 121.184C176.916 118.347 171.586 116.105 165.821 116.105H158.071Z" stroke="url(#paint6_linear)" stroke-width="0.5"/>
</g>
<path d="M197.436 140.78C194.874 142.005 192.344 143.478 189.805 145.001C189.274 145.319 188.744 145.64 188.212 145.961C186.202 147.175 184.183 148.394 182.142 149.517C176.982 152.357 171.647 154.6 165.878 154.6H158.122C152.353 154.6 147.018 152.357 141.858 149.517C139.817 148.394 137.798 147.175 135.788 145.961C135.256 145.64 134.725 145.319 134.195 145.001C131.656 143.478 129.126 142.005 126.564 140.78C123.435 139.284 119.931 138.446 116.231 138.446C102.987 138.446 92.25 149.182 92.25 162.427C92.25 175.671 102.987 186.407 116.231 186.407C119.931 186.407 123.435 185.57 126.564 184.073C129.126 182.848 131.656 181.376 134.195 179.852C134.726 179.534 135.256 179.213 135.788 178.892C137.798 177.679 139.817 176.459 141.858 175.336C147.018 172.497 152.353 170.254 158.122 170.254H165.878C171.647 170.254 176.982 172.497 182.142 175.336C184.183 176.459 186.202 177.679 188.212 178.892C188.744 179.213 189.275 179.534 189.805 179.852C192.344 181.376 194.874 182.848 197.436 184.073C200.565 185.57 204.069 186.407 207.769 186.407C221.013 186.407 231.75 175.671 231.75 162.427C231.75 149.182 221.013 138.446 207.769 138.446C204.069 138.446 200.565 139.284 197.436 140.78Z" fill="url(#paint7_linear)" stroke="url(#paint8_linear)" stroke-width="0.5"/>
<defs>
<filter id="filter0_d" x="70.0601" y="170.416" width="183.772" height="92.5239" filterUnits="userSpaceOnUse" color-interpolation-filters="sRGB">
<feFlood flood-opacity="0" result="BackgroundImageFix"/>
<feColorMatrix in="SourceAlpha" type="matrix" values="0 0 0 0 0 0 0 0 0 0 0 0 0 0 0 0 0 0 127 0"/>
<feOffset/>
<feGaussianBlur stdDeviation="10.9702"/>
<feColorMatrix type="matrix" values="0 0 0 0 0.960784 0 0 0 0 0.443137 0 0 0 0 0.254902 0 0 0 0.3 0"/>
<feBlend mode="normal" in2="BackgroundImageFix" result="effect1_dropShadow"/>
<feBlend mode="normal" in="SourceGraphic" in2="effect1_dropShadow" result="shape"/>
</filter>
<filter id="filter1_d" x="83.2238" y="75.2965" width="157.444" height="65.9763" filterUnits="userSpaceOnUse" color-interpolation-filters="sRGB">
<feFlood flood-opacity="0" result="BackgroundImageFix"/>
<feColorMatrix in="SourceAlpha" type="matrix" values="0 0 0 0 0 0 0 0 0 0 0 0 0 0 0 0 0 0 127 0"/>
<feOffset/>
<feGaussianBlur stdDeviation="4.38808"/>
<feColorMatrix type="matrix" values="0 0 0 0 0.278431 0 0 0 0 0.109804 0 0 0 0 0.807843 0 0 0 0.4 0"/>
<feBlend mode="normal" in2="BackgroundImageFix" result="effect1_dropShadow"/>
<feBlend mode="normal" in="SourceGraphic" in2="effect1_dropShadow" result="shape"/>
</filter>
<linearGradient id="paint0_linear" x1="162.5" y1="162.5" x2="162.5" y2="505.917" gradientUnits="userSpaceOnUse">
<stop stop-color="#F93E4C" stop-opacity="0"/>
<stop offset="1" stop-color="#F93E4C"/>
</linearGradient>
<linearGradient id="paint1_linear" x1="162.5" y1="162.5" x2="162.5" y2="454.404" gradientUnits="userSpaceOnUse">
<stop stop-color="#FF6671" stop-opacity="0.08"/>
<stop offset="1" stop-color="#FF6671" stop-opacity="0.4"/>
</linearGradient>
<linearGradient id="paint2_linear" x1="162.5" y1="162.5" x2="162.5" y2="300.625" gradientUnits="userSpaceOnUse">
<stop stop-color="#12132F" stop-opacity="0"/>
<stop offset="1" stop-color="#F93E4C" stop-opacity="0.4"/>
</linearGradient>
<linearGradient id="paint3_linear" x1="221.414" y1="196.96" x2="108.055" y2="244.077" gradientUnits="userSpaceOnUse">
<stop stop-color="#FC8234"/>
<stop offset="1" stop-color="#F93C4C"/>
</linearGradient>
<linearGradient id="paint4_linear" x1="101.729" y1="234.524" x2="139.616" y2="273.195" gradientUnits="userSpaceOnUse">
<stop stop-color="white"/>
<stop offset="1" stop-color="white" stop-opacity="0"/>
</linearGradient>
<linearGradient id="paint5_linear" x1="221.27" y1="84.0327" x2="200.033" y2="155.131" gradientUnits="userSpaceOnUse">
<stop stop-color="#CC67FF"/>
<stop offset="1" stop-color="#7B03B6"/>
</linearGradient>
<linearGradient id="paint6_linear" x1="104.13" y1="88.4946" x2="152.169" y2="46.3546" gradientUnits="userSpaceOnUse">
<stop stop-color="white"/>
<stop offset="1" stop-color="white" stop-opacity="0"/>
</linearGradient>
<linearGradient id="paint7_linear" x1="231.892" y1="145.077" x2="162.585" y2="98.6111" gradientUnits="userSpaceOnUse">
<stop stop-color="#6D45FF"/>
<stop offset="1" stop-color="#441ECE"/>
</linearGradient>
<linearGradient id="paint8_linear" x1="101.326" y1="179.532" x2="148.891" y2="224.396" gradientUnits="userSpaceOnUse">
<stop stop-color="white"/>
<stop offset="1" stop-color="white" stop-opacity="0"/>
</linearGradient>
</defs>
</svg>
