<svg width="10" height="8" viewBox="0 0 10 8" fill="none" xmlns="http://www.w3.org/2000/svg">
<path d="M8.46542 1.18768C7.82806 0.919106 7.14458 0.721229 6.42996 0.607897C6.41694 0.60571 6.40394 0.611176 6.39724 0.622109C6.30934 0.765686 6.21197 0.952995 6.14379 1.10022C5.37517 0.994541 4.61049 0.994541 3.85763 1.10022C3.78944 0.949722 3.68854 0.765686 3.60024 0.622109C3.59354 0.611541 3.58054 0.606075 3.56752 0.607897C2.8533 0.720867 2.16982 0.918744 1.53206 1.18768C1.52654 1.18987 1.5218 1.19352 1.51866 1.19825C0.222247 2.97697 -0.132896 4.71196 0.0413251 6.42545C0.0421134 6.43383 0.0472374 6.44185 0.0543325 6.44694C0.90967 7.02381 1.73821 7.37402 2.55137 7.60615C2.56438 7.60979 2.57817 7.60542 2.58645 7.59558C2.7788 7.35434 2.95027 7.09998 3.09728 6.83249C3.10596 6.81683 3.09768 6.79824 3.07994 6.79204C2.80797 6.6973 2.549 6.58178 2.29989 6.45059C2.28018 6.44002 2.27861 6.41414 2.29673 6.40175C2.34916 6.36567 2.40159 6.32814 2.45165 6.29024C2.4607 6.28332 2.47332 6.28186 2.48397 6.28623C4.12054 6.97243 5.89231 6.97243 7.50956 6.28623C7.52021 6.28149 7.53283 6.28296 7.54228 6.28988C7.59235 6.32778 7.64477 6.36567 7.69759 6.40175C7.71572 6.41414 7.71454 6.44002 7.69483 6.45059C7.44572 6.58432 7.18675 6.6973 6.91438 6.79168C6.89665 6.79788 6.88876 6.81683 6.89744 6.83249C7.04761 7.09961 7.21907 7.35397 7.40787 7.59522C7.41576 7.60542 7.42994 7.60979 7.44296 7.60615C8.26006 7.37402 9.08859 7.02381 9.94393 6.44694C9.95142 6.44185 9.95615 6.43419 9.95694 6.42581C10.1655 4.44483 9.60771 2.72406 8.47842 1.19861C8.47566 1.19352 8.47094 1.18987 8.46542 1.18768ZM3.34168 5.38211C2.84896 5.38211 2.44297 4.96669 2.44297 4.4565C2.44297 3.94631 2.84108 3.53089 3.34168 3.53089C3.8462 3.53089 4.24825 3.94996 4.24037 4.4565C4.24037 4.96669 3.84225 5.38211 3.34168 5.38211ZM6.66448 5.38211C6.17177 5.38211 5.76579 4.96669 5.76579 4.4565C5.76579 3.94631 6.16389 3.53089 6.66448 3.53089C7.16901 3.53089 7.57106 3.94996 7.56318 4.4565C7.56318 4.96669 7.16901 5.38211 6.66448 5.38211Z" fill="#F8F6FD"/>
</svg>
