<svg width="512" height="512" viewBox="0 0 512 512" fill="none" xmlns="http://www.w3.org/2000/svg">
<path d="M256 512C397.385 512 512 397.385 512 256C512 114.615 397.385 0 256 0C114.615 0 0 114.615 0 256C0 397.385 114.615 512 256 512Z" fill="white"/>
<path d="M262.506 166.524C244.136 166.524 229.244 151.632 229.244 133.262C229.244 114.892 244.136 100 262.506 100C280.876 100 295.768 114.892 295.768 133.262C295.768 151.632 280.876 166.524 262.506 166.524Z" fill="url(#paint0_linear)"/>
<path d="M374.356 268.168C363.014 268.168 353.819 258.973 353.819 247.63C353.819 236.288 363.014 227.093 374.356 227.093C385.699 227.093 394.894 236.288 394.894 247.63C394.894 258.973 385.699 268.168 374.356 268.168Z" fill="url(#paint1_linear)"/>
<path fill-rule="evenodd" clip-rule="evenodd" d="M221.452 308.03C210.314 298.067 193.596 298.599 179.026 301.92C161.764 305.855 142.923 301.809 128.499 289.346C104.419 268.54 101.765 232.151 122.572 208.07C143.379 183.989 179.768 181.335 203.848 202.142C218.016 214.383 224.767 232.019 223.686 249.368C222.781 263.898 224.579 279.902 235.43 289.608C246.72 299.708 263.628 299.301 278.472 296.28C295.37 292.84 313.621 296.991 327.679 309.137C351.759 329.944 354.414 366.333 333.607 390.414C312.8 414.495 276.41 417.148 252.33 396.342C237.799 383.786 231.07 365.555 232.591 347.778C233.816 333.46 232.162 317.611 221.452 308.03Z" fill="url(#paint2_linear)"/>
<path fill-rule="evenodd" clip-rule="evenodd" d="M317.989 189.885C325.551 182.907 326.289 171.413 324.972 161.208C323.412 149.116 327.427 136.469 336.92 127.403C352.768 112.269 377.885 112.847 393.02 128.696C408.155 144.544 407.576 169.662 391.728 184.796C382.404 193.701 369.871 197.166 358.051 195.282C348.15 193.704 337.063 193.882 329.694 200.68C322.028 207.753 321.193 219.369 322.286 229.743C323.53 241.552 319.482 253.789 310.23 262.624C294.382 277.758 269.265 277.18 254.13 261.332C238.995 245.483 239.574 220.366 255.422 205.231C264.986 196.098 277.925 192.687 290.01 194.901C299.743 196.685 310.716 196.595 317.989 189.885Z" fill="url(#paint3_linear)"/>
<defs>
<linearGradient id="paint0_linear" x1="229.244" y1="133.262" x2="229.244" y2="199.785" gradientUnits="userSpaceOnUse">
<stop stop-color="#FC7A37"/>
<stop offset="1" stop-color="#F93E4C"/>
</linearGradient>
<linearGradient id="paint1_linear" x1="353.819" y1="247.63" x2="353.819" y2="288.705" gradientUnits="userSpaceOnUse">
<stop stop-color="#FC7B37"/>
<stop offset="1" stop-color="#F93E4C"/>
</linearGradient>
<linearGradient id="paint2_linear" x1="416.445" y1="459.178" x2="20.777" y2="94.3775" gradientUnits="userSpaceOnUse">
<stop stop-color="#461DCE"/>
<stop offset="1" stop-color="#8C01D3"/>
</linearGradient>
<linearGradient id="paint3_linear" x1="141.076" y1="362.474" x2="478.197" y2="67.0973" gradientUnits="userSpaceOnUse">
<stop stop-color="#481CCE"/>
<stop offset="0.896733" stop-color="#8D01D3"/>
</linearGradient>
</defs>
</svg>
