<svg width="788" height="1717" viewBox="0 0 788 1717" fill="none" xmlns="http://www.w3.org/2000/svg">
<g opacity="0.35" filter="url(#filter0_f)">
<ellipse rx="298.68" ry="309.828" transform="matrix(-0.591447 0.806344 0.51822 0.855247 739.212 858.818)" fill="#8D01D3"/>
</g>
<mask id="mask0" mask-type="alpha" maskUnits="userSpaceOnUse" x="564" y="507" width="336" height="335">
<rect width="335" height="335" transform="matrix(-1 0 0 1 899.423 507)" fill="url(#paint0_radial)"/>
</mask>
<g mask="url(#mask0)">
<circle r="3.71706" transform="matrix(-1 0 0 1 776.759 510.717)" fill="#0038C8"/>
<circle r="3.71706" transform="matrix(-1 0 0 1 776.759 510.717)" fill="url(#paint1_linear)"/>
<circle r="3.71706" transform="matrix(-1 0 0 1 747.023 510.717)" fill="#0038C8"/>
<circle r="3.71706" transform="matrix(-1 0 0 1 747.023 510.717)" fill="url(#paint2_linear)"/>
<g opacity="0.6">
<circle r="3.71706" transform="matrix(-1 0 0 1 717.287 510.717)" fill="#0038C8"/>
<circle r="3.71706" transform="matrix(-1 0 0 1 717.287 510.717)" fill="url(#paint3_linear)"/>
</g>
<g opacity="0.4">
<circle r="3.71706" transform="matrix(-1 0 0 1 687.551 510.717)" fill="#0038C8"/>
<circle r="3.71706" transform="matrix(-1 0 0 1 687.551 510.717)" fill="url(#paint4_linear)"/>
</g>
<g opacity="0.6">
<circle r="3.71706" transform="matrix(-1 0 0 1 657.815 510.717)" fill="#0038C8"/>
<circle r="3.71706" transform="matrix(-1 0 0 1 657.815 510.717)" fill="url(#paint5_linear)"/>
</g>
<circle r="3.71706" transform="matrix(-1 0 0 1 628.079 510.717)" fill="#0038C8"/>
<circle r="3.71706" transform="matrix(-1 0 0 1 628.079 510.717)" fill="url(#paint6_linear)"/>
<circle r="3.71706" transform="matrix(-1 0 0 1 598.34 510.717)" fill="#0038C8"/>
<circle r="3.71706" transform="matrix(-1 0 0 1 598.34 510.717)" fill="url(#paint7_linear)"/>
<g opacity="0.4">
<circle r="3.71706" transform="matrix(-1 0 0 1 568.604 510.717)" fill="#0038C8"/>
<circle r="3.71706" transform="matrix(-1 0 0 1 568.604 510.717)" fill="url(#paint8_linear)"/>
</g>
<g opacity="0.6">
<circle r="3.71706" transform="matrix(-1 0 0 1 776.759 540.453)" fill="#0038C8"/>
<circle r="3.71706" transform="matrix(-1 0 0 1 776.759 540.453)" fill="url(#paint9_linear)"/>
</g>
<g opacity="0.4">
<circle r="3.71706" transform="matrix(-1 0 0 1 747.023 540.453)" fill="#0038C8"/>
<circle r="3.71706" transform="matrix(-1 0 0 1 747.023 540.453)" fill="url(#paint10_linear)"/>
</g>
<circle r="3.71706" transform="matrix(-1 0 0 1 717.287 540.453)" fill="#0038C8"/>
<circle r="3.71706" transform="matrix(-1 0 0 1 717.287 540.453)" fill="url(#paint11_linear)"/>
<g opacity="0.4">
<circle r="3.71706" transform="matrix(-1 0 0 1 687.551 540.453)" fill="#0038C8"/>
<circle r="3.71706" transform="matrix(-1 0 0 1 687.551 540.453)" fill="url(#paint12_linear)"/>
</g>
<circle r="3.71706" transform="matrix(-1 0 0 1 657.815 540.453)" fill="#0038C8"/>
<circle r="3.71706" transform="matrix(-1 0 0 1 657.815 540.453)" fill="url(#paint13_linear)"/>
<circle r="3.71706" transform="matrix(-1 0 0 1 628.079 540.453)" fill="#0038C8"/>
<circle r="3.71706" transform="matrix(-1 0 0 1 628.079 540.453)" fill="url(#paint14_linear)"/>
<g opacity="0.8">
<circle r="3.71706" transform="matrix(-1 0 0 1 598.34 540.453)" fill="#0038C8"/>
<circle r="3.71706" transform="matrix(-1 0 0 1 598.34 540.453)" fill="url(#paint15_linear)"/>
</g>
<circle r="3.71706" transform="matrix(-1 0 0 1 568.604 540.453)" fill="#0038C8"/>
<circle r="3.71706" transform="matrix(-1 0 0 1 568.604 540.453)" fill="url(#paint16_linear)"/>
<g opacity="0.6">
<circle r="3.71706" transform="matrix(-1 0 0 1 776.759 570.19)" fill="#0038C8"/>
<circle r="3.71706" transform="matrix(-1 0 0 1 776.759 570.19)" fill="url(#paint17_linear)"/>
</g>
<circle r="3.71706" transform="matrix(-1 0 0 1 747.023 570.19)" fill="#0038C8"/>
<circle r="3.71706" transform="matrix(-1 0 0 1 747.023 570.19)" fill="url(#paint18_linear)"/>
<g opacity="0.8">
<circle r="3.71706" transform="matrix(-1 0 0 1 717.287 570.19)" fill="#0038C8"/>
<circle r="3.71706" transform="matrix(-1 0 0 1 717.287 570.19)" fill="url(#paint19_linear)"/>
</g>
<circle r="3.71706" transform="matrix(-1 0 0 1 687.551 570.19)" fill="#0038C8"/>
<circle r="3.71706" transform="matrix(-1 0 0 1 687.551 570.19)" fill="url(#paint20_linear)"/>
<g opacity="0.4">
<circle r="3.71706" transform="matrix(-1 0 0 1 657.815 570.19)" fill="#0038C8"/>
<circle r="3.71706" transform="matrix(-1 0 0 1 657.815 570.19)" fill="url(#paint21_linear)"/>
</g>
<g opacity="0.6">
<circle r="3.71706" transform="matrix(-1 0 0 1 628.079 570.19)" fill="#0038C8"/>
<circle r="3.71706" transform="matrix(-1 0 0 1 628.079 570.19)" fill="url(#paint22_linear)"/>
</g>
<g opacity="0.6">
<circle r="3.71706" transform="matrix(-1 0 0 1 598.34 570.19)" fill="#0038C8"/>
<circle r="3.71706" transform="matrix(-1 0 0 1 598.34 570.19)" fill="url(#paint23_linear)"/>
</g>
<circle r="3.71706" transform="matrix(-1 0 0 1 568.604 570.19)" fill="#0038C8"/>
<circle r="3.71706" transform="matrix(-1 0 0 1 568.604 570.19)" fill="url(#paint24_linear)"/>
<circle r="3.71706" transform="matrix(-1 0 0 1 776.759 599.926)" fill="#0038C8"/>
<circle r="3.71706" transform="matrix(-1 0 0 1 776.759 599.926)" fill="url(#paint25_linear)"/>
<circle r="3.71706" transform="matrix(-1 0 0 1 747.023 599.926)" fill="#0038C8"/>
<circle r="3.71706" transform="matrix(-1 0 0 1 747.023 599.926)" fill="url(#paint26_linear)"/>
<g opacity="0.4">
<circle r="3.71706" transform="matrix(-1 0 0 1 717.287 599.926)" fill="#0038C8"/>
<circle r="3.71706" transform="matrix(-1 0 0 1 717.287 599.926)" fill="url(#paint27_linear)"/>
</g>
<g opacity="0.4">
<circle r="3.71706" transform="matrix(-1 0 0 1 687.551 599.926)" fill="#0038C8"/>
<circle r="3.71706" transform="matrix(-1 0 0 1 687.551 599.926)" fill="url(#paint28_linear)"/>
</g>
<g opacity="0.6">
<circle r="3.71706" transform="matrix(-1 0 0 1 657.815 599.926)" fill="#0038C8"/>
<circle r="3.71706" transform="matrix(-1 0 0 1 657.815 599.926)" fill="url(#paint29_linear)"/>
</g>
<g opacity="0.6">
<circle r="3.71706" transform="matrix(-1 0 0 1 628.079 599.926)" fill="#0038C8"/>
<circle r="3.71706" transform="matrix(-1 0 0 1 628.079 599.926)" fill="url(#paint30_linear)"/>
</g>
<g opacity="0.4">
<circle r="3.71706" transform="matrix(-1 0 0 1 598.34 599.926)" fill="#0038C8"/>
<circle r="3.71706" transform="matrix(-1 0 0 1 598.34 599.926)" fill="url(#paint31_linear)"/>
</g>
<circle r="3.71706" transform="matrix(-1 0 0 1 568.604 599.926)" fill="#0038C8"/>
<circle r="3.71706" transform="matrix(-1 0 0 1 568.604 599.926)" fill="url(#paint32_linear)"/>
<g opacity="0.6">
<circle r="3.71706" transform="matrix(-1 0 0 1 776.759 629.662)" fill="#0038C8"/>
<circle r="3.71706" transform="matrix(-1 0 0 1 776.759 629.662)" fill="url(#paint33_linear)"/>
</g>
<g opacity="0.4">
<circle r="3.71706" transform="matrix(-1 0 0 1 747.023 629.662)" fill="#0038C8"/>
<circle r="3.71706" transform="matrix(-1 0 0 1 747.023 629.662)" fill="url(#paint34_linear)"/>
</g>
<g opacity="0.8">
<circle r="3.71706" transform="matrix(-1 0 0 1 717.287 629.662)" fill="#0038C8"/>
<circle r="3.71706" transform="matrix(-1 0 0 1 717.287 629.662)" fill="url(#paint35_linear)"/>
</g>
<circle r="3.71706" transform="matrix(-1 0 0 1 687.551 629.662)" fill="#0038C8"/>
<circle r="3.71706" transform="matrix(-1 0 0 1 687.551 629.662)" fill="url(#paint36_linear)"/>
<g opacity="0.4">
<circle r="3.71706" transform="matrix(-1 0 0 1 657.815 629.662)" fill="#0038C8"/>
<circle r="3.71706" transform="matrix(-1 0 0 1 657.815 629.662)" fill="url(#paint37_linear)"/>
</g>
<circle r="3.71706" transform="matrix(-1 0 0 1 628.079 629.662)" fill="#0038C8"/>
<circle r="3.71706" transform="matrix(-1 0 0 1 628.079 629.662)" fill="url(#paint38_linear)"/>
<circle r="3.71706" transform="matrix(-1 0 0 1 598.34 629.662)" fill="#0038C8"/>
<circle r="3.71706" transform="matrix(-1 0 0 1 598.34 629.662)" fill="url(#paint39_linear)"/>
<g opacity="0.4">
<circle r="3.71706" transform="matrix(-1 0 0 1 568.604 629.662)" fill="#0038C8"/>
<circle r="3.71706" transform="matrix(-1 0 0 1 568.604 629.662)" fill="url(#paint40_linear)"/>
</g>
<circle r="3.71706" transform="matrix(-1 0 0 1 776.759 659.4)" fill="#0038C8"/>
<circle r="3.71706" transform="matrix(-1 0 0 1 776.759 659.4)" fill="url(#paint41_linear)"/>
<g opacity="0.6">
<circle r="3.71706" transform="matrix(-1 0 0 1 747.023 659.4)" fill="#0038C8"/>
<circle r="3.71706" transform="matrix(-1 0 0 1 747.023 659.4)" fill="url(#paint42_linear)"/>
</g>
<circle r="3.71706" transform="matrix(-1 0 0 1 717.287 659.4)" fill="#0038C8"/>
<circle r="3.71706" transform="matrix(-1 0 0 1 717.287 659.4)" fill="url(#paint43_linear)"/>
<circle r="3.71706" transform="matrix(-1 0 0 1 687.551 659.4)" fill="#0038C8"/>
<circle r="3.71706" transform="matrix(-1 0 0 1 687.551 659.4)" fill="url(#paint44_linear)"/>
<g opacity="0.4">
<circle r="3.71706" transform="matrix(-1 0 0 1 657.815 659.4)" fill="#0038C8"/>
<circle r="3.71706" transform="matrix(-1 0 0 1 657.815 659.4)" fill="url(#paint45_linear)"/>
</g>
<g opacity="0.4">
<circle r="3.71706" transform="matrix(-1 0 0 1 628.079 659.4)" fill="#0038C8"/>
<circle r="3.71706" transform="matrix(-1 0 0 1 628.079 659.4)" fill="url(#paint46_linear)"/>
</g>
<g opacity="0.4">
<circle r="3.71706" transform="matrix(-1 0 0 1 598.34 659.4)" fill="#0038C8"/>
<circle r="3.71706" transform="matrix(-1 0 0 1 598.34 659.4)" fill="url(#paint47_linear)"/>
</g>
<circle r="3.71706" transform="matrix(-1 0 0 1 568.604 659.4)" fill="#0038C8"/>
<circle r="3.71706" transform="matrix(-1 0 0 1 568.604 659.4)" fill="url(#paint48_linear)"/>
<g opacity="0.4">
<circle r="3.71706" transform="matrix(-1 0 0 1 776.759 689.136)" fill="#0038C8"/>
<circle r="3.71706" transform="matrix(-1 0 0 1 776.759 689.136)" fill="url(#paint49_linear)"/>
</g>
<circle r="3.71706" transform="matrix(-1 0 0 1 747.023 689.136)" fill="#0038C8"/>
<circle r="3.71706" transform="matrix(-1 0 0 1 747.023 689.136)" fill="url(#paint50_linear)"/>
<circle r="3.71706" transform="matrix(-1 0 0 1 717.287 689.136)" fill="#0038C8"/>
<circle r="3.71706" transform="matrix(-1 0 0 1 717.287 689.136)" fill="url(#paint51_linear)"/>
<g opacity="0.8">
<circle r="3.71706" transform="matrix(-1 0 0 1 687.551 689.136)" fill="#0038C8"/>
<circle r="3.71706" transform="matrix(-1 0 0 1 687.551 689.136)" fill="url(#paint52_linear)"/>
</g>
<circle r="3.71706" transform="matrix(-1 0 0 1 657.815 689.136)" fill="#0038C8"/>
<circle r="3.71706" transform="matrix(-1 0 0 1 657.815 689.136)" fill="url(#paint53_linear)"/>
<circle r="3.71706" transform="matrix(-1 0 0 1 628.079 689.136)" fill="#0038C8"/>
<circle r="3.71706" transform="matrix(-1 0 0 1 628.079 689.136)" fill="url(#paint54_linear)"/>
<g opacity="0.6">
<circle r="3.71706" transform="matrix(-1 0 0 1 598.34 689.136)" fill="#0038C8"/>
<circle r="3.71706" transform="matrix(-1 0 0 1 598.34 689.136)" fill="url(#paint55_linear)"/>
</g>
<g opacity="0.6">
<circle r="3.71706" transform="matrix(-1 0 0 1 568.604 689.136)" fill="#0038C8"/>
<circle r="3.71706" transform="matrix(-1 0 0 1 568.604 689.136)" fill="url(#paint56_linear)"/>
</g>
<circle r="3.71706" transform="matrix(-1 0 0 1 776.759 718.872)" fill="#0038C8"/>
<circle r="3.71706" transform="matrix(-1 0 0 1 776.759 718.872)" fill="url(#paint57_linear)"/>
<g opacity="0.8">
<circle r="3.71706" transform="matrix(-1 0 0 1 747.023 718.872)" fill="#0038C8"/>
<circle r="3.71706" transform="matrix(-1 0 0 1 747.023 718.872)" fill="url(#paint58_linear)"/>
</g>
<g opacity="0.4">
<circle r="3.71706" transform="matrix(-1 0 0 1 717.287 718.872)" fill="#0038C8"/>
<circle r="3.71706" transform="matrix(-1 0 0 1 717.287 718.872)" fill="url(#paint59_linear)"/>
</g>
<g opacity="0.4">
<circle r="3.71706" transform="matrix(-1 0 0 1 687.551 718.872)" fill="#0038C8"/>
<circle r="3.71706" transform="matrix(-1 0 0 1 687.551 718.872)" fill="url(#paint60_linear)"/>
</g>
<circle r="3.71706" transform="matrix(-1 0 0 1 657.815 718.872)" fill="#0038C8"/>
<circle r="3.71706" transform="matrix(-1 0 0 1 657.815 718.872)" fill="url(#paint61_linear)"/>
<g opacity="0.4">
<circle r="3.71706" transform="matrix(-1 0 0 1 628.079 718.872)" fill="#0038C8"/>
<circle r="3.71706" transform="matrix(-1 0 0 1 628.079 718.872)" fill="url(#paint62_linear)"/>
</g>
<g opacity="0.4">
<circle r="3.71706" transform="matrix(-1 0 0 1 598.34 718.872)" fill="#0038C8"/>
<circle r="3.71706" transform="matrix(-1 0 0 1 598.34 718.872)" fill="url(#paint63_linear)"/>
</g>
<circle r="3.71706" transform="matrix(-1 0 0 1 568.604 718.872)" fill="#0038C8"/>
<circle r="3.71706" transform="matrix(-1 0 0 1 568.604 718.872)" fill="url(#paint64_linear)"/>
<circle r="3.71706" transform="matrix(-1 0 0 1 776.759 748.609)" fill="#0038C8"/>
<circle r="3.71706" transform="matrix(-1 0 0 1 776.759 748.609)" fill="url(#paint65_linear)"/>
<g opacity="0.4">
<circle r="3.71706" transform="matrix(-1 0 0 1 747.023 748.609)" fill="#0038C8"/>
<circle r="3.71706" transform="matrix(-1 0 0 1 747.023 748.609)" fill="url(#paint66_linear)"/>
</g>
<circle r="3.71706" transform="matrix(-1 0 0 1 717.287 748.609)" fill="#0038C8"/>
<circle r="3.71706" transform="matrix(-1 0 0 1 717.287 748.609)" fill="url(#paint67_linear)"/>
<circle r="3.71706" transform="matrix(-1 0 0 1 687.551 748.609)" fill="#0038C8"/>
<circle r="3.71706" transform="matrix(-1 0 0 1 687.551 748.609)" fill="url(#paint68_linear)"/>
<circle r="3.71706" transform="matrix(-1 0 0 1 657.815 748.609)" fill="#0038C8"/>
<circle r="3.71706" transform="matrix(-1 0 0 1 657.815 748.609)" fill="url(#paint69_linear)"/>
<circle r="3.71706" transform="matrix(-1 0 0 1 628.079 748.609)" fill="#0038C8"/>
<circle r="3.71706" transform="matrix(-1 0 0 1 628.079 748.609)" fill="url(#paint70_linear)"/>
<g opacity="0.6">
<circle r="3.71706" transform="matrix(-1 0 0 1 598.34 748.609)" fill="#0038C8"/>
<circle r="3.71706" transform="matrix(-1 0 0 1 598.34 748.609)" fill="url(#paint71_linear)"/>
</g>
<g opacity="0.8">
<circle r="3.71706" transform="matrix(-1 0 0 1 568.604 748.609)" fill="#0038C8"/>
<circle r="3.71706" transform="matrix(-1 0 0 1 568.604 748.609)" fill="url(#paint72_linear)"/>
</g>
<circle r="3.71706" transform="matrix(-1 0 0 1 776.759 778.345)" fill="#0038C8"/>
<circle r="3.71706" transform="matrix(-1 0 0 1 776.759 778.345)" fill="url(#paint73_linear)"/>
<circle r="3.71706" transform="matrix(-1 0 0 1 747.023 778.345)" fill="#0038C8"/>
<circle r="3.71706" transform="matrix(-1 0 0 1 747.023 778.345)" fill="url(#paint74_linear)"/>
<g opacity="0.6">
<circle r="3.71706" transform="matrix(-1 0 0 1 717.287 778.345)" fill="#0038C8"/>
<circle r="3.71706" transform="matrix(-1 0 0 1 717.287 778.345)" fill="url(#paint75_linear)"/>
</g>
<g opacity="0.4">
<circle r="3.71706" transform="matrix(-1 0 0 1 687.551 778.345)" fill="#0038C8"/>
<circle r="3.71706" transform="matrix(-1 0 0 1 687.551 778.345)" fill="url(#paint76_linear)"/>
</g>
<circle r="3.71706" transform="matrix(-1 0 0 1 657.815 778.345)" fill="#0038C8"/>
<circle r="3.71706" transform="matrix(-1 0 0 1 657.815 778.345)" fill="url(#paint77_linear)"/>
<circle r="3.71706" transform="matrix(-1 0 0 1 628.079 778.345)" fill="#0038C8"/>
<circle r="3.71706" transform="matrix(-1 0 0 1 628.079 778.345)" fill="url(#paint78_linear)"/>
<g opacity="0.4">
<circle r="3.71706" transform="matrix(-1 0 0 1 598.34 778.345)" fill="#0038C8"/>
<circle r="3.71706" transform="matrix(-1 0 0 1 598.34 778.345)" fill="url(#paint79_linear)"/>
</g>
<g opacity="0.4">
<circle r="3.71706" transform="matrix(-1 0 0 1 568.604 778.345)" fill="#0038C8"/>
<circle r="3.71706" transform="matrix(-1 0 0 1 568.604 778.345)" fill="url(#paint80_linear)"/>
</g>
<g opacity="0.6">
<circle r="3.71706" transform="matrix(-1 0 0 1 776.759 808.081)" fill="#0038C8"/>
<circle r="3.71706" transform="matrix(-1 0 0 1 776.759 808.081)" fill="url(#paint81_linear)"/>
</g>
<circle r="3.71706" transform="matrix(-1 0 0 1 747.023 808.081)" fill="#0038C8"/>
<circle r="3.71706" transform="matrix(-1 0 0 1 747.023 808.081)" fill="url(#paint82_linear)"/>
<g opacity="0.6">
<circle r="3.71706" transform="matrix(-1 0 0 1 717.287 808.081)" fill="#0038C8"/>
<circle r="3.71706" transform="matrix(-1 0 0 1 717.287 808.081)" fill="url(#paint83_linear)"/>
</g>
<g opacity="0.6">
<circle r="3.71706" transform="matrix(-1 0 0 1 687.551 808.081)" fill="#0038C8"/>
<circle r="3.71706" transform="matrix(-1 0 0 1 687.551 808.081)" fill="url(#paint84_linear)"/>
</g>
<g opacity="0.8">
<circle r="3.71706" transform="matrix(-1 0 0 1 657.815 808.081)" fill="#0038C8"/>
<circle r="3.71706" transform="matrix(-1 0 0 1 657.815 808.081)" fill="url(#paint85_linear)"/>
</g>
<g opacity="0.4">
<circle r="3.71706" transform="matrix(-1 0 0 1 628.079 808.081)" fill="#0038C8"/>
<circle r="3.71706" transform="matrix(-1 0 0 1 628.079 808.081)" fill="url(#paint86_linear)"/>
</g>
<circle r="3.71706" transform="matrix(-1 0 0 1 598.34 808.081)" fill="#0038C8"/>
<circle r="3.71706" transform="matrix(-1 0 0 1 598.34 808.081)" fill="url(#paint87_linear)"/>
<g opacity="0.4">
<circle r="3.71706" transform="matrix(-1 0 0 1 568.604 808.081)" fill="#0038C8"/>
<circle r="3.71706" transform="matrix(-1 0 0 1 568.604 808.081)" fill="url(#paint88_linear)"/>
</g>
<circle r="3.71706" transform="matrix(-1 0 0 1 776.759 837.817)" fill="#0038C8"/>
<circle r="3.71706" transform="matrix(-1 0 0 1 776.759 837.817)" fill="url(#paint89_linear)"/>
<g opacity="0.6">
<circle r="3.71706" transform="matrix(-1 0 0 1 747.023 837.817)" fill="#0038C8"/>
<circle r="3.71706" transform="matrix(-1 0 0 1 747.023 837.817)" fill="url(#paint90_linear)"/>
</g>
<circle r="3.71706" transform="matrix(-1 0 0 1 717.287 837.817)" fill="#0038C8"/>
<circle r="3.71706" transform="matrix(-1 0 0 1 717.287 837.817)" fill="url(#paint91_linear)"/>
<circle r="3.71706" transform="matrix(-1 0 0 1 687.551 837.817)" fill="#0038C8"/>
<circle r="3.71706" transform="matrix(-1 0 0 1 687.551 837.817)" fill="url(#paint92_linear)"/>
<g opacity="0.6">
<circle r="3.71706" transform="matrix(-1 0 0 1 657.815 837.817)" fill="#0038C8"/>
<circle r="3.71706" transform="matrix(-1 0 0 1 657.815 837.817)" fill="url(#paint93_linear)"/>
</g>
<circle r="3.71706" transform="matrix(-1 0 0 1 628.079 837.817)" fill="#0038C8"/>
<circle r="3.71706" transform="matrix(-1 0 0 1 628.079 837.817)" fill="url(#paint94_linear)"/>
<g opacity="0.4">
<circle r="3.71706" transform="matrix(-1 0 0 1 598.34 837.817)" fill="#0038C8"/>
<circle r="3.71706" transform="matrix(-1 0 0 1 598.34 837.817)" fill="url(#paint95_linear)"/>
</g>
<g opacity="0.8">
<circle r="3.71706" transform="matrix(-1 0 0 1 568.604 837.817)" fill="#0038C8"/>
<circle r="3.71706" transform="matrix(-1 0 0 1 568.604 837.817)" fill="url(#paint96_linear)"/>
</g>
</g>
<defs>
<filter id="filter0_f" x="0.493652" y="0.741089" width="1477.44" height="1716.15" filterUnits="userSpaceOnUse" color-interpolation-filters="sRGB">
<feFlood flood-opacity="0" result="BackgroundImageFix"/>
<feBlend mode="normal" in="SourceGraphic" in2="BackgroundImageFix" result="shape"/>
<feGaussianBlur stdDeviation="250" result="effect1_foregroundBlur"/>
</filter>
<radialGradient id="paint0_radial" cx="0" cy="0" r="1" gradientUnits="userSpaceOnUse" gradientTransform="translate(167.5 167.5) rotate(90) scale(167.733)">
<stop stop-color="white"/>
<stop offset="0.244792" stop-color="white" stop-opacity="0.5"/>
<stop offset="1" stop-color="white" stop-opacity="0"/>
</radialGradient>
<linearGradient id="paint1_linear" x1="-6.30927" y1="3.71706" x2="7.33798" y2="3.78903" gradientUnits="userSpaceOnUse">
<stop stop-color="#0038C8"/>
<stop offset="1" stop-color="#8D00D3"/>
</linearGradient>
<linearGradient id="paint2_linear" x1="-6.30927" y1="3.71706" x2="7.33798" y2="3.78903" gradientUnits="userSpaceOnUse">
<stop stop-color="#0038C8"/>
<stop offset="1" stop-color="#8D00D3"/>
</linearGradient>
<linearGradient id="paint3_linear" x1="-6.30927" y1="3.71706" x2="7.33798" y2="3.78903" gradientUnits="userSpaceOnUse">
<stop stop-color="#0038C8"/>
<stop offset="1" stop-color="#8D00D3"/>
</linearGradient>
<linearGradient id="paint4_linear" x1="-6.30927" y1="3.71706" x2="7.33798" y2="3.78903" gradientUnits="userSpaceOnUse">
<stop stop-color="#0038C8"/>
<stop offset="1" stop-color="#8D00D3"/>
</linearGradient>
<linearGradient id="paint5_linear" x1="-6.30927" y1="3.71706" x2="7.33798" y2="3.78903" gradientUnits="userSpaceOnUse">
<stop stop-color="#0038C8"/>
<stop offset="1" stop-color="#8D00D3"/>
</linearGradient>
<linearGradient id="paint6_linear" x1="-6.30927" y1="3.71706" x2="7.33798" y2="3.78903" gradientUnits="userSpaceOnUse">
<stop stop-color="#0038C8"/>
<stop offset="1" stop-color="#8D00D3"/>
</linearGradient>
<linearGradient id="paint7_linear" x1="-6.30927" y1="3.71706" x2="7.33798" y2="3.78903" gradientUnits="userSpaceOnUse">
<stop stop-color="#0038C8"/>
<stop offset="1" stop-color="#8D00D3"/>
</linearGradient>
<linearGradient id="paint8_linear" x1="-6.30927" y1="3.71706" x2="7.33798" y2="3.78903" gradientUnits="userSpaceOnUse">
<stop stop-color="#0038C8"/>
<stop offset="1" stop-color="#8D00D3"/>
</linearGradient>
<linearGradient id="paint9_linear" x1="-6.30927" y1="3.71706" x2="7.33798" y2="3.78903" gradientUnits="userSpaceOnUse">
<stop stop-color="#0038C8"/>
<stop offset="1" stop-color="#8D00D3"/>
</linearGradient>
<linearGradient id="paint10_linear" x1="-6.30927" y1="3.71706" x2="7.33798" y2="3.78903" gradientUnits="userSpaceOnUse">
<stop stop-color="#0038C8"/>
<stop offset="1" stop-color="#8D00D3"/>
</linearGradient>
<linearGradient id="paint11_linear" x1="-6.30927" y1="3.71706" x2="7.33798" y2="3.78903" gradientUnits="userSpaceOnUse">
<stop stop-color="#0038C8"/>
<stop offset="1" stop-color="#8D00D3"/>
</linearGradient>
<linearGradient id="paint12_linear" x1="-6.30927" y1="3.71706" x2="7.33798" y2="3.78903" gradientUnits="userSpaceOnUse">
<stop stop-color="#0038C8"/>
<stop offset="1" stop-color="#8D00D3"/>
</linearGradient>
<linearGradient id="paint13_linear" x1="-6.30927" y1="3.71706" x2="7.33798" y2="3.78903" gradientUnits="userSpaceOnUse">
<stop stop-color="#0038C8"/>
<stop offset="1" stop-color="#8D00D3"/>
</linearGradient>
<linearGradient id="paint14_linear" x1="-6.30927" y1="3.71706" x2="7.33798" y2="3.78903" gradientUnits="userSpaceOnUse">
<stop stop-color="#0038C8"/>
<stop offset="1" stop-color="#8D00D3"/>
</linearGradient>
<linearGradient id="paint15_linear" x1="-6.30927" y1="3.71706" x2="7.33798" y2="3.78903" gradientUnits="userSpaceOnUse">
<stop stop-color="#0038C8"/>
<stop offset="1" stop-color="#8D00D3"/>
</linearGradient>
<linearGradient id="paint16_linear" x1="-6.30927" y1="3.71706" x2="7.33798" y2="3.78903" gradientUnits="userSpaceOnUse">
<stop stop-color="#0038C8"/>
<stop offset="1" stop-color="#8D00D3"/>
</linearGradient>
<linearGradient id="paint17_linear" x1="-6.30927" y1="3.71706" x2="7.33798" y2="3.78903" gradientUnits="userSpaceOnUse">
<stop stop-color="#0038C8"/>
<stop offset="1" stop-color="#8D00D3"/>
</linearGradient>
<linearGradient id="paint18_linear" x1="-6.30927" y1="3.71706" x2="7.33798" y2="3.78903" gradientUnits="userSpaceOnUse">
<stop stop-color="#0038C8"/>
<stop offset="1" stop-color="#8D00D3"/>
</linearGradient>
<linearGradient id="paint19_linear" x1="-6.30927" y1="3.71706" x2="7.33798" y2="3.78903" gradientUnits="userSpaceOnUse">
<stop stop-color="#0038C8"/>
<stop offset="1" stop-color="#8D00D3"/>
</linearGradient>
<linearGradient id="paint20_linear" x1="-6.30927" y1="3.71706" x2="7.33798" y2="3.78903" gradientUnits="userSpaceOnUse">
<stop stop-color="#0038C8"/>
<stop offset="1" stop-color="#8D00D3"/>
</linearGradient>
<linearGradient id="paint21_linear" x1="-6.30927" y1="3.71706" x2="7.33798" y2="3.78903" gradientUnits="userSpaceOnUse">
<stop stop-color="#0038C8"/>
<stop offset="1" stop-color="#8D00D3"/>
</linearGradient>
<linearGradient id="paint22_linear" x1="-6.30927" y1="3.71706" x2="7.33798" y2="3.78903" gradientUnits="userSpaceOnUse">
<stop stop-color="#0038C8"/>
<stop offset="1" stop-color="#8D00D3"/>
</linearGradient>
<linearGradient id="paint23_linear" x1="-6.30927" y1="3.71706" x2="7.33798" y2="3.78903" gradientUnits="userSpaceOnUse">
<stop stop-color="#0038C8"/>
<stop offset="1" stop-color="#8D00D3"/>
</linearGradient>
<linearGradient id="paint24_linear" x1="-6.30927" y1="3.71706" x2="7.33798" y2="3.78903" gradientUnits="userSpaceOnUse">
<stop stop-color="#0038C8"/>
<stop offset="1" stop-color="#8D00D3"/>
</linearGradient>
<linearGradient id="paint25_linear" x1="-6.30927" y1="3.71706" x2="7.33798" y2="3.78903" gradientUnits="userSpaceOnUse">
<stop stop-color="#0038C8"/>
<stop offset="1" stop-color="#8D00D3"/>
</linearGradient>
<linearGradient id="paint26_linear" x1="-6.30927" y1="3.71706" x2="7.33798" y2="3.78903" gradientUnits="userSpaceOnUse">
<stop stop-color="#0038C8"/>
<stop offset="1" stop-color="#8D00D3"/>
</linearGradient>
<linearGradient id="paint27_linear" x1="-6.30927" y1="3.71706" x2="7.33798" y2="3.78903" gradientUnits="userSpaceOnUse">
<stop stop-color="#0038C8"/>
<stop offset="1" stop-color="#8D00D3"/>
</linearGradient>
<linearGradient id="paint28_linear" x1="-6.30927" y1="3.71706" x2="7.33798" y2="3.78903" gradientUnits="userSpaceOnUse">
<stop stop-color="#0038C8"/>
<stop offset="1" stop-color="#8D00D3"/>
</linearGradient>
<linearGradient id="paint29_linear" x1="-6.30927" y1="3.71706" x2="7.33798" y2="3.78903" gradientUnits="userSpaceOnUse">
<stop stop-color="#0038C8"/>
<stop offset="1" stop-color="#8D00D3"/>
</linearGradient>
<linearGradient id="paint30_linear" x1="-6.30927" y1="3.71706" x2="7.33798" y2="3.78903" gradientUnits="userSpaceOnUse">
<stop stop-color="#0038C8"/>
<stop offset="1" stop-color="#8D00D3"/>
</linearGradient>
<linearGradient id="paint31_linear" x1="-6.30927" y1="3.71706" x2="7.33798" y2="3.78903" gradientUnits="userSpaceOnUse">
<stop stop-color="#0038C8"/>
<stop offset="1" stop-color="#8D00D3"/>
</linearGradient>
<linearGradient id="paint32_linear" x1="-6.30927" y1="3.71706" x2="7.33798" y2="3.78903" gradientUnits="userSpaceOnUse">
<stop stop-color="#0038C8"/>
<stop offset="1" stop-color="#8D00D3"/>
</linearGradient>
<linearGradient id="paint33_linear" x1="-6.30927" y1="3.71706" x2="7.33798" y2="3.78903" gradientUnits="userSpaceOnUse">
<stop stop-color="#0038C8"/>
<stop offset="1" stop-color="#8D00D3"/>
</linearGradient>
<linearGradient id="paint34_linear" x1="-6.30927" y1="3.71706" x2="7.33798" y2="3.78903" gradientUnits="userSpaceOnUse">
<stop stop-color="#0038C8"/>
<stop offset="1" stop-color="#8D00D3"/>
</linearGradient>
<linearGradient id="paint35_linear" x1="-6.30927" y1="3.71706" x2="7.33798" y2="3.78903" gradientUnits="userSpaceOnUse">
<stop stop-color="#0038C8"/>
<stop offset="1" stop-color="#8D00D3"/>
</linearGradient>
<linearGradient id="paint36_linear" x1="-6.30927" y1="3.71706" x2="7.33798" y2="3.78903" gradientUnits="userSpaceOnUse">
<stop stop-color="#0038C8"/>
<stop offset="1" stop-color="#8D00D3"/>
</linearGradient>
<linearGradient id="paint37_linear" x1="-6.30927" y1="3.71706" x2="7.33798" y2="3.78903" gradientUnits="userSpaceOnUse">
<stop stop-color="#0038C8"/>
<stop offset="1" stop-color="#8D00D3"/>
</linearGradient>
<linearGradient id="paint38_linear" x1="-6.30927" y1="3.71706" x2="7.33798" y2="3.78903" gradientUnits="userSpaceOnUse">
<stop stop-color="#0038C8"/>
<stop offset="1" stop-color="#8D00D3"/>
</linearGradient>
<linearGradient id="paint39_linear" x1="-6.30927" y1="3.71706" x2="7.33798" y2="3.78903" gradientUnits="userSpaceOnUse">
<stop stop-color="#0038C8"/>
<stop offset="1" stop-color="#8D00D3"/>
</linearGradient>
<linearGradient id="paint40_linear" x1="-6.30927" y1="3.71706" x2="7.33798" y2="3.78903" gradientUnits="userSpaceOnUse">
<stop stop-color="#0038C8"/>
<stop offset="1" stop-color="#8D00D3"/>
</linearGradient>
<linearGradient id="paint41_linear" x1="-6.30927" y1="3.71706" x2="7.33798" y2="3.78903" gradientUnits="userSpaceOnUse">
<stop stop-color="#0038C8"/>
<stop offset="1" stop-color="#8D00D3"/>
</linearGradient>
<linearGradient id="paint42_linear" x1="-6.30927" y1="3.71706" x2="7.33798" y2="3.78903" gradientUnits="userSpaceOnUse">
<stop stop-color="#0038C8"/>
<stop offset="1" stop-color="#8D00D3"/>
</linearGradient>
<linearGradient id="paint43_linear" x1="-6.30927" y1="3.71706" x2="7.33798" y2="3.78903" gradientUnits="userSpaceOnUse">
<stop stop-color="#0038C8"/>
<stop offset="1" stop-color="#8D00D3"/>
</linearGradient>
<linearGradient id="paint44_linear" x1="-6.30927" y1="3.71706" x2="7.33798" y2="3.78903" gradientUnits="userSpaceOnUse">
<stop stop-color="#0038C8"/>
<stop offset="1" stop-color="#8D00D3"/>
</linearGradient>
<linearGradient id="paint45_linear" x1="-6.30927" y1="3.71706" x2="7.33798" y2="3.78903" gradientUnits="userSpaceOnUse">
<stop stop-color="#0038C8"/>
<stop offset="1" stop-color="#8D00D3"/>
</linearGradient>
<linearGradient id="paint46_linear" x1="-6.30927" y1="3.71706" x2="7.33798" y2="3.78903" gradientUnits="userSpaceOnUse">
<stop stop-color="#0038C8"/>
<stop offset="1" stop-color="#8D00D3"/>
</linearGradient>
<linearGradient id="paint47_linear" x1="-6.30927" y1="3.71706" x2="7.33798" y2="3.78903" gradientUnits="userSpaceOnUse">
<stop stop-color="#0038C8"/>
<stop offset="1" stop-color="#8D00D3"/>
</linearGradient>
<linearGradient id="paint48_linear" x1="-6.30927" y1="3.71706" x2="7.33798" y2="3.78903" gradientUnits="userSpaceOnUse">
<stop stop-color="#0038C8"/>
<stop offset="1" stop-color="#8D00D3"/>
</linearGradient>
<linearGradient id="paint49_linear" x1="-6.30927" y1="3.71706" x2="7.33798" y2="3.78903" gradientUnits="userSpaceOnUse">
<stop stop-color="#0038C8"/>
<stop offset="1" stop-color="#8D00D3"/>
</linearGradient>
<linearGradient id="paint50_linear" x1="-6.30927" y1="3.71706" x2="7.33798" y2="3.78903" gradientUnits="userSpaceOnUse">
<stop stop-color="#0038C8"/>
<stop offset="1" stop-color="#8D00D3"/>
</linearGradient>
<linearGradient id="paint51_linear" x1="-6.30927" y1="3.71706" x2="7.33798" y2="3.78903" gradientUnits="userSpaceOnUse">
<stop stop-color="#0038C8"/>
<stop offset="1" stop-color="#8D00D3"/>
</linearGradient>
<linearGradient id="paint52_linear" x1="-6.30927" y1="3.71706" x2="7.33798" y2="3.78903" gradientUnits="userSpaceOnUse">
<stop stop-color="#0038C8"/>
<stop offset="1" stop-color="#8D00D3"/>
</linearGradient>
<linearGradient id="paint53_linear" x1="-6.30927" y1="3.71706" x2="7.33798" y2="3.78903" gradientUnits="userSpaceOnUse">
<stop stop-color="#0038C8"/>
<stop offset="1" stop-color="#8D00D3"/>
</linearGradient>
<linearGradient id="paint54_linear" x1="-6.30927" y1="3.71706" x2="7.33798" y2="3.78903" gradientUnits="userSpaceOnUse">
<stop stop-color="#0038C8"/>
<stop offset="1" stop-color="#8D00D3"/>
</linearGradient>
<linearGradient id="paint55_linear" x1="-6.30927" y1="3.71706" x2="7.33798" y2="3.78903" gradientUnits="userSpaceOnUse">
<stop stop-color="#0038C8"/>
<stop offset="1" stop-color="#8D00D3"/>
</linearGradient>
<linearGradient id="paint56_linear" x1="-6.30927" y1="3.71706" x2="7.33798" y2="3.78903" gradientUnits="userSpaceOnUse">
<stop stop-color="#0038C8"/>
<stop offset="1" stop-color="#8D00D3"/>
</linearGradient>
<linearGradient id="paint57_linear" x1="-6.30927" y1="3.71706" x2="7.33798" y2="3.78903" gradientUnits="userSpaceOnUse">
<stop stop-color="#0038C8"/>
<stop offset="1" stop-color="#8D00D3"/>
</linearGradient>
<linearGradient id="paint58_linear" x1="-6.30927" y1="3.71706" x2="7.33798" y2="3.78903" gradientUnits="userSpaceOnUse">
<stop stop-color="#0038C8"/>
<stop offset="1" stop-color="#8D00D3"/>
</linearGradient>
<linearGradient id="paint59_linear" x1="-6.30927" y1="3.71706" x2="7.33798" y2="3.78903" gradientUnits="userSpaceOnUse">
<stop stop-color="#0038C8"/>
<stop offset="1" stop-color="#8D00D3"/>
</linearGradient>
<linearGradient id="paint60_linear" x1="-6.30927" y1="3.71706" x2="7.33798" y2="3.78903" gradientUnits="userSpaceOnUse">
<stop stop-color="#0038C8"/>
<stop offset="1" stop-color="#8D00D3"/>
</linearGradient>
<linearGradient id="paint61_linear" x1="-6.30927" y1="3.71706" x2="7.33798" y2="3.78903" gradientUnits="userSpaceOnUse">
<stop stop-color="#0038C8"/>
<stop offset="1" stop-color="#8D00D3"/>
</linearGradient>
<linearGradient id="paint62_linear" x1="-6.30927" y1="3.71706" x2="7.33798" y2="3.78903" gradientUnits="userSpaceOnUse">
<stop stop-color="#0038C8"/>
<stop offset="1" stop-color="#8D00D3"/>
</linearGradient>
<linearGradient id="paint63_linear" x1="-6.30927" y1="3.71706" x2="7.33798" y2="3.78903" gradientUnits="userSpaceOnUse">
<stop stop-color="#0038C8"/>
<stop offset="1" stop-color="#8D00D3"/>
</linearGradient>
<linearGradient id="paint64_linear" x1="-6.30927" y1="3.71706" x2="7.33798" y2="3.78903" gradientUnits="userSpaceOnUse">
<stop stop-color="#0038C8"/>
<stop offset="1" stop-color="#8D00D3"/>
</linearGradient>
<linearGradient id="paint65_linear" x1="-6.30927" y1="3.71706" x2="7.33798" y2="3.78903" gradientUnits="userSpaceOnUse">
<stop stop-color="#0038C8"/>
<stop offset="1" stop-color="#8D00D3"/>
</linearGradient>
<linearGradient id="paint66_linear" x1="-6.30927" y1="3.71706" x2="7.33798" y2="3.78903" gradientUnits="userSpaceOnUse">
<stop stop-color="#0038C8"/>
<stop offset="1" stop-color="#8D00D3"/>
</linearGradient>
<linearGradient id="paint67_linear" x1="-6.30927" y1="3.71706" x2="7.33798" y2="3.78903" gradientUnits="userSpaceOnUse">
<stop stop-color="#0038C8"/>
<stop offset="1" stop-color="#8D00D3"/>
</linearGradient>
<linearGradient id="paint68_linear" x1="-6.30927" y1="3.71706" x2="7.33798" y2="3.78903" gradientUnits="userSpaceOnUse">
<stop stop-color="#0038C8"/>
<stop offset="1" stop-color="#8D00D3"/>
</linearGradient>
<linearGradient id="paint69_linear" x1="-6.30927" y1="3.71706" x2="7.33798" y2="3.78903" gradientUnits="userSpaceOnUse">
<stop stop-color="#0038C8"/>
<stop offset="1" stop-color="#8D00D3"/>
</linearGradient>
<linearGradient id="paint70_linear" x1="-6.30927" y1="3.71706" x2="7.33798" y2="3.78903" gradientUnits="userSpaceOnUse">
<stop stop-color="#0038C8"/>
<stop offset="1" stop-color="#8D00D3"/>
</linearGradient>
<linearGradient id="paint71_linear" x1="-6.30927" y1="3.71706" x2="7.33798" y2="3.78903" gradientUnits="userSpaceOnUse">
<stop stop-color="#0038C8"/>
<stop offset="1" stop-color="#8D00D3"/>
</linearGradient>
<linearGradient id="paint72_linear" x1="-6.30927" y1="3.71706" x2="7.33798" y2="3.78903" gradientUnits="userSpaceOnUse">
<stop stop-color="#0038C8"/>
<stop offset="1" stop-color="#8D00D3"/>
</linearGradient>
<linearGradient id="paint73_linear" x1="-6.30927" y1="3.71706" x2="7.33798" y2="3.78903" gradientUnits="userSpaceOnUse">
<stop stop-color="#0038C8"/>
<stop offset="1" stop-color="#8D00D3"/>
</linearGradient>
<linearGradient id="paint74_linear" x1="-6.30927" y1="3.71706" x2="7.33798" y2="3.78903" gradientUnits="userSpaceOnUse">
<stop stop-color="#0038C8"/>
<stop offset="1" stop-color="#8D00D3"/>
</linearGradient>
<linearGradient id="paint75_linear" x1="-6.30927" y1="3.71706" x2="7.33798" y2="3.78903" gradientUnits="userSpaceOnUse">
<stop stop-color="#0038C8"/>
<stop offset="1" stop-color="#8D00D3"/>
</linearGradient>
<linearGradient id="paint76_linear" x1="-6.30927" y1="3.71706" x2="7.33798" y2="3.78903" gradientUnits="userSpaceOnUse">
<stop stop-color="#0038C8"/>
<stop offset="1" stop-color="#8D00D3"/>
</linearGradient>
<linearGradient id="paint77_linear" x1="-6.30927" y1="3.71706" x2="7.33798" y2="3.78903" gradientUnits="userSpaceOnUse">
<stop stop-color="#0038C8"/>
<stop offset="1" stop-color="#8D00D3"/>
</linearGradient>
<linearGradient id="paint78_linear" x1="-6.30927" y1="3.71706" x2="7.33798" y2="3.78903" gradientUnits="userSpaceOnUse">
<stop stop-color="#0038C8"/>
<stop offset="1" stop-color="#8D00D3"/>
</linearGradient>
<linearGradient id="paint79_linear" x1="-6.30927" y1="3.71706" x2="7.33798" y2="3.78903" gradientUnits="userSpaceOnUse">
<stop stop-color="#0038C8"/>
<stop offset="1" stop-color="#8D00D3"/>
</linearGradient>
<linearGradient id="paint80_linear" x1="-6.30927" y1="3.71706" x2="7.33798" y2="3.78903" gradientUnits="userSpaceOnUse">
<stop stop-color="#0038C8"/>
<stop offset="1" stop-color="#8D00D3"/>
</linearGradient>
<linearGradient id="paint81_linear" x1="-6.30927" y1="3.71706" x2="7.33798" y2="3.78903" gradientUnits="userSpaceOnUse">
<stop stop-color="#0038C8"/>
<stop offset="1" stop-color="#8D00D3"/>
</linearGradient>
<linearGradient id="paint82_linear" x1="-6.30927" y1="3.71706" x2="7.33798" y2="3.78903" gradientUnits="userSpaceOnUse">
<stop stop-color="#0038C8"/>
<stop offset="1" stop-color="#8D00D3"/>
</linearGradient>
<linearGradient id="paint83_linear" x1="-6.30927" y1="3.71706" x2="7.33798" y2="3.78903" gradientUnits="userSpaceOnUse">
<stop stop-color="#0038C8"/>
<stop offset="1" stop-color="#8D00D3"/>
</linearGradient>
<linearGradient id="paint84_linear" x1="-6.30927" y1="3.71706" x2="7.33798" y2="3.78903" gradientUnits="userSpaceOnUse">
<stop stop-color="#0038C8"/>
<stop offset="1" stop-color="#8D00D3"/>
</linearGradient>
<linearGradient id="paint85_linear" x1="-6.30927" y1="3.71706" x2="7.33798" y2="3.78903" gradientUnits="userSpaceOnUse">
<stop stop-color="#0038C8"/>
<stop offset="1" stop-color="#8D00D3"/>
</linearGradient>
<linearGradient id="paint86_linear" x1="-6.30927" y1="3.71706" x2="7.33798" y2="3.78903" gradientUnits="userSpaceOnUse">
<stop stop-color="#0038C8"/>
<stop offset="1" stop-color="#8D00D3"/>
</linearGradient>
<linearGradient id="paint87_linear" x1="-6.30927" y1="3.71706" x2="7.33798" y2="3.78903" gradientUnits="userSpaceOnUse">
<stop stop-color="#0038C8"/>
<stop offset="1" stop-color="#8D00D3"/>
</linearGradient>
<linearGradient id="paint88_linear" x1="-6.30927" y1="3.71706" x2="7.33798" y2="3.78903" gradientUnits="userSpaceOnUse">
<stop stop-color="#0038C8"/>
<stop offset="1" stop-color="#8D00D3"/>
</linearGradient>
<linearGradient id="paint89_linear" x1="-6.30927" y1="3.71706" x2="7.33798" y2="3.78903" gradientUnits="userSpaceOnUse">
<stop stop-color="#0038C8"/>
<stop offset="1" stop-color="#8D00D3"/>
</linearGradient>
<linearGradient id="paint90_linear" x1="-6.30927" y1="3.71706" x2="7.33798" y2="3.78903" gradientUnits="userSpaceOnUse">
<stop stop-color="#0038C8"/>
<stop offset="1" stop-color="#8D00D3"/>
</linearGradient>
<linearGradient id="paint91_linear" x1="-6.30927" y1="3.71706" x2="7.33798" y2="3.78903" gradientUnits="userSpaceOnUse">
<stop stop-color="#0038C8"/>
<stop offset="1" stop-color="#8D00D3"/>
</linearGradient>
<linearGradient id="paint92_linear" x1="-6.30927" y1="3.71706" x2="7.33798" y2="3.78903" gradientUnits="userSpaceOnUse">
<stop stop-color="#0038C8"/>
<stop offset="1" stop-color="#8D00D3"/>
</linearGradient>
<linearGradient id="paint93_linear" x1="-6.30927" y1="3.71706" x2="7.33798" y2="3.78903" gradientUnits="userSpaceOnUse">
<stop stop-color="#0038C8"/>
<stop offset="1" stop-color="#8D00D3"/>
</linearGradient>
<linearGradient id="paint94_linear" x1="-6.30927" y1="3.71706" x2="7.33798" y2="3.78903" gradientUnits="userSpaceOnUse">
<stop stop-color="#0038C8"/>
<stop offset="1" stop-color="#8D00D3"/>
</linearGradient>
<linearGradient id="paint95_linear" x1="-6.30927" y1="3.71706" x2="7.33798" y2="3.78903" gradientUnits="userSpaceOnUse">
<stop stop-color="#0038C8"/>
<stop offset="1" stop-color="#8D00D3"/>
</linearGradient>
<linearGradient id="paint96_linear" x1="-6.30927" y1="3.71706" x2="7.33798" y2="3.78903" gradientUnits="userSpaceOnUse">
<stop stop-color="#0038C8"/>
<stop offset="1" stop-color="#8D00D3"/>
</linearGradient>
</defs>
</svg>
