<svg width="32" height="32" viewBox="0 0 32 32" fill="none" xmlns="http://www.w3.org/2000/svg">
<circle cx="16" cy="16" r="15.75" fill="url(#paint0_linear)" stroke="url(#paint1_linear)" stroke-width="0.5"/>
<path d="M12.41 21.196C11.1873 21.196 10.226 20.734 9.526 19.81C8.83533 18.8767 8.49 17.64 8.49 16.1C8.49 14.56 8.83533 13.328 9.526 12.404C10.226 11.4707 11.1873 11.004 12.41 11.004C13.642 11.004 14.6033 11.4707 15.294 12.404C15.9847 13.328 16.33 14.56 16.33 16.1C16.33 17.64 15.9847 18.8767 15.294 19.81C14.6033 20.734 13.642 21.196 12.41 21.196ZM10.926 18.494C11.262 19.0353 11.7567 19.306 12.41 19.306C13.0633 19.306 13.558 19.0307 13.894 18.48C14.2393 17.9293 14.412 17.136 14.412 16.1C14.412 15.0547 14.2393 14.2567 13.894 13.706C13.558 13.1553 13.0633 12.88 12.41 12.88C11.7567 12.88 11.262 13.1553 10.926 13.706C10.59 14.2567 10.422 15.0547 10.422 16.1C10.422 17.1453 10.59 17.9433 10.926 18.494ZM21.1639 15.176C21.8265 15.372 22.3632 15.7173 22.7739 16.212C23.1939 16.6973 23.4039 17.2853 23.4039 17.976C23.4039 18.984 23.0632 19.7727 22.3819 20.342C21.7099 20.9113 20.8839 21.196 19.9039 21.196C19.1385 21.196 18.4525 21.0233 17.8459 20.678C17.2485 20.3233 16.8145 19.8053 16.5439 19.124L18.1959 18.172C18.4385 18.928 19.0079 19.306 19.9039 19.306C20.3985 19.306 20.7812 19.1893 21.0519 18.956C21.3319 18.7133 21.4719 18.3867 21.4719 17.976C21.4719 17.5747 21.3319 17.2527 21.0519 17.01C20.7812 16.7673 20.3985 16.646 19.9039 16.646H19.4839L18.7419 15.526L20.6739 13.006H16.8379V11.2H22.9979V12.796L21.1639 15.176Z" fill="#FC7937"/>
<defs>
<linearGradient id="paint0_linear" x1="27.2" y1="27.2" x2="5" y2="4.4" gradientUnits="userSpaceOnUse">
<stop stop-color="#131533"/>
<stop offset="1" stop-color="#0B0C1D"/>
</linearGradient>
<linearGradient id="paint1_linear" x1="10.0465" y1="1.56957e-06" x2="34.8302" y2="9.81055" gradientUnits="userSpaceOnUse">
<stop stop-color="#FC7937"/>
<stop offset="1" stop-color="#FC7937" stop-opacity="0"/>
</linearGradient>
</defs>
</svg>
