<svg width="32" height="32" viewBox="0 0 32 32" fill="none" xmlns="http://www.w3.org/2000/svg">
<circle cx="16" cy="16" r="15.75" fill="url(#paint0_linear)" stroke="url(#paint1_linear)" stroke-width="0.5"/>
<path d="M13.41 21.196C12.1873 21.196 11.226 20.734 10.526 19.81C9.83533 18.8767 9.49 17.64 9.49 16.1C9.49 14.56 9.83533 13.328 10.526 12.404C11.226 11.4707 12.1873 11.004 13.41 11.004C14.642 11.004 15.6033 11.4707 16.294 12.404C16.9847 13.328 17.33 14.56 17.33 16.1C17.33 17.64 16.9847 18.8767 16.294 19.81C15.6033 20.734 14.642 21.196 13.41 21.196ZM11.926 18.494C12.262 19.0353 12.7567 19.306 13.41 19.306C14.0633 19.306 14.558 19.0307 14.894 18.48C15.2393 17.9293 15.412 17.136 15.412 16.1C15.412 15.0547 15.2393 14.2567 14.894 13.706C14.558 13.1553 14.0633 12.88 13.41 12.88C12.7567 12.88 12.262 13.1553 11.926 13.706C11.59 14.2567 11.422 15.0547 11.422 16.1C11.422 17.1453 11.59 17.9433 11.926 18.494ZM20.0749 11.2H21.7549V21H19.8229V13.244L17.9749 13.762L17.4989 12.11L20.0749 11.2Z" fill="#8D01D3"/>
<defs>
<linearGradient id="paint0_linear" x1="27.2" y1="27.2" x2="5" y2="4.4" gradientUnits="userSpaceOnUse">
<stop stop-color="#131533"/>
<stop offset="1" stop-color="#0B0C1D"/>
</linearGradient>
<linearGradient id="paint1_linear" x1="10.0465" y1="1.56957e-06" x2="34.8302" y2="9.81055" gradientUnits="userSpaceOnUse">
<stop stop-color="#CC67FF"/>
<stop offset="1" stop-color="#CC67FF" stop-opacity="0"/>
</linearGradient>
</defs>
</svg>
