<svg width="1440" height="1477" viewBox="0 0 1440 1477" fill="none" xmlns="http://www.w3.org/2000/svg">
<g opacity="0.35" filter="url(#filter0_f)">
<ellipse rx="297.901" ry="309.021" transform="matrix(0.806344 -0.591447 0.855247 0.51822 829.5 738.333)" fill="#441ECE"/>
</g>
<mask id="mask0" mask-type="alpha" maskUnits="userSpaceOnUse" x="479" y="558" width="346" height="347">
<rect x="479" y="904.121" width="346" height="346" transform="rotate(-90 479 904.121)" fill="url(#paint0_radial)"/>
</mask>
<g mask="url(#mask0)">
<circle cx="482.316" cy="894.41" r="3.71706" transform="rotate(-90 482.316 894.41)" fill="#441ECE"/>
<circle opacity="0.8" cx="482.316" cy="864.674" r="3.71706" transform="rotate(-90 482.316 864.674)" fill="#441ECE"/>
<circle cx="482.316" cy="834.938" r="3.71706" transform="rotate(-90 482.316 834.938)" fill="#441ECE"/>
<circle opacity="0.4" cx="482.316" cy="805.202" r="3.71706" transform="rotate(-90 482.316 805.202)" fill="#441ECE"/>
<circle cx="482.316" cy="775.463" r="3.71706" transform="rotate(-90 482.316 775.463)" fill="#441ECE"/>
<circle cx="482.316" cy="745.727" r="3.71706" transform="rotate(-90 482.316 745.727)" fill="#441ECE"/>
<circle opacity="0.6" cx="482.316" cy="715.991" r="3.71706" transform="rotate(-90 482.316 715.991)" fill="#441ECE"/>
<circle opacity="0.4" cx="482.316" cy="686.255" r="3.71706" transform="rotate(-90 482.316 686.255)" fill="#441ECE"/>
<circle opacity="0.6" cx="482.316" cy="656.519" r="3.71706" transform="rotate(-90 482.316 656.519)" fill="#441ECE"/>
<circle cx="482.316" cy="626.783" r="3.71706" transform="rotate(-90 482.316 626.783)" fill="#441ECE"/>
<circle cx="482.316" cy="597.044" r="3.71706" transform="rotate(-90 482.316 597.044)" fill="#441ECE"/>
<circle opacity="0.4" cx="482.316" cy="567.308" r="3.71706" transform="rotate(-90 482.316 567.308)" fill="#441ECE"/>
<circle cx="512.052" cy="894.41" r="3.71706" transform="rotate(-90 512.052 894.41)" fill="#441ECE"/>
<circle opacity="0.6" cx="512.052" cy="864.674" r="3.71706" transform="rotate(-90 512.052 864.674)" fill="#441ECE"/>
<circle cx="512.052" cy="834.938" r="3.71706" transform="rotate(-90 512.052 834.938)" fill="#441ECE"/>
<circle cx="512.052" cy="805.202" r="3.71706" transform="rotate(-90 512.052 805.202)" fill="#441ECE"/>
<circle opacity="0.6" cx="512.052" cy="775.463" r="3.71706" transform="rotate(-90 512.052 775.463)" fill="#441ECE"/>
<circle opacity="0.4" cx="512.052" cy="745.727" r="3.71706" transform="rotate(-90 512.052 745.727)" fill="#441ECE"/>
<circle cx="512.052" cy="715.991" r="3.71706" transform="rotate(-90 512.052 715.991)" fill="#441ECE"/>
<circle opacity="0.4" cx="512.052" cy="686.255" r="3.71706" transform="rotate(-90 512.052 686.255)" fill="#441ECE"/>
<circle cx="512.052" cy="656.519" r="3.71706" transform="rotate(-90 512.052 656.519)" fill="#441ECE"/>
<circle cx="512.052" cy="626.783" r="3.71706" transform="rotate(-90 512.052 626.783)" fill="#441ECE"/>
<circle opacity="0.8" cx="512.052" cy="597.044" r="3.71706" transform="rotate(-90 512.052 597.044)" fill="#441ECE"/>
<circle cx="512.052" cy="567.308" r="3.71706" transform="rotate(-90 512.052 567.308)" fill="#441ECE"/>
<circle cx="541.789" cy="894.41" r="3.71706" transform="rotate(-90 541.789 894.41)" fill="#441ECE"/>
<circle cx="541.789" cy="864.674" r="3.71706" transform="rotate(-90 541.789 864.674)" fill="#441ECE"/>
<circle cx="541.789" cy="834.938" r="3.71706" transform="rotate(-90 541.789 834.938)" fill="#441ECE"/>
<circle cx="541.789" cy="805.202" r="3.71706" transform="rotate(-90 541.789 805.202)" fill="#441ECE"/>
<circle opacity="0.6" cx="541.789" cy="775.463" r="3.71706" transform="rotate(-90 541.789 775.463)" fill="#441ECE"/>
<circle cx="541.789" cy="745.727" r="3.71706" transform="rotate(-90 541.789 745.727)" fill="#441ECE"/>
<circle opacity="0.8" cx="541.789" cy="715.991" r="3.71706" transform="rotate(-90 541.789 715.991)" fill="#441ECE"/>
<circle cx="541.789" cy="686.255" r="3.71706" transform="rotate(-90 541.789 686.255)" fill="#441ECE"/>
<circle opacity="0.4" cx="541.789" cy="656.519" r="3.71706" transform="rotate(-90 541.789 656.519)" fill="#441ECE"/>
<circle opacity="0.6" cx="541.789" cy="626.783" r="3.71706" transform="rotate(-90 541.789 626.783)" fill="#441ECE"/>
<circle opacity="0.6" cx="541.789" cy="597.044" r="3.71706" transform="rotate(-90 541.789 597.044)" fill="#441ECE"/>
<circle cx="541.789" cy="567.308" r="3.71706" transform="rotate(-90 541.789 567.308)" fill="#441ECE"/>
<circle opacity="0.6" cx="571.525" cy="894.41" r="3.71706" transform="rotate(-90 571.525 894.41)" fill="#441ECE"/>
<circle opacity="0.8" cx="571.525" cy="864.674" r="3.71706" transform="rotate(-90 571.525 864.674)" fill="#441ECE"/>
<circle opacity="0.6" cx="571.525" cy="834.938" r="3.71706" transform="rotate(-90 571.525 834.938)" fill="#441ECE"/>
<circle cx="571.525" cy="805.202" r="3.71706" transform="rotate(-90 571.525 805.202)" fill="#441ECE"/>
<circle cx="571.525" cy="775.463" r="3.71706" transform="rotate(-90 571.525 775.463)" fill="#441ECE"/>
<circle cx="571.525" cy="745.727" r="3.71706" transform="rotate(-90 571.525 745.727)" fill="#441ECE"/>
<circle opacity="0.4" cx="571.525" cy="715.991" r="3.71706" transform="rotate(-90 571.525 715.991)" fill="#441ECE"/>
<circle opacity="0.4" cx="571.525" cy="686.255" r="3.71706" transform="rotate(-90 571.525 686.255)" fill="#441ECE"/>
<circle opacity="0.6" cx="571.525" cy="656.519" r="3.71706" transform="rotate(-90 571.525 656.519)" fill="#441ECE"/>
<circle opacity="0.6" cx="571.525" cy="626.783" r="3.71706" transform="rotate(-90 571.525 626.783)" fill="#441ECE"/>
<circle opacity="0.4" cx="571.525" cy="597.044" r="3.71706" transform="rotate(-90 571.525 597.044)" fill="#441ECE"/>
<circle cx="571.525" cy="567.308" r="3.71706" transform="rotate(-90 571.525 567.308)" fill="#441ECE"/>
<circle cx="601.261" cy="894.41" r="3.71706" transform="rotate(-90 601.261 894.41)" fill="#441ECE"/>
<circle cx="601.261" cy="864.674" r="3.71706" transform="rotate(-90 601.261 864.674)" fill="#441ECE"/>
<circle cx="601.261" cy="834.938" r="3.71706" transform="rotate(-90 601.261 834.938)" fill="#441ECE"/>
<circle opacity="0.6" cx="601.261" cy="805.202" r="3.71706" transform="rotate(-90 601.261 805.202)" fill="#441ECE"/>
<circle opacity="0.6" cx="601.261" cy="775.463" r="3.71706" transform="rotate(-90 601.261 775.463)" fill="#441ECE"/>
<circle opacity="0.4" cx="601.261" cy="745.727" r="3.71706" transform="rotate(-90 601.261 745.727)" fill="#441ECE"/>
<circle opacity="0.8" cx="601.261" cy="715.991" r="3.71706" transform="rotate(-90 601.261 715.991)" fill="#441ECE"/>
<circle cx="601.261" cy="686.255" r="3.71706" transform="rotate(-90 601.261 686.255)" fill="#441ECE"/>
<circle opacity="0.4" cx="601.261" cy="656.519" r="3.71706" transform="rotate(-90 601.261 656.519)" fill="#441ECE"/>
<circle cx="601.261" cy="626.783" r="3.71706" transform="rotate(-90 601.261 626.783)" fill="#441ECE"/>
<circle cx="601.261" cy="597.044" r="3.71706" transform="rotate(-90 601.261 597.044)" fill="#441ECE"/>
<circle opacity="0.4" cx="601.261" cy="567.308" r="3.71706" transform="rotate(-90 601.261 567.308)" fill="#441ECE"/>
<circle opacity="0.6" cx="630.999" cy="894.41" r="3.71706" transform="rotate(-90 630.999 894.41)" fill="#441ECE"/>
<circle opacity="0.6" cx="630.999" cy="864.674" r="3.71706" transform="rotate(-90 630.999 864.674)" fill="#441ECE"/>
<circle opacity="0.6" cx="630.999" cy="834.938" r="3.71706" transform="rotate(-90 630.999 834.938)" fill="#441ECE"/>
<circle opacity="0.6" cx="630.999" cy="805.202" r="3.71706" transform="rotate(-90 630.999 805.202)" fill="#441ECE"/>
<circle cx="630.999" cy="775.463" r="3.71706" transform="rotate(-90 630.999 775.463)" fill="#441ECE"/>
<circle opacity="0.6" cx="630.999" cy="745.727" r="3.71706" transform="rotate(-90 630.999 745.727)" fill="#441ECE"/>
<circle cx="630.999" cy="715.991" r="3.71706" transform="rotate(-90 630.999 715.991)" fill="#441ECE"/>
<circle cx="630.999" cy="686.255" r="3.71706" transform="rotate(-90 630.999 686.255)" fill="#441ECE"/>
<circle opacity="0.4" cx="630.999" cy="656.519" r="3.71706" transform="rotate(-90 630.999 656.519)" fill="#441ECE"/>
<circle opacity="0.4" cx="630.999" cy="626.783" r="3.71706" transform="rotate(-90 630.999 626.783)" fill="#441ECE"/>
<circle opacity="0.4" cx="630.999" cy="597.044" r="3.71706" transform="rotate(-90 630.999 597.044)" fill="#441ECE"/>
<circle cx="630.999" cy="567.308" r="3.71706" transform="rotate(-90 630.999 567.308)" fill="#441ECE"/>
<circle opacity="0.6" cx="660.735" cy="894.41" r="3.71706" transform="rotate(-90 660.735 894.41)" fill="#441ECE"/>
<circle cx="660.735" cy="864.674" r="3.71706" transform="rotate(-90 660.735 864.674)" fill="#441ECE"/>
<circle opacity="0.8" cx="660.735" cy="834.938" r="3.71706" transform="rotate(-90 660.735 834.938)" fill="#441ECE"/>
<circle opacity="0.8" cx="660.735" cy="805.202" r="3.71706" transform="rotate(-90 660.735 805.202)" fill="#441ECE"/>
<circle opacity="0.4" cx="660.735" cy="775.463" r="3.71706" transform="rotate(-90 660.735 775.463)" fill="#441ECE"/>
<circle cx="660.735" cy="745.727" r="3.71706" transform="rotate(-90 660.735 745.727)" fill="#441ECE"/>
<circle cx="660.735" cy="715.991" r="3.71706" transform="rotate(-90 660.735 715.991)" fill="#441ECE"/>
<circle opacity="0.8" cx="660.735" cy="686.255" r="3.71706" transform="rotate(-90 660.735 686.255)" fill="#441ECE"/>
<circle cx="660.735" cy="656.519" r="3.71706" transform="rotate(-90 660.735 656.519)" fill="#441ECE"/>
<circle cx="660.735" cy="626.783" r="3.71706" transform="rotate(-90 660.735 626.783)" fill="#441ECE"/>
<circle opacity="0.6" cx="660.735" cy="597.044" r="3.71706" transform="rotate(-90 660.735 597.044)" fill="#441ECE"/>
<circle opacity="0.6" cx="660.735" cy="567.308" r="3.71706" transform="rotate(-90 660.735 567.308)" fill="#441ECE"/>
<circle opacity="0.6" cx="690.471" cy="894.41" r="3.71706" transform="rotate(-90 690.471 894.41)" fill="#441ECE"/>
<circle opacity="0.8" cx="690.471" cy="864.674" r="3.71706" transform="rotate(-90 690.471 864.674)" fill="#441ECE"/>
<circle opacity="0.8" cx="690.471" cy="834.938" r="3.71706" transform="rotate(-90 690.471 834.938)" fill="#441ECE"/>
<circle cx="690.471" cy="805.202" r="3.71706" transform="rotate(-90 690.471 805.202)" fill="#441ECE"/>
<circle cx="690.471" cy="775.463" r="3.71706" transform="rotate(-90 690.471 775.463)" fill="#441ECE"/>
<circle opacity="0.8" cx="690.471" cy="745.727" r="3.71706" transform="rotate(-90 690.471 745.727)" fill="#441ECE"/>
<circle opacity="0.4" cx="690.471" cy="715.991" r="3.71706" transform="rotate(-90 690.471 715.991)" fill="#441ECE"/>
<circle opacity="0.4" cx="690.471" cy="686.255" r="3.71706" transform="rotate(-90 690.471 686.255)" fill="#441ECE"/>
<circle cx="690.471" cy="656.519" r="3.71706" transform="rotate(-90 690.471 656.519)" fill="#441ECE"/>
<circle opacity="0.4" cx="690.471" cy="626.783" r="3.71706" transform="rotate(-90 690.471 626.783)" fill="#441ECE"/>
<circle opacity="0.4" cx="690.471" cy="597.044" r="3.71706" transform="rotate(-90 690.471 597.044)" fill="#441ECE"/>
<circle cx="690.471" cy="567.308" r="3.71706" transform="rotate(-90 690.471 567.308)" fill="#441ECE"/>
<circle cx="720.208" cy="894.41" r="3.71706" transform="rotate(-90 720.208 894.41)" fill="#441ECE"/>
<circle cx="720.208" cy="864.674" r="3.71706" transform="rotate(-90 720.208 864.674)" fill="#441ECE"/>
<circle cx="720.208" cy="834.938" r="3.71706" transform="rotate(-90 720.208 834.938)" fill="#441ECE"/>
<circle opacity="0.4" cx="720.208" cy="805.202" r="3.71706" transform="rotate(-90 720.208 805.202)" fill="#441ECE"/>
<circle cx="720.208" cy="775.463" r="3.71706" transform="rotate(-90 720.208 775.463)" fill="#441ECE"/>
<circle opacity="0.4" cx="720.208" cy="745.727" r="3.71706" transform="rotate(-90 720.208 745.727)" fill="#441ECE"/>
<circle cx="720.208" cy="715.991" r="3.71706" transform="rotate(-90 720.208 715.991)" fill="#441ECE"/>
<circle cx="720.208" cy="686.255" r="3.71706" transform="rotate(-90 720.208 686.255)" fill="#441ECE"/>
<circle cx="720.208" cy="656.519" r="3.71706" transform="rotate(-90 720.208 656.519)" fill="#441ECE"/>
<circle cx="720.208" cy="626.783" r="3.71706" transform="rotate(-90 720.208 626.783)" fill="#441ECE"/>
<circle opacity="0.6" cx="720.208" cy="597.044" r="3.71706" transform="rotate(-90 720.208 597.044)" fill="#441ECE"/>
<circle opacity="0.8" cx="720.208" cy="567.308" r="3.71706" transform="rotate(-90 720.208 567.308)" fill="#441ECE"/>
<circle opacity="0.6" cx="749.944" cy="894.41" r="3.71706" transform="rotate(-90 749.944 894.41)" fill="#441ECE"/>
<circle opacity="0.8" cx="749.944" cy="864.674" r="3.71706" transform="rotate(-90 749.944 864.674)" fill="#441ECE"/>
<circle opacity="0.4" cx="749.944" cy="834.938" r="3.71706" transform="rotate(-90 749.944 834.938)" fill="#441ECE"/>
<circle opacity="0.4" cx="749.944" cy="805.202" r="3.71706" transform="rotate(-90 749.944 805.202)" fill="#441ECE"/>
<circle cx="749.944" cy="775.463" r="3.71706" transform="rotate(-90 749.944 775.463)" fill="#441ECE"/>
<circle cx="749.944" cy="745.727" r="3.71706" transform="rotate(-90 749.944 745.727)" fill="#441ECE"/>
<circle opacity="0.6" cx="749.944" cy="715.991" r="3.71706" transform="rotate(-90 749.944 715.991)" fill="#441ECE"/>
<circle opacity="0.4" cx="749.944" cy="686.255" r="3.71706" transform="rotate(-90 749.944 686.255)" fill="#441ECE"/>
<circle cx="749.944" cy="656.519" r="3.71706" transform="rotate(-90 749.944 656.519)" fill="#441ECE"/>
<circle cx="749.944" cy="626.783" r="3.71706" transform="rotate(-90 749.944 626.783)" fill="#441ECE"/>
<circle opacity="0.4" cx="749.944" cy="597.044" r="3.71706" transform="rotate(-90 749.944 597.044)" fill="#441ECE"/>
<circle opacity="0.4" cx="749.944" cy="567.308" r="3.71706" transform="rotate(-90 749.944 567.308)" fill="#441ECE"/>
<circle opacity="0.6" cx="779.68" cy="894.41" r="3.71706" transform="rotate(-90 779.68 894.41)" fill="#441ECE"/>
<circle cx="779.68" cy="864.674" r="3.71706" transform="rotate(-90 779.68 864.674)" fill="#441ECE"/>
<circle opacity="0.6" cx="779.68" cy="834.938" r="3.71706" transform="rotate(-90 779.68 834.938)" fill="#441ECE"/>
<circle opacity="0.8" cx="779.68" cy="805.202" r="3.71706" transform="rotate(-90 779.68 805.202)" fill="#441ECE"/>
<circle opacity="0.6" cx="779.68" cy="775.463" r="3.71706" transform="rotate(-90 779.68 775.463)" fill="#441ECE"/>
<circle cx="779.68" cy="745.727" r="3.71706" transform="rotate(-90 779.68 745.727)" fill="#441ECE"/>
<circle opacity="0.6" cx="779.68" cy="715.991" r="3.71706" transform="rotate(-90 779.68 715.991)" fill="#441ECE"/>
<circle opacity="0.6" cx="779.68" cy="686.255" r="3.71706" transform="rotate(-90 779.68 686.255)" fill="#441ECE"/>
<circle opacity="0.8" cx="779.68" cy="656.519" r="3.71706" transform="rotate(-90 779.68 656.519)" fill="#441ECE"/>
<circle opacity="0.4" cx="779.68" cy="626.783" r="3.71706" transform="rotate(-90 779.68 626.783)" fill="#441ECE"/>
<circle cx="779.68" cy="597.044" r="3.71706" transform="rotate(-90 779.68 597.044)" fill="#441ECE"/>
<circle opacity="0.4" cx="779.68" cy="567.308" r="3.71706" transform="rotate(-90 779.68 567.308)" fill="#441ECE"/>
<circle opacity="0.4" cx="809.416" cy="894.41" r="3.71706" transform="rotate(-90 809.416 894.41)" fill="#441ECE"/>
<circle cx="809.416" cy="864.674" r="3.71706" transform="rotate(-90 809.416 864.674)" fill="#441ECE"/>
<circle opacity="0.4" cx="809.416" cy="834.938" r="3.71706" transform="rotate(-90 809.416 834.938)" fill="#441ECE"/>
<circle cx="809.416" cy="805.202" r="3.71706" transform="rotate(-90 809.416 805.202)" fill="#441ECE"/>
<circle cx="809.416" cy="775.463" r="3.71706" transform="rotate(-90 809.416 775.463)" fill="#441ECE"/>
<circle opacity="0.6" cx="809.416" cy="745.727" r="3.71706" transform="rotate(-90 809.416 745.727)" fill="#441ECE"/>
<circle cx="809.416" cy="715.991" r="3.71706" transform="rotate(-90 809.416 715.991)" fill="#441ECE"/>
<circle cx="809.416" cy="686.255" r="3.71706" transform="rotate(-90 809.416 686.255)" fill="#441ECE"/>
<circle opacity="0.6" cx="809.416" cy="656.519" r="3.71706" transform="rotate(-90 809.416 656.519)" fill="#441ECE"/>
<circle cx="809.416" cy="626.783" r="3.71706" transform="rotate(-90 809.416 626.783)" fill="#441ECE"/>
<circle opacity="0.4" cx="809.416" cy="597.044" r="3.71706" transform="rotate(-90 809.416 597.044)" fill="#441ECE"/>
<circle opacity="0.8" cx="809.416" cy="567.308" r="3.71706" transform="rotate(-90 809.416 567.308)" fill="#441ECE"/>
</g>
<defs>
<filter id="filter0_f" x="-27.6439" y="0.237305" width="1714.29" height="1476.19" filterUnits="userSpaceOnUse" color-interpolation-filters="sRGB">
<feFlood flood-opacity="0" result="BackgroundImageFix"/>
<feBlend mode="normal" in="SourceGraphic" in2="BackgroundImageFix" result="shape"/>
<feGaussianBlur stdDeviation="250" result="effect1_foregroundBlur"/>
</filter>
<radialGradient id="paint0_radial" cx="0" cy="0" r="1" gradientUnits="userSpaceOnUse" gradientTransform="translate(652 1077.12) rotate(90) scale(173.24)">
<stop stop-color="white"/>
<stop offset="0.244792" stop-color="white" stop-opacity="0.5"/>
<stop offset="1" stop-color="white" stop-opacity="0"/>
</radialGradient>
</defs>
</svg>
