<svg width="797" height="1717" viewBox="0 0 797 1717" fill="none" xmlns="http://www.w3.org/2000/svg">
<g opacity="0.35" filter="url(#filter0_f)">
<ellipse rx="298.68" ry="309.828" transform="matrix(0.591447 0.806344 -0.51822 0.855247 58.2121 858.818)" fill="#8D01D3"/>
</g>
<mask id="mask0" mask-type="alpha" maskUnits="userSpaceOnUse" x="-102" y="507" width="336" height="335">
<rect x="-101.999" y="507" width="335" height="335" fill="url(#paint0_radial)"/>
</mask>
<g mask="url(#mask0)">
<circle cx="20.6648" cy="510.717" r="3.71706" fill="#0038C8"/>
<circle cx="20.6648" cy="510.717" r="3.71706" fill="url(#paint1_linear)"/>
<circle cx="50.4008" cy="510.717" r="3.71706" fill="#0038C8"/>
<circle cx="50.4008" cy="510.717" r="3.71706" fill="url(#paint2_linear)"/>
<g opacity="0.6">
<circle cx="80.1368" cy="510.717" r="3.71706" fill="#0038C8"/>
<circle cx="80.1368" cy="510.717" r="3.71706" fill="url(#paint3_linear)"/>
</g>
<g opacity="0.4">
<circle cx="109.873" cy="510.717" r="3.71706" fill="#0038C8"/>
<circle cx="109.873" cy="510.717" r="3.71706" fill="url(#paint4_linear)"/>
</g>
<g opacity="0.6">
<circle cx="139.609" cy="510.717" r="3.71706" fill="#0038C8"/>
<circle cx="139.609" cy="510.717" r="3.71706" fill="url(#paint5_linear)"/>
</g>
<circle cx="169.345" cy="510.717" r="3.71706" fill="#0038C8"/>
<circle cx="169.345" cy="510.717" r="3.71706" fill="url(#paint6_linear)"/>
<circle cx="199.084" cy="510.717" r="3.71706" fill="#0038C8"/>
<circle cx="199.084" cy="510.717" r="3.71706" fill="url(#paint7_linear)"/>
<g opacity="0.4">
<circle cx="228.82" cy="510.717" r="3.71706" fill="#0038C8"/>
<circle cx="228.82" cy="510.717" r="3.71706" fill="url(#paint8_linear)"/>
</g>
<g opacity="0.6">
<circle cx="20.6648" cy="540.453" r="3.71706" fill="#0038C8"/>
<circle cx="20.6648" cy="540.453" r="3.71706" fill="url(#paint9_linear)"/>
</g>
<g opacity="0.4">
<circle cx="50.4008" cy="540.453" r="3.71706" fill="#0038C8"/>
<circle cx="50.4008" cy="540.453" r="3.71706" fill="url(#paint10_linear)"/>
</g>
<circle cx="80.1368" cy="540.453" r="3.71706" fill="#0038C8"/>
<circle cx="80.1368" cy="540.453" r="3.71706" fill="url(#paint11_linear)"/>
<g opacity="0.4">
<circle cx="109.873" cy="540.453" r="3.71706" fill="#0038C8"/>
<circle cx="109.873" cy="540.453" r="3.71706" fill="url(#paint12_linear)"/>
</g>
<circle cx="139.609" cy="540.453" r="3.71706" fill="#0038C8"/>
<circle cx="139.609" cy="540.453" r="3.71706" fill="url(#paint13_linear)"/>
<circle cx="169.345" cy="540.453" r="3.71706" fill="#0038C8"/>
<circle cx="169.345" cy="540.453" r="3.71706" fill="url(#paint14_linear)"/>
<g opacity="0.8">
<circle cx="199.084" cy="540.453" r="3.71706" fill="#0038C8"/>
<circle cx="199.084" cy="540.453" r="3.71706" fill="url(#paint15_linear)"/>
</g>
<circle cx="228.82" cy="540.453" r="3.71706" fill="#0038C8"/>
<circle cx="228.82" cy="540.453" r="3.71706" fill="url(#paint16_linear)"/>
<g opacity="0.6">
<circle cx="20.6648" cy="570.19" r="3.71706" fill="#0038C8"/>
<circle cx="20.6648" cy="570.19" r="3.71706" fill="url(#paint17_linear)"/>
</g>
<circle cx="50.4008" cy="570.19" r="3.71706" fill="#0038C8"/>
<circle cx="50.4008" cy="570.19" r="3.71706" fill="url(#paint18_linear)"/>
<g opacity="0.8">
<circle cx="80.1368" cy="570.19" r="3.71706" fill="#0038C8"/>
<circle cx="80.1368" cy="570.19" r="3.71706" fill="url(#paint19_linear)"/>
</g>
<circle cx="109.873" cy="570.19" r="3.71706" fill="#0038C8"/>
<circle cx="109.873" cy="570.19" r="3.71706" fill="url(#paint20_linear)"/>
<g opacity="0.4">
<circle cx="139.609" cy="570.19" r="3.71706" fill="#0038C8"/>
<circle cx="139.609" cy="570.19" r="3.71706" fill="url(#paint21_linear)"/>
</g>
<g opacity="0.6">
<circle cx="169.345" cy="570.19" r="3.71706" fill="#0038C8"/>
<circle cx="169.345" cy="570.19" r="3.71706" fill="url(#paint22_linear)"/>
</g>
<g opacity="0.6">
<circle cx="199.084" cy="570.19" r="3.71706" fill="#0038C8"/>
<circle cx="199.084" cy="570.19" r="3.71706" fill="url(#paint23_linear)"/>
</g>
<circle cx="228.82" cy="570.19" r="3.71706" fill="#0038C8"/>
<circle cx="228.82" cy="570.19" r="3.71706" fill="url(#paint24_linear)"/>
<circle cx="20.6648" cy="599.927" r="3.71706" fill="#0038C8"/>
<circle cx="20.6648" cy="599.927" r="3.71706" fill="url(#paint25_linear)"/>
<circle cx="50.4008" cy="599.927" r="3.71706" fill="#0038C8"/>
<circle cx="50.4008" cy="599.927" r="3.71706" fill="url(#paint26_linear)"/>
<g opacity="0.4">
<circle cx="80.1368" cy="599.927" r="3.71706" fill="#0038C8"/>
<circle cx="80.1368" cy="599.927" r="3.71706" fill="url(#paint27_linear)"/>
</g>
<g opacity="0.4">
<circle cx="109.873" cy="599.927" r="3.71706" fill="#0038C8"/>
<circle cx="109.873" cy="599.927" r="3.71706" fill="url(#paint28_linear)"/>
</g>
<g opacity="0.6">
<circle cx="139.609" cy="599.927" r="3.71706" fill="#0038C8"/>
<circle cx="139.609" cy="599.927" r="3.71706" fill="url(#paint29_linear)"/>
</g>
<g opacity="0.6">
<circle cx="169.345" cy="599.927" r="3.71706" fill="#0038C8"/>
<circle cx="169.345" cy="599.927" r="3.71706" fill="url(#paint30_linear)"/>
</g>
<g opacity="0.4">
<circle cx="199.084" cy="599.927" r="3.71706" fill="#0038C8"/>
<circle cx="199.084" cy="599.927" r="3.71706" fill="url(#paint31_linear)"/>
</g>
<circle cx="228.82" cy="599.927" r="3.71706" fill="#0038C8"/>
<circle cx="228.82" cy="599.927" r="3.71706" fill="url(#paint32_linear)"/>
<g opacity="0.6">
<circle cx="20.6648" cy="629.662" r="3.71706" fill="#0038C8"/>
<circle cx="20.6648" cy="629.662" r="3.71706" fill="url(#paint33_linear)"/>
</g>
<g opacity="0.4">
<circle cx="50.4008" cy="629.662" r="3.71706" fill="#0038C8"/>
<circle cx="50.4008" cy="629.662" r="3.71706" fill="url(#paint34_linear)"/>
</g>
<g opacity="0.8">
<circle cx="80.1368" cy="629.662" r="3.71706" fill="#0038C8"/>
<circle cx="80.1368" cy="629.662" r="3.71706" fill="url(#paint35_linear)"/>
</g>
<circle cx="109.873" cy="629.662" r="3.71706" fill="#0038C8"/>
<circle cx="109.873" cy="629.662" r="3.71706" fill="url(#paint36_linear)"/>
<g opacity="0.4">
<circle cx="139.609" cy="629.662" r="3.71706" fill="#0038C8"/>
<circle cx="139.609" cy="629.662" r="3.71706" fill="url(#paint37_linear)"/>
</g>
<circle cx="169.345" cy="629.662" r="3.71706" fill="#0038C8"/>
<circle cx="169.345" cy="629.662" r="3.71706" fill="url(#paint38_linear)"/>
<circle cx="199.084" cy="629.662" r="3.71706" fill="#0038C8"/>
<circle cx="199.084" cy="629.662" r="3.71706" fill="url(#paint39_linear)"/>
<g opacity="0.4">
<circle cx="228.82" cy="629.662" r="3.71706" fill="#0038C8"/>
<circle cx="228.82" cy="629.662" r="3.71706" fill="url(#paint40_linear)"/>
</g>
<circle cx="20.6648" cy="659.4" r="3.71706" fill="#0038C8"/>
<circle cx="20.6648" cy="659.4" r="3.71706" fill="url(#paint41_linear)"/>
<g opacity="0.6">
<circle cx="50.4008" cy="659.4" r="3.71706" fill="#0038C8"/>
<circle cx="50.4008" cy="659.4" r="3.71706" fill="url(#paint42_linear)"/>
</g>
<circle cx="80.1368" cy="659.4" r="3.71706" fill="#0038C8"/>
<circle cx="80.1368" cy="659.4" r="3.71706" fill="url(#paint43_linear)"/>
<circle cx="109.873" cy="659.4" r="3.71706" fill="#0038C8"/>
<circle cx="109.873" cy="659.4" r="3.71706" fill="url(#paint44_linear)"/>
<g opacity="0.4">
<circle cx="139.609" cy="659.4" r="3.71706" fill="#0038C8"/>
<circle cx="139.609" cy="659.4" r="3.71706" fill="url(#paint45_linear)"/>
</g>
<g opacity="0.4">
<circle cx="169.345" cy="659.4" r="3.71706" fill="#0038C8"/>
<circle cx="169.345" cy="659.4" r="3.71706" fill="url(#paint46_linear)"/>
</g>
<g opacity="0.4">
<circle cx="199.084" cy="659.4" r="3.71706" fill="#0038C8"/>
<circle cx="199.084" cy="659.4" r="3.71706" fill="url(#paint47_linear)"/>
</g>
<circle cx="228.82" cy="659.4" r="3.71706" fill="#0038C8"/>
<circle cx="228.82" cy="659.4" r="3.71706" fill="url(#paint48_linear)"/>
<g opacity="0.4">
<circle cx="20.6648" cy="689.136" r="3.71706" fill="#0038C8"/>
<circle cx="20.6648" cy="689.136" r="3.71706" fill="url(#paint49_linear)"/>
</g>
<circle cx="50.4008" cy="689.136" r="3.71706" fill="#0038C8"/>
<circle cx="50.4008" cy="689.136" r="3.71706" fill="url(#paint50_linear)"/>
<circle cx="80.1368" cy="689.136" r="3.71706" fill="#0038C8"/>
<circle cx="80.1368" cy="689.136" r="3.71706" fill="url(#paint51_linear)"/>
<g opacity="0.8">
<circle cx="109.873" cy="689.136" r="3.71706" fill="#0038C8"/>
<circle cx="109.873" cy="689.136" r="3.71706" fill="url(#paint52_linear)"/>
</g>
<circle cx="139.609" cy="689.136" r="3.71706" fill="#0038C8"/>
<circle cx="139.609" cy="689.136" r="3.71706" fill="url(#paint53_linear)"/>
<circle cx="169.345" cy="689.136" r="3.71706" fill="#0038C8"/>
<circle cx="169.345" cy="689.136" r="3.71706" fill="url(#paint54_linear)"/>
<g opacity="0.6">
<circle cx="199.084" cy="689.136" r="3.71706" fill="#0038C8"/>
<circle cx="199.084" cy="689.136" r="3.71706" fill="url(#paint55_linear)"/>
</g>
<g opacity="0.6">
<circle cx="228.82" cy="689.136" r="3.71706" fill="#0038C8"/>
<circle cx="228.82" cy="689.136" r="3.71706" fill="url(#paint56_linear)"/>
</g>
<circle cx="20.6648" cy="718.872" r="3.71706" fill="#0038C8"/>
<circle cx="20.6648" cy="718.872" r="3.71706" fill="url(#paint57_linear)"/>
<g opacity="0.8">
<circle cx="50.4008" cy="718.872" r="3.71706" fill="#0038C8"/>
<circle cx="50.4008" cy="718.872" r="3.71706" fill="url(#paint58_linear)"/>
</g>
<g opacity="0.4">
<circle cx="80.1368" cy="718.872" r="3.71706" fill="#0038C8"/>
<circle cx="80.1368" cy="718.872" r="3.71706" fill="url(#paint59_linear)"/>
</g>
<g opacity="0.4">
<circle cx="109.873" cy="718.872" r="3.71706" fill="#0038C8"/>
<circle cx="109.873" cy="718.872" r="3.71706" fill="url(#paint60_linear)"/>
</g>
<circle cx="139.609" cy="718.872" r="3.71706" fill="#0038C8"/>
<circle cx="139.609" cy="718.872" r="3.71706" fill="url(#paint61_linear)"/>
<g opacity="0.4">
<circle cx="169.345" cy="718.872" r="3.71706" fill="#0038C8"/>
<circle cx="169.345" cy="718.872" r="3.71706" fill="url(#paint62_linear)"/>
</g>
<g opacity="0.4">
<circle cx="199.084" cy="718.872" r="3.71706" fill="#0038C8"/>
<circle cx="199.084" cy="718.872" r="3.71706" fill="url(#paint63_linear)"/>
</g>
<circle cx="228.82" cy="718.872" r="3.71706" fill="#0038C8"/>
<circle cx="228.82" cy="718.872" r="3.71706" fill="url(#paint64_linear)"/>
<circle cx="20.6648" cy="748.609" r="3.71706" fill="#0038C8"/>
<circle cx="20.6648" cy="748.609" r="3.71706" fill="url(#paint65_linear)"/>
<g opacity="0.4">
<circle cx="50.4008" cy="748.609" r="3.71706" fill="#0038C8"/>
<circle cx="50.4008" cy="748.609" r="3.71706" fill="url(#paint66_linear)"/>
</g>
<circle cx="80.1368" cy="748.609" r="3.71706" fill="#0038C8"/>
<circle cx="80.1368" cy="748.609" r="3.71706" fill="url(#paint67_linear)"/>
<circle cx="109.873" cy="748.609" r="3.71706" fill="#0038C8"/>
<circle cx="109.873" cy="748.609" r="3.71706" fill="url(#paint68_linear)"/>
<circle cx="139.609" cy="748.609" r="3.71706" fill="#0038C8"/>
<circle cx="139.609" cy="748.609" r="3.71706" fill="url(#paint69_linear)"/>
<circle cx="169.345" cy="748.609" r="3.71706" fill="#0038C8"/>
<circle cx="169.345" cy="748.609" r="3.71706" fill="url(#paint70_linear)"/>
<g opacity="0.6">
<circle cx="199.084" cy="748.609" r="3.71706" fill="#0038C8"/>
<circle cx="199.084" cy="748.609" r="3.71706" fill="url(#paint71_linear)"/>
</g>
<g opacity="0.8">
<circle cx="228.82" cy="748.609" r="3.71706" fill="#0038C8"/>
<circle cx="228.82" cy="748.609" r="3.71706" fill="url(#paint72_linear)"/>
</g>
<circle cx="20.6648" cy="778.345" r="3.71706" fill="#0038C8"/>
<circle cx="20.6648" cy="778.345" r="3.71706" fill="url(#paint73_linear)"/>
<circle cx="50.4008" cy="778.345" r="3.71706" fill="#0038C8"/>
<circle cx="50.4008" cy="778.345" r="3.71706" fill="url(#paint74_linear)"/>
<g opacity="0.6">
<circle cx="80.1368" cy="778.345" r="3.71706" fill="#0038C8"/>
<circle cx="80.1368" cy="778.345" r="3.71706" fill="url(#paint75_linear)"/>
</g>
<g opacity="0.4">
<circle cx="109.873" cy="778.345" r="3.71706" fill="#0038C8"/>
<circle cx="109.873" cy="778.345" r="3.71706" fill="url(#paint76_linear)"/>
</g>
<circle cx="139.609" cy="778.345" r="3.71706" fill="#0038C8"/>
<circle cx="139.609" cy="778.345" r="3.71706" fill="url(#paint77_linear)"/>
<circle cx="169.345" cy="778.345" r="3.71706" fill="#0038C8"/>
<circle cx="169.345" cy="778.345" r="3.71706" fill="url(#paint78_linear)"/>
<g opacity="0.4">
<circle cx="199.084" cy="778.345" r="3.71706" fill="#0038C8"/>
<circle cx="199.084" cy="778.345" r="3.71706" fill="url(#paint79_linear)"/>
</g>
<g opacity="0.4">
<circle cx="228.82" cy="778.345" r="3.71706" fill="#0038C8"/>
<circle cx="228.82" cy="778.345" r="3.71706" fill="url(#paint80_linear)"/>
</g>
<g opacity="0.6">
<circle cx="20.6648" cy="808.081" r="3.71706" fill="#0038C8"/>
<circle cx="20.6648" cy="808.081" r="3.71706" fill="url(#paint81_linear)"/>
</g>
<circle cx="50.4008" cy="808.081" r="3.71706" fill="#0038C8"/>
<circle cx="50.4008" cy="808.081" r="3.71706" fill="url(#paint82_linear)"/>
<g opacity="0.6">
<circle cx="80.1368" cy="808.081" r="3.71706" fill="#0038C8"/>
<circle cx="80.1368" cy="808.081" r="3.71706" fill="url(#paint83_linear)"/>
</g>
<g opacity="0.6">
<circle cx="109.873" cy="808.081" r="3.71706" fill="#0038C8"/>
<circle cx="109.873" cy="808.081" r="3.71706" fill="url(#paint84_linear)"/>
</g>
<g opacity="0.8">
<circle cx="139.609" cy="808.081" r="3.71706" fill="#0038C8"/>
<circle cx="139.609" cy="808.081" r="3.71706" fill="url(#paint85_linear)"/>
</g>
<g opacity="0.4">
<circle cx="169.345" cy="808.081" r="3.71706" fill="#0038C8"/>
<circle cx="169.345" cy="808.081" r="3.71706" fill="url(#paint86_linear)"/>
</g>
<circle cx="199.084" cy="808.081" r="3.71706" fill="#0038C8"/>
<circle cx="199.084" cy="808.081" r="3.71706" fill="url(#paint87_linear)"/>
<g opacity="0.4">
<circle cx="228.82" cy="808.081" r="3.71706" fill="#0038C8"/>
<circle cx="228.82" cy="808.081" r="3.71706" fill="url(#paint88_linear)"/>
</g>
<circle cx="20.6648" cy="837.817" r="3.71706" fill="#0038C8"/>
<circle cx="20.6648" cy="837.817" r="3.71706" fill="url(#paint89_linear)"/>
<g opacity="0.6">
<circle cx="50.4008" cy="837.817" r="3.71706" fill="#0038C8"/>
<circle cx="50.4008" cy="837.817" r="3.71706" fill="url(#paint90_linear)"/>
</g>
<circle cx="80.1368" cy="837.817" r="3.71706" fill="#0038C8"/>
<circle cx="80.1368" cy="837.817" r="3.71706" fill="url(#paint91_linear)"/>
<circle cx="109.873" cy="837.817" r="3.71706" fill="#0038C8"/>
<circle cx="109.873" cy="837.817" r="3.71706" fill="url(#paint92_linear)"/>
<g opacity="0.6">
<circle cx="139.609" cy="837.817" r="3.71706" fill="#0038C8"/>
<circle cx="139.609" cy="837.817" r="3.71706" fill="url(#paint93_linear)"/>
</g>
<circle cx="169.345" cy="837.817" r="3.71706" fill="#0038C8"/>
<circle cx="169.345" cy="837.817" r="3.71706" fill="url(#paint94_linear)"/>
<g opacity="0.4">
<circle cx="199.084" cy="837.817" r="3.71706" fill="#0038C8"/>
<circle cx="199.084" cy="837.817" r="3.71706" fill="url(#paint95_linear)"/>
</g>
<g opacity="0.8">
<circle cx="228.82" cy="837.817" r="3.71706" fill="#0038C8"/>
<circle cx="228.82" cy="837.817" r="3.71706" fill="url(#paint96_linear)"/>
</g>
</g>
<defs>
<filter id="filter0_f" x="-680.506" y="0.741211" width="1477.44" height="1716.15" filterUnits="userSpaceOnUse" color-interpolation-filters="sRGB">
<feFlood flood-opacity="0" result="BackgroundImageFix"/>
<feBlend mode="normal" in="SourceGraphic" in2="BackgroundImageFix" result="shape"/>
<feGaussianBlur stdDeviation="250" result="effect1_foregroundBlur"/>
</filter>
<radialGradient id="paint0_radial" cx="0" cy="0" r="1" gradientUnits="userSpaceOnUse" gradientTransform="translate(65.501 674.5) rotate(90) scale(167.733)">
<stop stop-color="white"/>
<stop offset="0.244792" stop-color="white" stop-opacity="0.5"/>
<stop offset="1" stop-color="white" stop-opacity="0"/>
</radialGradient>
<linearGradient id="paint1_linear" x1="10.6385" y1="510.717" x2="24.2857" y2="510.789" gradientUnits="userSpaceOnUse">
<stop stop-color="#0038C8"/>
<stop offset="1" stop-color="#8D00D3"/>
</linearGradient>
<linearGradient id="paint2_linear" x1="40.3744" y1="510.717" x2="54.0217" y2="510.789" gradientUnits="userSpaceOnUse">
<stop stop-color="#0038C8"/>
<stop offset="1" stop-color="#8D00D3"/>
</linearGradient>
<linearGradient id="paint3_linear" x1="70.1105" y1="510.717" x2="83.7577" y2="510.789" gradientUnits="userSpaceOnUse">
<stop stop-color="#0038C8"/>
<stop offset="1" stop-color="#8D00D3"/>
</linearGradient>
<linearGradient id="paint4_linear" x1="99.8465" y1="510.717" x2="113.494" y2="510.789" gradientUnits="userSpaceOnUse">
<stop stop-color="#0038C8"/>
<stop offset="1" stop-color="#8D00D3"/>
</linearGradient>
<linearGradient id="paint5_linear" x1="129.582" y1="510.717" x2="143.23" y2="510.789" gradientUnits="userSpaceOnUse">
<stop stop-color="#0038C8"/>
<stop offset="1" stop-color="#8D00D3"/>
</linearGradient>
<linearGradient id="paint6_linear" x1="159.318" y1="510.717" x2="172.966" y2="510.789" gradientUnits="userSpaceOnUse">
<stop stop-color="#0038C8"/>
<stop offset="1" stop-color="#8D00D3"/>
</linearGradient>
<linearGradient id="paint7_linear" x1="189.057" y1="510.717" x2="202.704" y2="510.789" gradientUnits="userSpaceOnUse">
<stop stop-color="#0038C8"/>
<stop offset="1" stop-color="#8D00D3"/>
</linearGradient>
<linearGradient id="paint8_linear" x1="218.793" y1="510.717" x2="232.44" y2="510.789" gradientUnits="userSpaceOnUse">
<stop stop-color="#0038C8"/>
<stop offset="1" stop-color="#8D00D3"/>
</linearGradient>
<linearGradient id="paint9_linear" x1="10.6385" y1="540.453" x2="24.2857" y2="540.525" gradientUnits="userSpaceOnUse">
<stop stop-color="#0038C8"/>
<stop offset="1" stop-color="#8D00D3"/>
</linearGradient>
<linearGradient id="paint10_linear" x1="40.3744" y1="540.453" x2="54.0217" y2="540.525" gradientUnits="userSpaceOnUse">
<stop stop-color="#0038C8"/>
<stop offset="1" stop-color="#8D00D3"/>
</linearGradient>
<linearGradient id="paint11_linear" x1="70.1105" y1="540.453" x2="83.7577" y2="540.525" gradientUnits="userSpaceOnUse">
<stop stop-color="#0038C8"/>
<stop offset="1" stop-color="#8D00D3"/>
</linearGradient>
<linearGradient id="paint12_linear" x1="99.8465" y1="540.453" x2="113.494" y2="540.525" gradientUnits="userSpaceOnUse">
<stop stop-color="#0038C8"/>
<stop offset="1" stop-color="#8D00D3"/>
</linearGradient>
<linearGradient id="paint13_linear" x1="129.582" y1="540.453" x2="143.23" y2="540.525" gradientUnits="userSpaceOnUse">
<stop stop-color="#0038C8"/>
<stop offset="1" stop-color="#8D00D3"/>
</linearGradient>
<linearGradient id="paint14_linear" x1="159.318" y1="540.453" x2="172.966" y2="540.525" gradientUnits="userSpaceOnUse">
<stop stop-color="#0038C8"/>
<stop offset="1" stop-color="#8D00D3"/>
</linearGradient>
<linearGradient id="paint15_linear" x1="189.057" y1="540.453" x2="202.704" y2="540.525" gradientUnits="userSpaceOnUse">
<stop stop-color="#0038C8"/>
<stop offset="1" stop-color="#8D00D3"/>
</linearGradient>
<linearGradient id="paint16_linear" x1="218.793" y1="540.453" x2="232.44" y2="540.525" gradientUnits="userSpaceOnUse">
<stop stop-color="#0038C8"/>
<stop offset="1" stop-color="#8D00D3"/>
</linearGradient>
<linearGradient id="paint17_linear" x1="10.6385" y1="570.19" x2="24.2857" y2="570.262" gradientUnits="userSpaceOnUse">
<stop stop-color="#0038C8"/>
<stop offset="1" stop-color="#8D00D3"/>
</linearGradient>
<linearGradient id="paint18_linear" x1="40.3744" y1="570.19" x2="54.0217" y2="570.262" gradientUnits="userSpaceOnUse">
<stop stop-color="#0038C8"/>
<stop offset="1" stop-color="#8D00D3"/>
</linearGradient>
<linearGradient id="paint19_linear" x1="70.1105" y1="570.19" x2="83.7577" y2="570.262" gradientUnits="userSpaceOnUse">
<stop stop-color="#0038C8"/>
<stop offset="1" stop-color="#8D00D3"/>
</linearGradient>
<linearGradient id="paint20_linear" x1="99.8465" y1="570.19" x2="113.494" y2="570.262" gradientUnits="userSpaceOnUse">
<stop stop-color="#0038C8"/>
<stop offset="1" stop-color="#8D00D3"/>
</linearGradient>
<linearGradient id="paint21_linear" x1="129.582" y1="570.19" x2="143.23" y2="570.262" gradientUnits="userSpaceOnUse">
<stop stop-color="#0038C8"/>
<stop offset="1" stop-color="#8D00D3"/>
</linearGradient>
<linearGradient id="paint22_linear" x1="159.318" y1="570.19" x2="172.966" y2="570.262" gradientUnits="userSpaceOnUse">
<stop stop-color="#0038C8"/>
<stop offset="1" stop-color="#8D00D3"/>
</linearGradient>
<linearGradient id="paint23_linear" x1="189.057" y1="570.19" x2="202.704" y2="570.262" gradientUnits="userSpaceOnUse">
<stop stop-color="#0038C8"/>
<stop offset="1" stop-color="#8D00D3"/>
</linearGradient>
<linearGradient id="paint24_linear" x1="218.793" y1="570.19" x2="232.44" y2="570.262" gradientUnits="userSpaceOnUse">
<stop stop-color="#0038C8"/>
<stop offset="1" stop-color="#8D00D3"/>
</linearGradient>
<linearGradient id="paint25_linear" x1="10.6385" y1="599.927" x2="24.2857" y2="599.999" gradientUnits="userSpaceOnUse">
<stop stop-color="#0038C8"/>
<stop offset="1" stop-color="#8D00D3"/>
</linearGradient>
<linearGradient id="paint26_linear" x1="40.3744" y1="599.927" x2="54.0217" y2="599.999" gradientUnits="userSpaceOnUse">
<stop stop-color="#0038C8"/>
<stop offset="1" stop-color="#8D00D3"/>
</linearGradient>
<linearGradient id="paint27_linear" x1="70.1105" y1="599.927" x2="83.7577" y2="599.999" gradientUnits="userSpaceOnUse">
<stop stop-color="#0038C8"/>
<stop offset="1" stop-color="#8D00D3"/>
</linearGradient>
<linearGradient id="paint28_linear" x1="99.8465" y1="599.927" x2="113.494" y2="599.999" gradientUnits="userSpaceOnUse">
<stop stop-color="#0038C8"/>
<stop offset="1" stop-color="#8D00D3"/>
</linearGradient>
<linearGradient id="paint29_linear" x1="129.582" y1="599.927" x2="143.23" y2="599.999" gradientUnits="userSpaceOnUse">
<stop stop-color="#0038C8"/>
<stop offset="1" stop-color="#8D00D3"/>
</linearGradient>
<linearGradient id="paint30_linear" x1="159.318" y1="599.927" x2="172.966" y2="599.999" gradientUnits="userSpaceOnUse">
<stop stop-color="#0038C8"/>
<stop offset="1" stop-color="#8D00D3"/>
</linearGradient>
<linearGradient id="paint31_linear" x1="189.057" y1="599.927" x2="202.704" y2="599.999" gradientUnits="userSpaceOnUse">
<stop stop-color="#0038C8"/>
<stop offset="1" stop-color="#8D00D3"/>
</linearGradient>
<linearGradient id="paint32_linear" x1="218.793" y1="599.927" x2="232.44" y2="599.999" gradientUnits="userSpaceOnUse">
<stop stop-color="#0038C8"/>
<stop offset="1" stop-color="#8D00D3"/>
</linearGradient>
<linearGradient id="paint33_linear" x1="10.6385" y1="629.662" x2="24.2857" y2="629.734" gradientUnits="userSpaceOnUse">
<stop stop-color="#0038C8"/>
<stop offset="1" stop-color="#8D00D3"/>
</linearGradient>
<linearGradient id="paint34_linear" x1="40.3744" y1="629.662" x2="54.0217" y2="629.734" gradientUnits="userSpaceOnUse">
<stop stop-color="#0038C8"/>
<stop offset="1" stop-color="#8D00D3"/>
</linearGradient>
<linearGradient id="paint35_linear" x1="70.1105" y1="629.662" x2="83.7577" y2="629.734" gradientUnits="userSpaceOnUse">
<stop stop-color="#0038C8"/>
<stop offset="1" stop-color="#8D00D3"/>
</linearGradient>
<linearGradient id="paint36_linear" x1="99.8465" y1="629.662" x2="113.494" y2="629.734" gradientUnits="userSpaceOnUse">
<stop stop-color="#0038C8"/>
<stop offset="1" stop-color="#8D00D3"/>
</linearGradient>
<linearGradient id="paint37_linear" x1="129.582" y1="629.662" x2="143.23" y2="629.734" gradientUnits="userSpaceOnUse">
<stop stop-color="#0038C8"/>
<stop offset="1" stop-color="#8D00D3"/>
</linearGradient>
<linearGradient id="paint38_linear" x1="159.318" y1="629.662" x2="172.966" y2="629.734" gradientUnits="userSpaceOnUse">
<stop stop-color="#0038C8"/>
<stop offset="1" stop-color="#8D00D3"/>
</linearGradient>
<linearGradient id="paint39_linear" x1="189.057" y1="629.662" x2="202.704" y2="629.734" gradientUnits="userSpaceOnUse">
<stop stop-color="#0038C8"/>
<stop offset="1" stop-color="#8D00D3"/>
</linearGradient>
<linearGradient id="paint40_linear" x1="218.793" y1="629.662" x2="232.44" y2="629.734" gradientUnits="userSpaceOnUse">
<stop stop-color="#0038C8"/>
<stop offset="1" stop-color="#8D00D3"/>
</linearGradient>
<linearGradient id="paint41_linear" x1="10.6385" y1="659.4" x2="24.2857" y2="659.472" gradientUnits="userSpaceOnUse">
<stop stop-color="#0038C8"/>
<stop offset="1" stop-color="#8D00D3"/>
</linearGradient>
<linearGradient id="paint42_linear" x1="40.3744" y1="659.4" x2="54.0217" y2="659.472" gradientUnits="userSpaceOnUse">
<stop stop-color="#0038C8"/>
<stop offset="1" stop-color="#8D00D3"/>
</linearGradient>
<linearGradient id="paint43_linear" x1="70.1105" y1="659.4" x2="83.7577" y2="659.472" gradientUnits="userSpaceOnUse">
<stop stop-color="#0038C8"/>
<stop offset="1" stop-color="#8D00D3"/>
</linearGradient>
<linearGradient id="paint44_linear" x1="99.8465" y1="659.4" x2="113.494" y2="659.472" gradientUnits="userSpaceOnUse">
<stop stop-color="#0038C8"/>
<stop offset="1" stop-color="#8D00D3"/>
</linearGradient>
<linearGradient id="paint45_linear" x1="129.582" y1="659.4" x2="143.23" y2="659.472" gradientUnits="userSpaceOnUse">
<stop stop-color="#0038C8"/>
<stop offset="1" stop-color="#8D00D3"/>
</linearGradient>
<linearGradient id="paint46_linear" x1="159.318" y1="659.4" x2="172.966" y2="659.472" gradientUnits="userSpaceOnUse">
<stop stop-color="#0038C8"/>
<stop offset="1" stop-color="#8D00D3"/>
</linearGradient>
<linearGradient id="paint47_linear" x1="189.057" y1="659.4" x2="202.704" y2="659.472" gradientUnits="userSpaceOnUse">
<stop stop-color="#0038C8"/>
<stop offset="1" stop-color="#8D00D3"/>
</linearGradient>
<linearGradient id="paint48_linear" x1="218.793" y1="659.4" x2="232.44" y2="659.472" gradientUnits="userSpaceOnUse">
<stop stop-color="#0038C8"/>
<stop offset="1" stop-color="#8D00D3"/>
</linearGradient>
<linearGradient id="paint49_linear" x1="10.6385" y1="689.136" x2="24.2857" y2="689.208" gradientUnits="userSpaceOnUse">
<stop stop-color="#0038C8"/>
<stop offset="1" stop-color="#8D00D3"/>
</linearGradient>
<linearGradient id="paint50_linear" x1="40.3744" y1="689.136" x2="54.0217" y2="689.208" gradientUnits="userSpaceOnUse">
<stop stop-color="#0038C8"/>
<stop offset="1" stop-color="#8D00D3"/>
</linearGradient>
<linearGradient id="paint51_linear" x1="70.1105" y1="689.136" x2="83.7577" y2="689.208" gradientUnits="userSpaceOnUse">
<stop stop-color="#0038C8"/>
<stop offset="1" stop-color="#8D00D3"/>
</linearGradient>
<linearGradient id="paint52_linear" x1="99.8465" y1="689.136" x2="113.494" y2="689.208" gradientUnits="userSpaceOnUse">
<stop stop-color="#0038C8"/>
<stop offset="1" stop-color="#8D00D3"/>
</linearGradient>
<linearGradient id="paint53_linear" x1="129.582" y1="689.136" x2="143.23" y2="689.208" gradientUnits="userSpaceOnUse">
<stop stop-color="#0038C8"/>
<stop offset="1" stop-color="#8D00D3"/>
</linearGradient>
<linearGradient id="paint54_linear" x1="159.318" y1="689.136" x2="172.966" y2="689.208" gradientUnits="userSpaceOnUse">
<stop stop-color="#0038C8"/>
<stop offset="1" stop-color="#8D00D3"/>
</linearGradient>
<linearGradient id="paint55_linear" x1="189.057" y1="689.136" x2="202.704" y2="689.208" gradientUnits="userSpaceOnUse">
<stop stop-color="#0038C8"/>
<stop offset="1" stop-color="#8D00D3"/>
</linearGradient>
<linearGradient id="paint56_linear" x1="218.793" y1="689.136" x2="232.44" y2="689.208" gradientUnits="userSpaceOnUse">
<stop stop-color="#0038C8"/>
<stop offset="1" stop-color="#8D00D3"/>
</linearGradient>
<linearGradient id="paint57_linear" x1="10.6385" y1="718.872" x2="24.2857" y2="718.944" gradientUnits="userSpaceOnUse">
<stop stop-color="#0038C8"/>
<stop offset="1" stop-color="#8D00D3"/>
</linearGradient>
<linearGradient id="paint58_linear" x1="40.3744" y1="718.872" x2="54.0217" y2="718.944" gradientUnits="userSpaceOnUse">
<stop stop-color="#0038C8"/>
<stop offset="1" stop-color="#8D00D3"/>
</linearGradient>
<linearGradient id="paint59_linear" x1="70.1105" y1="718.872" x2="83.7577" y2="718.944" gradientUnits="userSpaceOnUse">
<stop stop-color="#0038C8"/>
<stop offset="1" stop-color="#8D00D3"/>
</linearGradient>
<linearGradient id="paint60_linear" x1="99.8465" y1="718.872" x2="113.494" y2="718.944" gradientUnits="userSpaceOnUse">
<stop stop-color="#0038C8"/>
<stop offset="1" stop-color="#8D00D3"/>
</linearGradient>
<linearGradient id="paint61_linear" x1="129.582" y1="718.872" x2="143.23" y2="718.944" gradientUnits="userSpaceOnUse">
<stop stop-color="#0038C8"/>
<stop offset="1" stop-color="#8D00D3"/>
</linearGradient>
<linearGradient id="paint62_linear" x1="159.318" y1="718.872" x2="172.966" y2="718.944" gradientUnits="userSpaceOnUse">
<stop stop-color="#0038C8"/>
<stop offset="1" stop-color="#8D00D3"/>
</linearGradient>
<linearGradient id="paint63_linear" x1="189.057" y1="718.872" x2="202.704" y2="718.944" gradientUnits="userSpaceOnUse">
<stop stop-color="#0038C8"/>
<stop offset="1" stop-color="#8D00D3"/>
</linearGradient>
<linearGradient id="paint64_linear" x1="218.793" y1="718.872" x2="232.44" y2="718.944" gradientUnits="userSpaceOnUse">
<stop stop-color="#0038C8"/>
<stop offset="1" stop-color="#8D00D3"/>
</linearGradient>
<linearGradient id="paint65_linear" x1="10.6385" y1="748.609" x2="24.2857" y2="748.681" gradientUnits="userSpaceOnUse">
<stop stop-color="#0038C8"/>
<stop offset="1" stop-color="#8D00D3"/>
</linearGradient>
<linearGradient id="paint66_linear" x1="40.3744" y1="748.609" x2="54.0217" y2="748.681" gradientUnits="userSpaceOnUse">
<stop stop-color="#0038C8"/>
<stop offset="1" stop-color="#8D00D3"/>
</linearGradient>
<linearGradient id="paint67_linear" x1="70.1105" y1="748.609" x2="83.7577" y2="748.681" gradientUnits="userSpaceOnUse">
<stop stop-color="#0038C8"/>
<stop offset="1" stop-color="#8D00D3"/>
</linearGradient>
<linearGradient id="paint68_linear" x1="99.8465" y1="748.609" x2="113.494" y2="748.681" gradientUnits="userSpaceOnUse">
<stop stop-color="#0038C8"/>
<stop offset="1" stop-color="#8D00D3"/>
</linearGradient>
<linearGradient id="paint69_linear" x1="129.582" y1="748.609" x2="143.23" y2="748.681" gradientUnits="userSpaceOnUse">
<stop stop-color="#0038C8"/>
<stop offset="1" stop-color="#8D00D3"/>
</linearGradient>
<linearGradient id="paint70_linear" x1="159.318" y1="748.609" x2="172.966" y2="748.681" gradientUnits="userSpaceOnUse">
<stop stop-color="#0038C8"/>
<stop offset="1" stop-color="#8D00D3"/>
</linearGradient>
<linearGradient id="paint71_linear" x1="189.057" y1="748.609" x2="202.704" y2="748.681" gradientUnits="userSpaceOnUse">
<stop stop-color="#0038C8"/>
<stop offset="1" stop-color="#8D00D3"/>
</linearGradient>
<linearGradient id="paint72_linear" x1="218.793" y1="748.609" x2="232.44" y2="748.681" gradientUnits="userSpaceOnUse">
<stop stop-color="#0038C8"/>
<stop offset="1" stop-color="#8D00D3"/>
</linearGradient>
<linearGradient id="paint73_linear" x1="10.6385" y1="778.345" x2="24.2857" y2="778.417" gradientUnits="userSpaceOnUse">
<stop stop-color="#0038C8"/>
<stop offset="1" stop-color="#8D00D3"/>
</linearGradient>
<linearGradient id="paint74_linear" x1="40.3744" y1="778.345" x2="54.0217" y2="778.417" gradientUnits="userSpaceOnUse">
<stop stop-color="#0038C8"/>
<stop offset="1" stop-color="#8D00D3"/>
</linearGradient>
<linearGradient id="paint75_linear" x1="70.1105" y1="778.345" x2="83.7577" y2="778.417" gradientUnits="userSpaceOnUse">
<stop stop-color="#0038C8"/>
<stop offset="1" stop-color="#8D00D3"/>
</linearGradient>
<linearGradient id="paint76_linear" x1="99.8465" y1="778.345" x2="113.494" y2="778.417" gradientUnits="userSpaceOnUse">
<stop stop-color="#0038C8"/>
<stop offset="1" stop-color="#8D00D3"/>
</linearGradient>
<linearGradient id="paint77_linear" x1="129.582" y1="778.345" x2="143.23" y2="778.417" gradientUnits="userSpaceOnUse">
<stop stop-color="#0038C8"/>
<stop offset="1" stop-color="#8D00D3"/>
</linearGradient>
<linearGradient id="paint78_linear" x1="159.318" y1="778.345" x2="172.966" y2="778.417" gradientUnits="userSpaceOnUse">
<stop stop-color="#0038C8"/>
<stop offset="1" stop-color="#8D00D3"/>
</linearGradient>
<linearGradient id="paint79_linear" x1="189.057" y1="778.345" x2="202.704" y2="778.417" gradientUnits="userSpaceOnUse">
<stop stop-color="#0038C8"/>
<stop offset="1" stop-color="#8D00D3"/>
</linearGradient>
<linearGradient id="paint80_linear" x1="218.793" y1="778.345" x2="232.44" y2="778.417" gradientUnits="userSpaceOnUse">
<stop stop-color="#0038C8"/>
<stop offset="1" stop-color="#8D00D3"/>
</linearGradient>
<linearGradient id="paint81_linear" x1="10.6385" y1="808.081" x2="24.2857" y2="808.153" gradientUnits="userSpaceOnUse">
<stop stop-color="#0038C8"/>
<stop offset="1" stop-color="#8D00D3"/>
</linearGradient>
<linearGradient id="paint82_linear" x1="40.3744" y1="808.081" x2="54.0217" y2="808.153" gradientUnits="userSpaceOnUse">
<stop stop-color="#0038C8"/>
<stop offset="1" stop-color="#8D00D3"/>
</linearGradient>
<linearGradient id="paint83_linear" x1="70.1105" y1="808.081" x2="83.7577" y2="808.153" gradientUnits="userSpaceOnUse">
<stop stop-color="#0038C8"/>
<stop offset="1" stop-color="#8D00D3"/>
</linearGradient>
<linearGradient id="paint84_linear" x1="99.8465" y1="808.081" x2="113.494" y2="808.153" gradientUnits="userSpaceOnUse">
<stop stop-color="#0038C8"/>
<stop offset="1" stop-color="#8D00D3"/>
</linearGradient>
<linearGradient id="paint85_linear" x1="129.582" y1="808.081" x2="143.23" y2="808.153" gradientUnits="userSpaceOnUse">
<stop stop-color="#0038C8"/>
<stop offset="1" stop-color="#8D00D3"/>
</linearGradient>
<linearGradient id="paint86_linear" x1="159.318" y1="808.081" x2="172.966" y2="808.153" gradientUnits="userSpaceOnUse">
<stop stop-color="#0038C8"/>
<stop offset="1" stop-color="#8D00D3"/>
</linearGradient>
<linearGradient id="paint87_linear" x1="189.057" y1="808.081" x2="202.704" y2="808.153" gradientUnits="userSpaceOnUse">
<stop stop-color="#0038C8"/>
<stop offset="1" stop-color="#8D00D3"/>
</linearGradient>
<linearGradient id="paint88_linear" x1="218.793" y1="808.081" x2="232.44" y2="808.153" gradientUnits="userSpaceOnUse">
<stop stop-color="#0038C8"/>
<stop offset="1" stop-color="#8D00D3"/>
</linearGradient>
<linearGradient id="paint89_linear" x1="10.6385" y1="837.817" x2="24.2857" y2="837.889" gradientUnits="userSpaceOnUse">
<stop stop-color="#0038C8"/>
<stop offset="1" stop-color="#8D00D3"/>
</linearGradient>
<linearGradient id="paint90_linear" x1="40.3744" y1="837.817" x2="54.0217" y2="837.889" gradientUnits="userSpaceOnUse">
<stop stop-color="#0038C8"/>
<stop offset="1" stop-color="#8D00D3"/>
</linearGradient>
<linearGradient id="paint91_linear" x1="70.1105" y1="837.817" x2="83.7577" y2="837.889" gradientUnits="userSpaceOnUse">
<stop stop-color="#0038C8"/>
<stop offset="1" stop-color="#8D00D3"/>
</linearGradient>
<linearGradient id="paint92_linear" x1="99.8465" y1="837.817" x2="113.494" y2="837.889" gradientUnits="userSpaceOnUse">
<stop stop-color="#0038C8"/>
<stop offset="1" stop-color="#8D00D3"/>
</linearGradient>
<linearGradient id="paint93_linear" x1="129.582" y1="837.817" x2="143.23" y2="837.889" gradientUnits="userSpaceOnUse">
<stop stop-color="#0038C8"/>
<stop offset="1" stop-color="#8D00D3"/>
</linearGradient>
<linearGradient id="paint94_linear" x1="159.318" y1="837.817" x2="172.966" y2="837.889" gradientUnits="userSpaceOnUse">
<stop stop-color="#0038C8"/>
<stop offset="1" stop-color="#8D00D3"/>
</linearGradient>
<linearGradient id="paint95_linear" x1="189.057" y1="837.817" x2="202.704" y2="837.889" gradientUnits="userSpaceOnUse">
<stop stop-color="#0038C8"/>
<stop offset="1" stop-color="#8D00D3"/>
</linearGradient>
<linearGradient id="paint96_linear" x1="218.793" y1="837.817" x2="232.44" y2="837.889" gradientUnits="userSpaceOnUse">
<stop stop-color="#0038C8"/>
<stop offset="1" stop-color="#8D00D3"/>
</linearGradient>
</defs>
</svg>
