<svg width="859" height="1399" viewBox="0 0 859 1399" fill="none" xmlns="http://www.w3.org/2000/svg">
<g opacity="0.35" filter="url(#filter0_f)">
<ellipse rx="298.68" ry="309.828" transform="matrix(0.591447 0.806344 -0.51822 0.855247 739.212 540.818)" fill="#441ECE"/>
</g>
<mask id="mask0" mask-type="alpha" maskUnits="userSpaceOnUse" x="579" y="189" width="336" height="335">
<rect x="579.001" y="189" width="335" height="335" fill="url(#paint0_radial)"/>
</mask>
<g mask="url(#mask0)">
<circle cx="582.718" cy="192.717" r="3.71706" fill="#441ECE"/>
<circle opacity="0.8" cx="612.454" cy="192.717" r="3.71706" fill="#441ECE"/>
<circle cx="642.19" cy="192.717" r="3.71706" fill="#441ECE"/>
<circle opacity="0.4" cx="671.926" cy="192.717" r="3.71706" fill="#441ECE"/>
<circle cx="701.665" cy="192.717" r="3.71706" fill="#441ECE"/>
<circle cx="731.401" cy="192.717" r="3.71706" fill="#441ECE"/>
<circle opacity="0.6" cx="761.137" cy="192.717" r="3.71706" fill="#441ECE"/>
<circle opacity="0.4" cx="790.873" cy="192.717" r="3.71706" fill="#441ECE"/>
<circle opacity="0.6" cx="820.609" cy="192.717" r="3.71706" fill="#441ECE"/>
<circle cx="850.345" cy="192.717" r="3.71706" fill="#441ECE"/>
<circle cx="582.718" cy="222.453" r="3.71706" fill="#441ECE"/>
<circle opacity="0.6" cx="612.454" cy="222.453" r="3.71706" fill="#441ECE"/>
<circle cx="642.19" cy="222.453" r="3.71706" fill="#441ECE"/>
<circle cx="671.926" cy="222.453" r="3.71706" fill="#441ECE"/>
<circle opacity="0.6" cx="701.665" cy="222.453" r="3.71706" fill="#441ECE"/>
<circle opacity="0.4" cx="731.401" cy="222.453" r="3.71706" fill="#441ECE"/>
<circle cx="761.137" cy="222.453" r="3.71706" fill="#441ECE"/>
<circle opacity="0.4" cx="790.873" cy="222.453" r="3.71706" fill="#441ECE"/>
<circle cx="820.609" cy="222.453" r="3.71706" fill="#441ECE"/>
<circle cx="850.345" cy="222.453" r="3.71706" fill="#441ECE"/>
<circle cx="582.718" cy="252.19" r="3.71706" fill="#441ECE"/>
<circle cx="612.454" cy="252.19" r="3.71706" fill="#441ECE"/>
<circle cx="642.19" cy="252.19" r="3.71706" fill="#441ECE"/>
<circle cx="671.926" cy="252.19" r="3.71706" fill="#441ECE"/>
<circle opacity="0.6" cx="701.665" cy="252.19" r="3.71706" fill="#441ECE"/>
<circle cx="731.401" cy="252.19" r="3.71706" fill="#441ECE"/>
<circle opacity="0.8" cx="761.137" cy="252.19" r="3.71706" fill="#441ECE"/>
<circle cx="790.873" cy="252.19" r="3.71706" fill="#441ECE"/>
<circle opacity="0.4" cx="820.609" cy="252.19" r="3.71706" fill="#441ECE"/>
<circle opacity="0.6" cx="850.345" cy="252.19" r="3.71706" fill="#441ECE"/>
<circle opacity="0.6" cx="582.718" cy="281.927" r="3.71706" fill="#441ECE"/>
<circle opacity="0.8" cx="612.454" cy="281.927" r="3.71706" fill="#441ECE"/>
<circle opacity="0.6" cx="642.19" cy="281.927" r="3.71706" fill="#441ECE"/>
<circle cx="671.926" cy="281.927" r="3.71706" fill="#441ECE"/>
<circle cx="701.665" cy="281.927" r="3.71706" fill="#441ECE"/>
<circle cx="731.401" cy="281.927" r="3.71706" fill="#441ECE"/>
<circle opacity="0.4" cx="761.137" cy="281.927" r="3.71706" fill="#441ECE"/>
<circle opacity="0.4" cx="790.873" cy="281.927" r="3.71706" fill="#441ECE"/>
<circle opacity="0.6" cx="820.609" cy="281.927" r="3.71706" fill="#441ECE"/>
<circle opacity="0.6" cx="850.345" cy="281.927" r="3.71706" fill="#441ECE"/>
<circle cx="582.718" cy="311.662" r="3.71706" fill="#441ECE"/>
<circle cx="612.454" cy="311.662" r="3.71706" fill="#441ECE"/>
<circle cx="642.19" cy="311.662" r="3.71706" fill="#441ECE"/>
<circle opacity="0.6" cx="671.926" cy="311.662" r="3.71706" fill="#441ECE"/>
<circle opacity="0.6" cx="701.665" cy="311.662" r="3.71706" fill="#441ECE"/>
<circle opacity="0.4" cx="731.401" cy="311.662" r="3.71706" fill="#441ECE"/>
<circle opacity="0.8" cx="761.137" cy="311.662" r="3.71706" fill="#441ECE"/>
<circle cx="790.873" cy="311.662" r="3.71706" fill="#441ECE"/>
<circle opacity="0.4" cx="820.609" cy="311.662" r="3.71706" fill="#441ECE"/>
<circle cx="850.345" cy="311.662" r="3.71706" fill="#441ECE"/>
<circle opacity="0.6" cx="582.718" cy="341.4" r="3.71706" fill="#441ECE"/>
<circle opacity="0.6" cx="612.454" cy="341.4" r="3.71706" fill="#441ECE"/>
<circle opacity="0.6" cx="642.19" cy="341.4" r="3.71706" fill="#441ECE"/>
<circle opacity="0.6" cx="671.926" cy="341.4" r="3.71706" fill="#441ECE"/>
<circle cx="701.665" cy="341.4" r="3.71706" fill="#441ECE"/>
<circle opacity="0.6" cx="731.401" cy="341.4" r="3.71706" fill="#441ECE"/>
<circle cx="761.137" cy="341.4" r="3.71706" fill="#441ECE"/>
<circle cx="790.873" cy="341.4" r="3.71706" fill="#441ECE"/>
<circle opacity="0.4" cx="820.609" cy="341.4" r="3.71706" fill="#441ECE"/>
<circle opacity="0.4" cx="850.345" cy="341.4" r="3.71706" fill="#441ECE"/>
<circle opacity="0.6" cx="582.718" cy="371.136" r="3.71706" fill="#441ECE"/>
<circle cx="612.454" cy="371.136" r="3.71706" fill="#441ECE"/>
<circle opacity="0.8" cx="642.19" cy="371.136" r="3.71706" fill="#441ECE"/>
<circle opacity="0.8" cx="671.926" cy="371.136" r="3.71706" fill="#441ECE"/>
<circle opacity="0.4" cx="701.665" cy="371.136" r="3.71706" fill="#441ECE"/>
<circle cx="731.401" cy="371.136" r="3.71706" fill="#441ECE"/>
<circle cx="761.137" cy="371.136" r="3.71706" fill="#441ECE"/>
<circle opacity="0.8" cx="790.873" cy="371.136" r="3.71706" fill="#441ECE"/>
<circle cx="820.609" cy="371.136" r="3.71706" fill="#441ECE"/>
<circle cx="850.345" cy="371.136" r="3.71706" fill="#441ECE"/>
<circle opacity="0.6" cx="582.718" cy="400.872" r="3.71706" fill="#441ECE"/>
<circle opacity="0.8" cx="612.454" cy="400.872" r="3.71706" fill="#441ECE"/>
<circle opacity="0.8" cx="642.19" cy="400.872" r="3.71706" fill="#441ECE"/>
<circle cx="671.926" cy="400.872" r="3.71706" fill="#441ECE"/>
<circle cx="701.665" cy="400.872" r="3.71706" fill="#441ECE"/>
<circle opacity="0.8" cx="731.401" cy="400.872" r="3.71706" fill="#441ECE"/>
<circle opacity="0.4" cx="761.137" cy="400.872" r="3.71706" fill="#441ECE"/>
<circle opacity="0.4" cx="790.873" cy="400.872" r="3.71706" fill="#441ECE"/>
<circle cx="820.609" cy="400.872" r="3.71706" fill="#441ECE"/>
<circle opacity="0.4" cx="850.345" cy="400.872" r="3.71706" fill="#441ECE"/>
<circle cx="582.718" cy="430.609" r="3.71706" fill="#441ECE"/>
<circle cx="612.454" cy="430.609" r="3.71706" fill="#441ECE"/>
<circle cx="642.19" cy="430.609" r="3.71706" fill="#441ECE"/>
<circle opacity="0.4" cx="671.926" cy="430.609" r="3.71706" fill="#441ECE"/>
<circle cx="701.665" cy="430.609" r="3.71706" fill="#441ECE"/>
<circle opacity="0.4" cx="731.401" cy="430.609" r="3.71706" fill="#441ECE"/>
<circle cx="761.137" cy="430.609" r="3.71706" fill="#441ECE"/>
<circle cx="790.873" cy="430.609" r="3.71706" fill="#441ECE"/>
<circle cx="820.609" cy="430.609" r="3.71706" fill="#441ECE"/>
<circle cx="850.345" cy="430.609" r="3.71706" fill="#441ECE"/>
<circle opacity="0.6" cx="582.718" cy="460.345" r="3.71706" fill="#441ECE"/>
<circle opacity="0.8" cx="612.454" cy="460.345" r="3.71706" fill="#441ECE"/>
<circle opacity="0.4" cx="642.19" cy="460.345" r="3.71706" fill="#441ECE"/>
<circle opacity="0.4" cx="671.926" cy="460.345" r="3.71706" fill="#441ECE"/>
<circle cx="701.665" cy="460.345" r="3.71706" fill="#441ECE"/>
<circle cx="731.401" cy="460.345" r="3.71706" fill="#441ECE"/>
<circle opacity="0.6" cx="761.137" cy="460.345" r="3.71706" fill="#441ECE"/>
<circle opacity="0.4" cx="790.873" cy="460.345" r="3.71706" fill="#441ECE"/>
<circle cx="820.609" cy="460.345" r="3.71706" fill="#441ECE"/>
<circle cx="850.345" cy="460.345" r="3.71706" fill="#441ECE"/>
<circle opacity="0.6" cx="582.718" cy="490.081" r="3.71706" fill="#441ECE"/>
<circle cx="612.454" cy="490.081" r="3.71706" fill="#441ECE"/>
<circle opacity="0.6" cx="642.19" cy="490.081" r="3.71706" fill="#441ECE"/>
<circle opacity="0.8" cx="671.926" cy="490.081" r="3.71706" fill="#441ECE"/>
<circle opacity="0.6" cx="701.665" cy="490.081" r="3.71706" fill="#441ECE"/>
<circle cx="731.401" cy="490.081" r="3.71706" fill="#441ECE"/>
<circle opacity="0.6" cx="761.137" cy="490.081" r="3.71706" fill="#441ECE"/>
<circle opacity="0.6" cx="790.873" cy="490.081" r="3.71706" fill="#441ECE"/>
<circle opacity="0.8" cx="820.609" cy="490.081" r="3.71706" fill="#441ECE"/>
<circle opacity="0.4" cx="850.345" cy="490.081" r="3.71706" fill="#441ECE"/>
<circle opacity="0.4" cx="582.718" cy="519.817" r="3.71706" fill="#441ECE"/>
<circle cx="612.454" cy="519.817" r="3.71706" fill="#441ECE"/>
<circle opacity="0.4" cx="642.19" cy="519.817" r="3.71706" fill="#441ECE"/>
<circle cx="671.926" cy="519.817" r="3.71706" fill="#441ECE"/>
<circle cx="701.665" cy="519.817" r="3.71706" fill="#441ECE"/>
<circle opacity="0.6" cx="731.401" cy="519.817" r="3.71706" fill="#441ECE"/>
<circle cx="761.137" cy="519.817" r="3.71706" fill="#441ECE"/>
<circle cx="790.873" cy="519.817" r="3.71706" fill="#441ECE"/>
<circle opacity="0.6" cx="820.609" cy="519.817" r="3.71706" fill="#441ECE"/>
<circle cx="850.345" cy="519.817" r="3.71706" fill="#441ECE"/>
</g>
<defs>
<filter id="filter0_f" x="0.494019" y="-317.259" width="1477.44" height="1716.15" filterUnits="userSpaceOnUse" color-interpolation-filters="sRGB">
<feFlood flood-opacity="0" result="BackgroundImageFix"/>
<feBlend mode="normal" in="SourceGraphic" in2="BackgroundImageFix" result="shape"/>
<feGaussianBlur stdDeviation="250" result="effect1_foregroundBlur"/>
</filter>
<radialGradient id="paint0_radial" cx="0" cy="0" r="1" gradientUnits="userSpaceOnUse" gradientTransform="translate(746.501 356.5) rotate(90) scale(167.733)">
<stop stop-color="white"/>
<stop offset="0.244792" stop-color="white" stop-opacity="0.5"/>
<stop offset="1" stop-color="white" stop-opacity="0"/>
</radialGradient>
</defs>
</svg>
