<svg width="859" height="1399" fill="none" xmlns="http://www.w3.org/2000/svg"><g opacity=".35" filter="url(#filter0_f)"><ellipse rx="298.68" ry="309.828" transform="matrix(.59145 .80634 -.51822 .85525 739.212 540.818)" fill="#441ECE"/></g><mask id="a" maskUnits="userSpaceOnUse" x="579" y="189" width="336" height="335"><path fill="url(#paint0_radial)" d="M579.001 189h335v335h-335z"/></mask><g mask="url(#a)" fill="#441ECE"><circle cx="582.718" cy="192.717" r="3.717"/><circle opacity=".8" cx="612.454" cy="192.717" r="3.717"/><circle cx="642.19" cy="192.717" r="3.717"/><circle opacity=".4" cx="671.926" cy="192.717" r="3.717"/><circle cx="701.665" cy="192.717" r="3.717"/><circle cx="731.401" cy="192.717" r="3.717"/><circle opacity=".6" cx="761.137" cy="192.717" r="3.717"/><circle opacity=".4" cx="790.873" cy="192.717" r="3.717"/><circle opacity=".6" cx="820.609" cy="192.717" r="3.717"/><circle cx="850.345" cy="192.717" r="3.717"/><circle cx="582.718" cy="222.453" r="3.717"/><circle opacity=".6" cx="612.454" cy="222.453" r="3.717"/><circle cx="642.19" cy="222.453" r="3.717"/><circle cx="671.926" cy="222.453" r="3.717"/><circle opacity=".6" cx="701.665" cy="222.453" r="3.717"/><circle opacity=".4" cx="731.401" cy="222.453" r="3.717"/><circle cx="761.137" cy="222.453" r="3.717"/><circle opacity=".4" cx="790.873" cy="222.453" r="3.717"/><circle cx="820.609" cy="222.453" r="3.717"/><circle cx="850.345" cy="222.453" r="3.717"/><circle cx="582.718" cy="252.19" r="3.717"/><circle cx="612.454" cy="252.19" r="3.717"/><circle cx="642.19" cy="252.19" r="3.717"/><circle cx="671.926" cy="252.19" r="3.717"/><circle opacity=".6" cx="701.665" cy="252.19" r="3.717"/><circle cx="731.401" cy="252.19" r="3.717"/><circle opacity=".8" cx="761.137" cy="252.19" r="3.717"/><circle cx="790.873" cy="252.19" r="3.717"/><circle opacity=".4" cx="820.609" cy="252.19" r="3.717"/><circle opacity=".6" cx="850.345" cy="252.19" r="3.717"/><circle opacity=".6" cx="582.718" cy="281.927" r="3.717"/><circle opacity=".8" cx="612.454" cy="281.927" r="3.717"/><circle opacity=".6" cx="642.19" cy="281.927" r="3.717"/><circle cx="671.926" cy="281.927" r="3.717"/><circle cx="701.665" cy="281.927" r="3.717"/><circle cx="731.401" cy="281.927" r="3.717"/><circle opacity=".4" cx="761.137" cy="281.927" r="3.717"/><circle opacity=".4" cx="790.873" cy="281.927" r="3.717"/><circle opacity=".6" cx="820.609" cy="281.927" r="3.717"/><circle opacity=".6" cx="850.345" cy="281.927" r="3.717"/><circle cx="582.718" cy="311.662" r="3.717"/><circle cx="612.454" cy="311.662" r="3.717"/><circle cx="642.19" cy="311.662" r="3.717"/><circle opacity=".6" cx="671.926" cy="311.662" r="3.717"/><circle opacity=".6" cx="701.665" cy="311.662" r="3.717"/><circle opacity=".4" cx="731.401" cy="311.662" r="3.717"/><circle opacity=".8" cx="761.137" cy="311.662" r="3.717"/><circle cx="790.873" cy="311.662" r="3.717"/><circle opacity=".4" cx="820.609" cy="311.662" r="3.717"/><circle cx="850.345" cy="311.662" r="3.717"/><circle opacity=".6" cx="582.718" cy="341.4" r="3.717"/><circle opacity=".6" cx="612.454" cy="341.4" r="3.717"/><circle opacity=".6" cx="642.19" cy="341.4" r="3.717"/><circle opacity=".6" cx="671.926" cy="341.4" r="3.717"/><circle cx="701.665" cy="341.4" r="3.717"/><circle opacity=".6" cx="731.401" cy="341.4" r="3.717"/><circle cx="761.137" cy="341.4" r="3.717"/><circle cx="790.873" cy="341.4" r="3.717"/><circle opacity=".4" cx="820.609" cy="341.4" r="3.717"/><circle opacity=".4" cx="850.345" cy="341.4" r="3.717"/><circle opacity=".6" cx="582.718" cy="371.136" r="3.717"/><circle cx="612.454" cy="371.136" r="3.717"/><circle opacity=".8" cx="642.19" cy="371.136" r="3.717"/><circle opacity=".8" cx="671.926" cy="371.136" r="3.717"/><circle opacity=".4" cx="701.665" cy="371.136" r="3.717"/><circle cx="731.401" cy="371.136" r="3.717"/><circle cx="761.137" cy="371.136" r="3.717"/><circle opacity=".8" cx="790.873" cy="371.136" r="3.717"/><circle cx="820.609" cy="371.136" r="3.717"/><circle cx="850.345" cy="371.136" r="3.717"/><circle opacity=".6" cx="582.718" cy="400.872" r="3.717"/><circle opacity=".8" cx="612.454" cy="400.872" r="3.717"/><circle opacity=".8" cx="642.19" cy="400.872" r="3.717"/><circle cx="671.926" cy="400.872" r="3.717"/><circle cx="701.665" cy="400.872" r="3.717"/><circle opacity=".8" cx="731.401" cy="400.872" r="3.717"/><circle opacity=".4" cx="761.137" cy="400.872" r="3.717"/><circle opacity=".4" cx="790.873" cy="400.872" r="3.717"/><circle cx="820.609" cy="400.872" r="3.717"/><circle opacity=".4" cx="850.345" cy="400.872" r="3.717"/><circle cx="582.718" cy="430.609" r="3.717"/><circle cx="612.454" cy="430.609" r="3.717"/><circle cx="642.19" cy="430.609" r="3.717"/><circle opacity=".4" cx="671.926" cy="430.609" r="3.717"/><circle cx="701.665" cy="430.609" r="3.717"/><circle opacity=".4" cx="731.401" cy="430.609" r="3.717"/><circle cx="761.137" cy="430.609" r="3.717"/><circle cx="790.873" cy="430.609" r="3.717"/><circle cx="820.609" cy="430.609" r="3.717"/><circle cx="850.345" cy="430.609" r="3.717"/><circle opacity=".6" cx="582.718" cy="460.345" r="3.717"/><circle opacity=".8" cx="612.454" cy="460.345" r="3.717"/><circle opacity=".4" cx="642.19" cy="460.345" r="3.717"/><circle opacity=".4" cx="671.926" cy="460.345" r="3.717"/><circle cx="701.665" cy="460.345" r="3.717"/><circle cx="731.401" cy="460.345" r="3.717"/><circle opacity=".6" cx="761.137" cy="460.345" r="3.717"/><circle opacity=".4" cx="790.873" cy="460.345" r="3.717"/><circle cx="820.609" cy="460.345" r="3.717"/><circle cx="850.345" cy="460.345" r="3.717"/><circle opacity=".6" cx="582.718" cy="490.081" r="3.717"/><circle cx="612.454" cy="490.081" r="3.717"/><circle opacity=".6" cx="642.19" cy="490.081" r="3.717"/><circle opacity=".8" cx="671.926" cy="490.081" r="3.717"/><circle opacity=".6" cx="701.665" cy="490.081" r="3.717"/><circle cx="731.401" cy="490.081" r="3.717"/><circle opacity=".6" cx="761.137" cy="490.081" r="3.717"/><circle opacity=".6" cx="790.873" cy="490.081" r="3.717"/><circle opacity=".8" cx="820.609" cy="490.081" r="3.717"/><circle opacity=".4" cx="850.345" cy="490.081" r="3.717"/><circle opacity=".4" cx="582.718" cy="519.817" r="3.717"/><circle cx="612.454" cy="519.817" r="3.717"/><circle opacity=".4" cx="642.19" cy="519.817" r="3.717"/><circle cx="671.926" cy="519.817" r="3.717"/><circle cx="701.665" cy="519.817" r="3.717"/><circle opacity=".6" cx="731.401" cy="519.817" r="3.717"/><circle cx="761.137" cy="519.817" r="3.717"/><circle cx="790.873" cy="519.817" r="3.717"/><circle opacity=".6" cx="820.609" cy="519.817" r="3.717"/><circle cx="850.345" cy="519.817" r="3.717"/></g><defs><radialGradient id="paint0_radial" cx="0" cy="0" r="1" gradientUnits="userSpaceOnUse" gradientTransform="rotate(90 195 551.5) scale(167.733)"><stop stop-color="#fff"/><stop offset=".245" stop-color="#fff" stop-opacity=".5"/><stop offset="1" stop-color="#fff" stop-opacity="0"/></radialGradient><filter id="filter0_f" x=".494" y="-317.259" width="1477.44" height="1716.15" filterUnits="userSpaceOnUse" color-interpolation-filters="sRGB"><feFlood flood-opacity="0" result="BackgroundImageFix"/><feBlend in="SourceGraphic" in2="BackgroundImageFix" result="shape"/><feGaussianBlur stdDeviation="250" result="effect1_foregroundBlur"/></filter></defs></svg>