<svg width="32" height="32" viewBox="0 0 32 32" fill="none" xmlns="http://www.w3.org/2000/svg">
<circle cx="16" cy="16" r="15.75" fill="url(#paint0_linear)" stroke="url(#paint1_linear)" stroke-width="0.5"/>
<path d="M11.7969 17.832C11.5635 18.0653 11.2835 18.182 10.9569 18.182C10.6302 18.182 10.3502 18.0653 10.1169 17.832C9.88353 17.5987 9.76686 17.3187 9.76686 16.992C9.76686 16.6653 9.88353 16.3853 10.1169 16.152C10.3502 15.9187 10.6302 15.802 10.9569 15.802C11.2835 15.802 11.5635 15.9187 11.7969 16.152C12.0302 16.3853 12.1469 16.6653 12.1469 16.992C12.1469 17.3187 12.0302 17.5987 11.7969 17.832Z" fill="#FC7937"/>
<path d="M16.843 17.832C16.6096 18.0653 16.3296 18.182 16.003 18.182C15.6763 18.182 15.3963 18.0653 15.163 17.832C14.9296 17.5987 14.813 17.3187 14.813 16.992C14.813 16.6653 14.9296 16.3853 15.163 16.152C15.3963 15.9187 15.6763 15.802 16.003 15.802C16.3296 15.802 16.6096 15.9187 16.843 16.152C17.0763 16.3853 17.193 16.6653 17.193 16.992C17.193 17.3187 17.0763 17.5987 16.843 17.832Z" fill="#FC7937"/>
<path d="M21.889 17.832C21.6557 18.0653 21.3757 18.182 21.049 18.182C20.7224 18.182 20.4424 18.0653 20.209 17.832C19.9757 17.5987 19.859 17.3187 19.859 16.992C19.859 16.6653 19.9757 16.3853 20.209 16.152C20.4424 15.9187 20.7224 15.802 21.049 15.802C21.3757 15.802 21.6557 15.9187 21.889 16.152C22.1224 16.3853 22.239 16.6653 22.239 16.992C22.239 17.3187 22.1224 17.5987 21.889 17.832Z" fill="#FC7937"/>
<defs>
<linearGradient id="paint0_linear" x1="27.2" y1="27.2" x2="5" y2="4.4" gradientUnits="userSpaceOnUse">
<stop stop-color="#131533"/>
<stop offset="1" stop-color="#0B0C1D"/>
</linearGradient>
<linearGradient id="paint1_linear" x1="10.0465" y1="1.56957e-06" x2="34.8302" y2="9.81055" gradientUnits="userSpaceOnUse">
<stop stop-color="#FC8234"/>
<stop offset="1" stop-color="#CC67FF" stop-opacity="0"/>
</linearGradient>
</defs>
</svg>
