<svg width="32" height="32" viewBox="0 0 32 32" fill="none" xmlns="http://www.w3.org/2000/svg">
<circle cx="16" cy="16" r="15.75" fill="url(#paint0_linear)" stroke="url(#paint1_linear)" stroke-width="0.5"/>
<path d="M12.5051 21.196C11.2825 21.196 10.3211 20.734 9.62112 19.81C8.93045 18.8767 8.58512 17.64 8.58512 16.1C8.58512 14.56 8.93045 13.328 9.62112 12.404C10.3211 11.4707 11.2825 11.004 12.5051 11.004C13.7371 11.004 14.6985 11.4707 15.3891 12.404C16.0798 13.328 16.4251 14.56 16.4251 16.1C16.4251 17.64 16.0798 18.8767 15.3891 19.81C14.6985 20.734 13.7371 21.196 12.5051 21.196ZM11.0211 18.494C11.3571 19.0353 11.8518 19.306 12.5051 19.306C13.1585 19.306 13.6531 19.0307 13.9891 18.48C14.3345 17.9293 14.5071 17.136 14.5071 16.1C14.5071 15.0547 14.3345 14.2567 13.9891 13.706C13.6531 13.1553 13.1585 12.88 12.5051 12.88C11.8518 12.88 11.3571 13.1553 11.0211 13.706C10.6851 14.2567 10.5171 15.0547 10.5171 16.1C10.5171 17.1453 10.6851 17.9433 11.0211 18.494ZM16.8454 21V19.558L20.1914 16.114C20.938 15.33 21.3114 14.6767 21.3114 14.154C21.3114 13.7713 21.19 13.4633 20.9474 13.23C20.714 12.9967 20.4107 12.88 20.0374 12.88C19.3 12.88 18.754 13.2627 18.3994 14.028L16.7754 13.076C17.0834 12.404 17.5267 11.8907 18.1054 11.536C18.684 11.1813 19.3187 11.004 20.0094 11.004C20.896 11.004 21.6567 11.284 22.2914 11.844C22.926 12.3947 23.2434 13.1413 23.2434 14.084C23.2434 15.1013 22.7067 16.1467 21.6334 17.22L19.7154 19.138H23.3974V21H16.8454Z" fill="#6D45FF"/>
<defs>
<linearGradient id="paint0_linear" x1="27.2" y1="27.2" x2="5" y2="4.4" gradientUnits="userSpaceOnUse">
<stop stop-color="#131533"/>
<stop offset="1" stop-color="#0B0C1D"/>
</linearGradient>
<linearGradient id="paint1_linear" x1="10.0465" y1="1.56957e-06" x2="34.8302" y2="9.81055" gradientUnits="userSpaceOnUse">
<stop stop-color="#6D45FF"/>
<stop offset="1" stop-color="#CC67FF" stop-opacity="0"/>
</linearGradient>
</defs>
</svg>
