<svg width="113" height="131" viewBox="0 0 113 131" fill="none" xmlns="http://www.w3.org/2000/svg">
<path d="M95.15 130V113.17H112V85.13H95.15V18.57C95.15 6.61 87.48 1 78.31 1C69.51 1 63.52 4.93 57.35 12.97L7.55 77.47C3.06 83.26 1 89.24 1 94.48C1 104.95 9.24 113.18 24.4 113.18H61.46V130H95.15ZM36 85.13L61.46 52.04V85.13H36Z" fill="url(#paint0_linear)"/>
<path d="M78.31 0.999922C87.48 0.999922 95.16 6.60992 95.16 18.5699V85.1299H112V113.17H95.15V130H61.46V113.17H24.4C9.23998 113.17 0.999983 104.94 0.999983 94.4699C0.999983 89.2399 3.05998 83.2499 7.54998 77.4599L57.34 12.9599C63.52 4.92992 69.51 0.999922 78.31 0.999922ZM36 85.1299H61.46V52.0399L36 85.1299ZM78.31 0.669922C69.83 0.669922 63.68 4.16992 57.08 12.7599L7.28998 77.2599C3.01998 82.7699 0.669983 88.8799 0.669983 94.4699C0.669983 106.03 9.97998 113.5 24.4 113.5H61.13V130C61.13 130.18 61.28 130.33 61.46 130.33H95.15C95.33 130.33 95.48 130.18 95.48 130V113.5H112C112.18 113.5 112.33 113.35 112.33 113.17V85.1299C112.33 84.9499 112.18 84.7999 112 84.7999H95.48V18.5699C95.48 5.36992 86.61 0.669922 78.31 0.669922ZM36.67 84.7999L61.13 53.0099V84.7999H36.67Z" fill="url(#paint1_radial)"/>
<defs>
<linearGradient id="paint0_linear" x1="54.6611" y1="113.613" x2="73.4575" y2="4.4034" gradientUnits="userSpaceOnUse">
<stop stop-color="#FC8234"/>
<stop offset="1" stop-color="#F93C4C"/>
</linearGradient>
<radialGradient id="paint1_radial" cx="0" cy="0" r="1" gradientUnits="userSpaceOnUse" gradientTransform="translate(60.8064 9.06212) scale(116.236)">
<stop stop-color="white"/>
<stop offset="1" stop-color="white" stop-opacity="0"/>
</radialGradient>
</defs>
</svg>
