<svg width="99" height="131" viewBox="0 0 99 131" fill="none" xmlns="http://www.w3.org/2000/svg">
<path d="M98.43 130V98.22H55.79L77.67 79.15C88.89 69.43 95.06 58.21 95.06 41.76C95.06 19.88 76.74 1 50.18 1C26.24 1 8.28999 15.58 0.429993 34.28L26.61 49.05C30.16 40.82 37.46 33.53 47.18 33.53C55.78 33.53 60.46 39.14 60.46 44.93C60.46 52.6 55.78 57.64 47.18 65.12L16.52 91.49C9.59999 97.47 6.22999 103.64 6.22999 111.87C6.22999 121.78 13.34 130.01 27.92 130.01H98.43V130Z" fill="url(#paint0_linear)"/>
<path d="M50.18 0.999922C76.74 0.999922 95.07 19.8799 95.07 41.7599C95.07 58.2099 88.9 69.4299 77.68 79.1499L55.79 98.2199H98.43V130H27.92C13.33 130 6.22998 121.77 6.22998 111.86C6.22998 103.63 9.59998 97.4599 16.52 91.4799L47.19 65.1199C55.79 57.6399 60.47 52.5899 60.47 44.9299C60.47 39.1299 55.79 33.5299 47.19 33.5299C37.46 33.5299 30.17 40.8199 26.62 49.0499L0.429979 34.2799C8.28998 15.5799 26.24 0.999922 50.18 0.999922ZM50.18 0.669922C27.98 0.669922 8.79998 13.4999 0.129979 34.1499C0.0699792 34.2999 0.129979 34.4799 0.269979 34.5699L26.45 49.3399C26.5 49.3699 26.56 49.3799 26.61 49.3799C26.65 49.3799 26.68 49.3699 26.72 49.3599C26.81 49.3299 26.88 49.2599 26.92 49.1799C30.12 41.7699 37.12 33.8599 47.19 33.8599C55.69 33.8599 60.14 39.4299 60.14 44.9299C60.14 52.1999 56.08 56.9599 46.97 64.8699L16.3 91.2399C9.10998 97.4599 5.89998 103.82 5.89998 111.87C5.89998 123.09 14.55 130.34 27.92 130.34H98.43C98.61 130.34 98.76 130.19 98.76 130.01V98.2199C98.76 98.0399 98.61 97.8899 98.43 97.8899H56.67L77.89 79.3999C90 68.9099 95.39 57.2999 95.39 41.7599C95.39 30.8299 90.92 20.5999 82.8 12.9399C74.42 5.02992 62.84 0.669922 50.18 0.669922Z" fill="url(#paint1_radial)"/>
<defs>
<linearGradient id="paint0_linear" x1="8.32609" y1="119.405" x2="93.3037" y2="36.0401" gradientUnits="userSpaceOnUse">
<stop stop-color="#CB3775"/>
<stop offset="1" stop-color="#8D01D3"/>
</linearGradient>
<radialGradient id="paint1_radial" cx="0" cy="0" r="1" gradientUnits="userSpaceOnUse" gradientTransform="translate(46.1555 1.13652) scale(128.888)">
<stop stop-color="white"/>
<stop offset="1" stop-color="white" stop-opacity="0"/>
</radialGradient>
</defs>
</svg>
