<svg width="9" height="7" viewBox="0 0 9 7" fill="none" xmlns="http://www.w3.org/2000/svg">
<path d="M8.61539 0.801373C8.29849 0.937229 7.95761 1.02912 7.60012 1.07015C7.96512 0.858723 8.24524 0.524181 8.37745 0.124896C8.03591 0.320779 7.65746 0.46288 7.25502 0.539474C6.93259 0.20748 6.4732 0 5.96452 0C4.98853 0 4.19696 0.765306 4.19696 1.70891C4.19696 1.84285 4.21265 1.97323 4.24297 2.09838C2.77399 2.02714 1.47149 1.34684 0.599642 0.312622C0.447523 0.564963 0.36026 0.858723 0.36026 1.17186C0.36026 1.7646 0.672537 2.28789 1.14656 2.59427C0.856951 2.58547 0.584219 2.50862 0.346023 2.38029C0.345891 2.38755 0.345891 2.39482 0.345891 2.40195C0.345891 3.22996 0.95542 3.92058 1.76386 4.07747C1.6157 4.11672 1.45923 4.1375 1.29828 4.1375C1.18412 4.1375 1.07353 4.12692 0.965701 4.10704C1.19058 4.78581 1.84322 5.27991 2.61686 5.2938C2.01181 5.75222 1.24977 6.02534 0.421423 6.02534C0.279059 6.02534 0.138014 6.01731 0 6.00138C0.781815 6.48643 1.71113 6.76923 2.70926 6.76923C5.96043 6.76923 7.7384 4.16528 7.7384 1.90683C7.7384 1.83278 7.73668 1.75899 7.73326 1.68584C8.07888 1.44497 8.37851 1.14407 8.61539 0.801373Z" fill="white"/>
</svg>
