<svg width="12" height="9" viewBox="0 0 12 9" fill="none" xmlns="http://www.w3.org/2000/svg">
<path fill-rule="evenodd" clip-rule="evenodd" d="M10.6951 0.852115C11.2091 0.98392 11.6144 1.36975 11.7528 1.85922C12.0098 2.75326 12 4.61684 12 4.61684C12 4.61684 12 6.47091 11.7528 7.36504C11.6144 7.85443 11.2092 8.24034 10.6951 8.37206C9.75609 8.60742 5.99998 8.60742 5.99998 8.60742C5.99998 8.60742 2.25365 8.60742 1.3048 8.36273C0.790738 8.23092 0.385527 7.84501 0.2471 7.35562C0 6.47091 0 4.60742 0 4.60742C0 4.60742 0 2.75326 0.2471 1.85922C0.385435 1.36983 0.800625 0.974506 1.30471 0.842788C2.24377 0.607422 5.99988 0.607422 5.99988 0.607422C5.99988 0.607422 9.75609 0.607422 10.6951 0.852115ZM7.92744 4.60742L4.80394 6.32036V2.89447L7.92744 4.60742Z" fill="white"/>
</svg>
