<svg id="Layer_2" data-name="Layer 2" xmlns="http://www.w3.org/2000/svg" xmlns:xlink="http://www.w3.org/1999/xlink" width="700" height="700" viewBox="0 0 700 700"><defs><style>.cls-1{fill:url(#linear-gradient);}.cls-2{fill:#fff;}</style><linearGradient id="linear-gradient" x1="174.97" y1="653.16" x2="525.03" y2="46.84" gradientUnits="userSpaceOnUse"><stop offset="0" stop-color="#383d63"/><stop offset="0.23" stop-color="#693566"/><stop offset="0.48" stop-color="#982d6a"/><stop offset="0.7" stop-color="#bb276c"/><stop offset="0.88" stop-color="#d0236d"/><stop offset="1" stop-color="#d8226e"/></linearGradient></defs><circle class="cls-1" cx="350" cy="350" r="350"/><circle class="cls-2" cx="350" cy="350" r="35.15"/><circle class="cls-2" cx="305.7" cy="197.16" r="25.55" transform="translate(-50.52 123.48) rotate(-21.13)"/><path class="cls-2" d="M518.11,365.17a25.55,25.55,0,1,0,25.55,25.55A25.54,25.54,0,0,0,518.11,365.17Z"/><path class="cls-2" d="M474.8,283.3c16.28-50.8,14.24-90.83-9.11-106.43-26-17.36-69.82,1.24-115.69,44.78q-5.42-5.13-10.78-9.79a36.69,36.69,0,0,1-7.87,11.39c2.94,2.57,5.89,5.23,8.86,8a464,464,0,0,0-33.3,38.11,437.81,437.81,0,0,0-68.37,10.4c-13.9-43.5-13.44-77.63,4.61-89.69,7.19-4.8,16.55-5.67,27.4-3.14a36.64,36.64,0,0,1,6.92-13.11c-16.93-5.29-31.76-4.6-43.16,3C211,192.47,208.92,232.5,225.2,283.3,173.92,298,141.77,321.92,141.77,350s32.15,52,83.43,66.71c-1.43,4.44-2.7,8.8-3.85,13.07.67,0,1.34-.1,2-.1a36.28,36.28,0,0,1,11.79,2q1.51-5.61,3.38-11.46a437.81,437.81,0,0,0,68.37,10.4,462.21,462.21,0,0,0,33.31,38.11c-39.65,37.29-76.9,54.66-97.07,41.18a26.86,26.86,0,0,1-8.22-8.87,35.34,35.34,0,0,1-16,1.6c3.24,8.81,8.34,15.78,15.41,20.5,26,17.36,69.81-1.23,115.69-44.78,45.88,43.55,89.71,62.14,115.69,44.78,23.35-15.6,25.39-55.63,9.11-106.43q7.17-2.06,13.83-4.34a36.4,36.4,0,0,1-6-12.58q-5.94,2-12.37,3.88A426,426,0,0,0,445.9,350a426,426,0,0,0,24.4-53.66c43.89,12.61,72,32,72,53.66a26.71,26.71,0,0,1-2.57,11.23,36.79,36.79,0,0,1,10.61,12.12c5.13-7.34,7.88-15.17,7.88-23.35C558.23,321.92,526.08,298,474.8,283.3ZM350,240.82c8.27,8.38,16.58,17.58,24.82,27.5-8.12-.35-16.39-.55-24.82-.55s-16.7.2-24.82.55C333.42,258.4,341.73,249.2,350,240.82ZM295.87,284q-7.2,9.84-14.24,20.33Q271,320.21,262,335.85a403.7,403.7,0,0,1-19-43A413.11,413.11,0,0,1,295.87,284ZM229.7,403.66c-43.89-12.61-72-32-72-53.66s28.12-41.05,72-53.66A424.59,424.59,0,0,0,254.1,350,426,426,0,0,0,229.7,403.66ZM243,407.18a404.59,404.59,0,0,1,19-43q9,15.62,19.61,31.54,7,10.51,14.25,20.33A413,413,0,0,1,243,407.18Zm49.77-18.95c-8.55-12.81-16.31-25.61-23.27-38.23,7-12.61,14.72-25.42,23.27-38.23,6.87-10.27,13.93-20,21.09-29.34q17.56-1.2,36.12-1.23t36.12,1.23c7.16,9.29,14.22,19.07,21.09,29.34,8.55,12.81,16.31,25.62,23.27,38.23-7,12.62-14.72,25.42-23.27,38.23-6.87,10.27-13.93,20.06-21.09,29.35-11.71.79-23.77,1.22-36.12,1.22s-24.41-.43-36.12-1.22C306.72,408.29,299.66,398.5,292.79,388.23Zm32.39,43.45c8.12.35,16.39.55,24.82.55s16.7-.2,24.82-.55c-8.24,9.92-16.55,19.13-24.82,27.5C341.73,450.81,333.42,441.6,325.18,431.68ZM456.85,509.9c-20.17,13.48-57.42-3.89-97.07-41.18a462.21,462.21,0,0,0,33.31-38.11,438,438,0,0,0,68.37-10.4C475.36,463.71,474.9,497.84,456.85,509.9ZM457,407.18A412.81,412.81,0,0,1,404.13,416q7.2-9.82,14.24-20.33Q429,379.79,438,364.15A402.57,402.57,0,0,1,457,407.18Zm-19-71.33q-9-15.62-19.61-31.54-7-10.51-14.24-20.33A412.81,412.81,0,0,1,457,292.82,401.69,401.69,0,0,1,438,335.85Zm23.48-56.06a437.94,437.94,0,0,0-68.37-10.41,465.51,465.51,0,0,0-33.3-38.1c39.64-37.29,76.89-54.66,97.06-41.18C474.9,202.16,475.36,236.29,461.46,279.79Z"/><path class="cls-2" d="M248.91,466.31a25.55,25.55,0,1,0-25.54,25.54A25.54,25.54,0,0,0,248.91,466.31Z"/></svg>
