<svg width="676" height="200" viewBox="0 0 676 200" fill="none" xmlns="http://www.w3.org/2000/svg">
<path d="M36.6095 38.7132C26.8257 32.3725 13.9067 39.3948 13.9067 51.0535L13.9067 104.578C13.9067 121.258 22.3889 136.793 36.4205 145.812L100.5 187L119.522 165.105C140.849 140.556 135.521 102.816 108.232 85.1301L36.6095 38.7132Z" fill="#4739FF"/>
<path d="M164.297 38.7132C174.081 32.3725 187 39.3948 187 51.0535V104.594C187 121.265 178.526 136.794 164.506 145.815L100.5 187L81.4528 165.11C60.0958 140.565 65.4123 102.798 92.7155 85.1038L164.297 38.7132Z" fill="#7B46FF"/>
<path fill-rule="evenodd" clip-rule="evenodd" d="M100.453 80.0892L92.7156 85.1038C65.4125 102.798 60.096 140.565 81.453 165.11L100.5 187L119.521 165.105C140.848 140.556 135.521 102.816 108.231 85.1301L100.453 80.0892Z" fill="#22F4FF"/>
<ellipse cx="100.5" cy="38" rx="25" ry="25.5" transform="rotate(-90 100.5 38)" fill="#22F4FF"/>
<path d="M228.82 189.615C236.3 189.615 242.68 183.455 242.68 176.195C242.68 168.715 236.3 162.335 228.82 162.335C221.34 162.335 214.96 168.715 214.96 176.195C214.96 183.455 221.34 189.615 228.82 189.615Z" fill="white"/>
<path d="M288.598 186.975V129.115C288.598 108.655 300.478 91.7146 323.358 91.7146C339.858 91.7146 351.518 100.515 351.518 125.375V187.195H366.698V122.075C366.698 95.2346 354.158 77.8546 326.218 77.8546C308.398 77.8546 295.418 86.4346 288.598 99.1946V26.8146H273.418V186.975H288.598Z" fill="white"/>
<path d="M412.133 187.195V121.195C412.133 104.915 422.913 91.7146 440.733 91.7146C456.793 91.7146 467.133 102.275 467.133 120.315V187.195H482.093V121.415C482.093 104.915 492.653 91.4946 510.473 91.4946C526.753 91.4946 536.873 102.275 536.873 120.535V187.195H551.613V117.455C551.613 92.8146 536.433 77.8546 513.333 77.8546C496.173 77.8546 483.193 86.6546 478.353 100.515C473.293 86.6546 460.753 77.8546 444.033 77.8546C429.073 77.8546 417.193 84.6746 411.913 95.8946L410.153 80.7146H396.953V187.195H412.133Z" fill="white"/>
<path d="M597.329 187.195V131.535C597.329 107.555 609.649 91.7146 631.429 91.7146C649.029 91.7146 660.249 100.515 660.249 125.375V187.195H675.429V122.075C675.429 95.2346 663.329 77.8546 634.069 77.8546C618.669 77.8546 604.589 85.5546 597.549 99.1946L595.349 80.7146H582.149V187.195H597.329Z" fill="white"/>
</svg>
