<svg width="401" height="401" viewBox="0 0 401 401" fill="none" xmlns="http://www.w3.org/2000/svg">
<circle cx="200.5" cy="200.5" r="200.5" fill="url(#paint0_linear_328_3093)"/>
<circle cx="200.5" cy="200.5" r="170.425" fill="url(#paint1_linear_328_3093)"/>
<circle cx="200.5" cy="200.5" r="170.425" fill="url(#paint2_linear_328_3093)"/>
<g filter="url(#filter0_d_328_3093)">
<path d="M242.191 141.192C243.635 137.208 244.683 132.964 245.727 128.736C246.722 124.704 247.715 120.686 249.043 116.923C250.392 113.101 252.596 109.512 255.654 106.454C266.599 95.5084 284.346 95.5084 295.292 106.454C306.238 117.4 306.238 135.147 295.292 146.093C292.234 149.151 288.646 151.354 284.823 152.704C281.06 154.032 277.043 155.024 273.011 156.02C269.544 156.876 266.066 157.734 262.73 158.812C244.086 163.418 230.22 180.151 229.981 200.161C229.949 200.29 229.916 200.419 229.884 200.548C229.916 200.674 229.947 200.799 229.978 200.925C230.092 222.129 245.505 239.711 265.741 243.195C268.134 243.874 270.575 244.477 273.011 245.079C277.043 246.074 281.061 247.066 284.824 248.395C288.646 249.744 292.235 251.948 295.293 255.005C306.239 265.951 306.239 283.698 295.293 294.644C284.347 305.59 266.6 305.59 255.654 294.644C252.596 291.586 250.393 287.998 249.043 284.175C247.715 280.412 246.723 276.394 245.727 272.362C244.714 268.257 243.696 264.136 242.316 260.254C236.86 242.235 220.123 229.118 200.323 229.118C178.552 229.118 160.484 244.978 157.044 265.774C156.442 267.947 155.897 270.155 155.353 272.359L155.352 272.362C154.356 276.394 153.364 280.412 152.036 284.175C150.686 287.998 148.483 291.586 145.425 294.644C134.479 305.59 116.732 305.59 105.786 294.644C94.8406 283.698 94.8406 265.951 105.786 255.005C108.844 251.948 112.433 249.744 116.255 248.395C120.019 247.066 124.036 246.074 128.068 245.079C130.475 244.484 132.887 243.889 135.253 243.22C155.631 239.781 171.155 222.052 171.158 200.696L171.194 200.55L171.157 200.401C171.025 180.199 157.006 163.294 138.167 158.754C134.887 157.703 131.472 156.86 128.068 156.02C124.036 155.024 120.018 154.032 116.255 152.704C112.432 151.354 108.844 149.151 105.786 146.093C94.8401 135.147 94.8401 117.4 105.786 106.454C116.732 95.5084 134.479 95.5084 145.425 106.454C148.482 109.512 150.686 113.101 152.035 116.923C153.364 120.686 154.356 124.704 155.351 128.736L155.352 128.737C155.903 130.97 156.456 133.209 157.068 135.411C160.567 156.137 178.601 171.923 200.323 171.923C219.974 171.923 236.608 159.002 242.191 141.192Z" fill="url(#paint3_linear_328_3093)"/>
</g>
<g filter="url(#filter1_d_328_3093)">
<circle r="25.6278" transform="matrix(1 0 0 -1 200.426 123.873)" fill="url(#paint4_linear_328_3093)"/>
</g>
<g filter="url(#filter2_d_328_3093)">
<circle r="25.6278" transform="matrix(1 0 0 -1 200.426 276.803)" fill="url(#paint5_linear_328_3093)"/>
</g>
<g filter="url(#filter3_d_328_3093)">
<circle r="25.6278" transform="matrix(0 1 1 0 277.874 200.341)" fill="url(#paint6_linear_328_3093)"/>
</g>
<g filter="url(#filter4_d_328_3093)">
<circle r="25.6278" transform="matrix(0 1 1 0 123.473 200.341)" fill="url(#paint7_linear_328_3093)"/>
</g>
<defs>
<filter id="filter0_d_328_3093" x="83.4951" y="84.1634" width="234.088" height="232.772" filterUnits="userSpaceOnUse" color-interpolation-filters="sRGB">
<feFlood flood-opacity="0" result="BackgroundImageFix"/>
<feColorMatrix in="SourceAlpha" type="matrix" values="0 0 0 0 0 0 0 0 0 0 0 0 0 0 0 0 0 0 127 0" result="hardAlpha"/>
<feOffset/>
<feGaussianBlur stdDeviation="7.04072"/>
<feColorMatrix type="matrix" values="0 0 0 0 0.278431 0 0 0 0 0.109804 0 0 0 0 0.807843 0 0 0 0.4 0"/>
<feBlend mode="normal" in2="BackgroundImageFix" result="effect1_dropShadow_328_3093"/>
<feBlend mode="normal" in="SourceGraphic" in2="effect1_dropShadow_328_3093" result="shape"/>
</filter>
<filter id="filter1_d_328_3093" x="139.594" y="63.0415" width="121.663" height="121.663" filterUnits="userSpaceOnUse" color-interpolation-filters="sRGB">
<feFlood flood-opacity="0" result="BackgroundImageFix"/>
<feColorMatrix in="SourceAlpha" type="matrix" values="0 0 0 0 0 0 0 0 0 0 0 0 0 0 0 0 0 0 127 0" result="hardAlpha"/>
<feOffset/>
<feGaussianBlur stdDeviation="17.6018"/>
<feColorMatrix type="matrix" values="0 0 0 0 0.960784 0 0 0 0 0.443137 0 0 0 0 0.254902 0 0 0 0.3 0"/>
<feBlend mode="normal" in2="BackgroundImageFix" result="effect1_dropShadow_328_3093"/>
<feBlend mode="normal" in="SourceGraphic" in2="effect1_dropShadow_328_3093" result="shape"/>
</filter>
<filter id="filter2_d_328_3093" x="139.594" y="215.972" width="121.663" height="121.663" filterUnits="userSpaceOnUse" color-interpolation-filters="sRGB">
<feFlood flood-opacity="0" result="BackgroundImageFix"/>
<feColorMatrix in="SourceAlpha" type="matrix" values="0 0 0 0 0 0 0 0 0 0 0 0 0 0 0 0 0 0 127 0" result="hardAlpha"/>
<feOffset/>
<feGaussianBlur stdDeviation="17.6018"/>
<feColorMatrix type="matrix" values="0 0 0 0 0.960784 0 0 0 0 0.443137 0 0 0 0 0.254902 0 0 0 0.3 0"/>
<feBlend mode="normal" in2="BackgroundImageFix" result="effect1_dropShadow_328_3093"/>
<feBlend mode="normal" in="SourceGraphic" in2="effect1_dropShadow_328_3093" result="shape"/>
</filter>
<filter id="filter3_d_328_3093" x="217.043" y="139.51" width="121.663" height="121.663" filterUnits="userSpaceOnUse" color-interpolation-filters="sRGB">
<feFlood flood-opacity="0" result="BackgroundImageFix"/>
<feColorMatrix in="SourceAlpha" type="matrix" values="0 0 0 0 0 0 0 0 0 0 0 0 0 0 0 0 0 0 127 0" result="hardAlpha"/>
<feOffset/>
<feGaussianBlur stdDeviation="17.6018"/>
<feColorMatrix type="matrix" values="0 0 0 0 0.960784 0 0 0 0 0.443137 0 0 0 0 0.254902 0 0 0 0.3 0"/>
<feBlend mode="normal" in2="BackgroundImageFix" result="effect1_dropShadow_328_3093"/>
<feBlend mode="normal" in="SourceGraphic" in2="effect1_dropShadow_328_3093" result="shape"/>
</filter>
<filter id="filter4_d_328_3093" x="62.6417" y="139.51" width="121.663" height="121.663" filterUnits="userSpaceOnUse" color-interpolation-filters="sRGB">
<feFlood flood-opacity="0" result="BackgroundImageFix"/>
<feColorMatrix in="SourceAlpha" type="matrix" values="0 0 0 0 0 0 0 0 0 0 0 0 0 0 0 0 0 0 127 0" result="hardAlpha"/>
<feOffset/>
<feGaussianBlur stdDeviation="17.6018"/>
<feColorMatrix type="matrix" values="0 0 0 0 0.960784 0 0 0 0 0.443137 0 0 0 0 0.254902 0 0 0 0.3 0"/>
<feBlend mode="normal" in2="BackgroundImageFix" result="effect1_dropShadow_328_3093"/>
<feBlend mode="normal" in="SourceGraphic" in2="effect1_dropShadow_328_3093" result="shape"/>
</filter>
<linearGradient id="paint0_linear_328_3093" x1="200.5" y1="200.5" x2="200.5" y2="624.223" gradientUnits="userSpaceOnUse">
<stop stop-color="#5530DD" stop-opacity="0"/>
<stop offset="1" stop-color="#1E047E"/>
</linearGradient>
<linearGradient id="paint1_linear_328_3093" x1="200.5" y1="200.5" x2="200.5" y2="560.665" gradientUnits="userSpaceOnUse">
<stop stop-color="#5530DD" stop-opacity="0.08"/>
<stop offset="1" stop-color="#1E047E"/>
</linearGradient>
<linearGradient id="paint2_linear_328_3093" x1="200.5" y1="200.5" x2="200.5" y2="370.925" gradientUnits="userSpaceOnUse">
<stop stop-color="#12132F" stop-opacity="0"/>
<stop offset="1" stop-color="#3600FF" stop-opacity="0.4"/>
</linearGradient>
<linearGradient id="paint3_linear_328_3093" x1="286.381" y1="291.393" x2="106.441" y2="108.804" gradientUnits="userSpaceOnUse">
<stop stop-color="#CC67FF"/>
<stop offset="1" stop-color="#7B03B6"/>
</linearGradient>
<linearGradient id="paint4_linear_328_3093" x1="41.4086" y1="6.8115" x2="9.66277" y2="44.9065" gradientUnits="userSpaceOnUse">
<stop stop-color="#FC8234"/>
<stop offset="1" stop-color="#F93C4C"/>
</linearGradient>
<linearGradient id="paint5_linear_328_3093" x1="38.7353" y1="5.69095" x2="5.31861" y2="41.1126" gradientUnits="userSpaceOnUse">
<stop stop-color="#FC8234"/>
<stop offset="1" stop-color="#F93C4C"/>
</linearGradient>
<linearGradient id="paint6_linear_328_3093" x1="45.8368" y1="40.4844" x2="7.07347" y2="7.40192" gradientUnits="userSpaceOnUse">
<stop stop-color="#FC8234"/>
<stop offset="1" stop-color="#F93C4C"/>
</linearGradient>
<linearGradient id="paint7_linear_328_3093" x1="45.8368" y1="40.4844" x2="7.07347" y2="7.40192" gradientUnits="userSpaceOnUse">
<stop stop-color="#FC8234"/>
<stop offset="1" stop-color="#F93C4C"/>
</linearGradient>
</defs>
</svg>
