<svg width="121" height="24" viewBox="0 0 121 24" fill="none" xmlns="http://www.w3.org/2000/svg">
<path d="M37.9888 22.2726C35.984 22.2726 34.1683 21.8376 32.5418 20.9676C30.9341 20.0787 29.6669 18.8588 28.7402 17.3079C27.8323 15.757 27.3784 14.0075 27.3784 12.0594C27.3784 10.1113 27.8418 8.36185 28.7686 6.81095C29.6953 5.26005 30.9625 4.0496 32.5701 3.17958C34.1967 2.29066 36.0124 1.84619 38.0172 1.84619C39.6437 1.84619 41.1284 2.12989 42.4713 2.69729C43.8141 3.26469 44.9489 4.08743 45.8757 5.16549L43.4926 7.40672C42.0552 5.85583 40.2868 5.08038 38.1874 5.08038C36.8256 5.08038 35.6057 5.38299 34.5277 5.98822C33.4496 6.57453 32.608 7.39727 32.0027 8.45641C31.3975 9.51556 31.0949 10.7166 31.0949 12.0594C31.0949 13.4023 31.3975 14.6033 32.0027 15.6624C32.608 16.7216 33.4496 17.5537 34.5277 18.159C35.6057 18.7453 36.8256 19.0384 38.1874 19.0384C40.2868 19.0384 42.0552 18.2535 43.4926 16.6837L45.8757 18.9533C44.9489 20.0314 43.8047 20.8541 42.4429 21.4215C41.1001 21.9889 39.6154 22.2726 37.9888 22.2726Z" fill="white"/>
<path d="M55.3238 22.1875C53.7918 22.1875 52.4111 21.8565 51.1818 21.1946C49.9524 20.5326 48.9878 19.6153 48.288 18.4427C47.6072 17.2511 47.2667 15.9083 47.2667 14.4141C47.2667 12.92 47.6072 11.5866 48.288 10.4139C48.9878 9.24132 49.9524 8.32402 51.1818 7.66205C52.4111 7.00009 53.7918 6.6691 55.3238 6.6691C56.8747 6.6691 58.2648 7.00009 59.4942 7.66205C60.7236 8.32402 61.6787 9.24132 62.3596 10.4139C63.0594 11.5866 63.4093 12.92 63.4093 14.4141C63.4093 15.9083 63.0594 17.2511 62.3596 18.4427C61.6787 19.6153 60.7236 20.5326 59.4942 21.1946C58.2648 21.8565 56.8747 22.1875 55.3238 22.1875ZM55.3238 19.1519C56.6288 19.1519 57.7069 18.7169 58.558 17.8469C59.4091 16.9769 59.8346 15.8326 59.8346 14.4141C59.8346 12.9956 59.4091 11.8514 58.558 10.9813C57.7069 10.1113 56.6288 9.67633 55.3238 9.67633C54.0188 9.67633 52.9407 10.1113 52.0896 10.9813C51.2574 11.8514 50.8413 12.9956 50.8413 14.4141C50.8413 15.8326 51.2574 16.9769 52.0896 17.8469C52.9407 18.7169 54.0188 19.1519 55.3238 19.1519Z" fill="white"/>
<path d="M70.1764 9.05219C71.1977 7.46346 72.9945 6.6691 75.5667 6.6691V10.0451C75.2641 9.9884 74.9899 9.96003 74.744 9.96003C73.3633 9.96003 72.2853 10.3667 71.5098 11.1799C70.7344 11.9743 70.3466 13.128 70.3466 14.6411V21.9889H66.8004V6.83932H70.1764V9.05219Z" fill="white"/>
<path d="M87.0861 21.1662C86.67 21.5066 86.1593 21.762 85.5541 21.9322C84.9678 22.1024 84.3436 22.1875 83.6817 22.1875C82.0173 22.1875 80.7312 21.7525 79.8233 20.8825C78.9155 20.0125 78.4616 18.7453 78.4616 17.0809V3.49166H82.0078V6.9528H86.0648V9.78981H82.0078V16.9958C82.0078 17.7334 82.1875 18.3008 82.5469 18.698C82.9251 19.0763 83.4453 19.2654 84.1072 19.2654C84.9016 19.2654 85.5636 19.0574 86.0931 18.6413L87.0861 21.1662Z" fill="white"/>
<path d="M96.7246 19.1803C98.37 19.1803 99.7413 18.6318 100.838 17.5348L102.711 19.7193C102.049 20.5326 101.198 21.1473 100.157 21.5634C99.1171 21.9795 97.9445 22.1875 96.6395 22.1875C94.9751 22.1875 93.5093 21.8565 92.2421 21.1946C90.9749 20.5326 89.9914 19.6153 89.2916 18.4427C88.6107 17.2511 88.2703 15.9083 88.2703 14.4141C88.2703 12.9389 88.6013 11.6149 89.2633 10.4423C89.9441 9.25078 90.8709 8.32402 92.0435 7.66205C93.2351 7.00009 94.5779 6.6691 96.0721 6.6691C97.4906 6.6691 98.7767 6.98117 99.9304 7.60531C101.103 8.21054 102.03 9.09001 102.711 10.2437C103.392 11.3785 103.732 12.7119 103.732 14.2439L92.1286 16.5135C92.488 17.3835 93.0648 18.0455 93.8592 18.4994C94.6536 18.9533 95.6087 19.1803 96.7246 19.1803ZM96.0721 9.50611C94.767 9.50611 93.7079 9.93166 92.8946 10.7828C92.1003 11.6339 91.7031 12.7781 91.7031 14.2155V14.2439L100.271 12.5984C100.025 11.6717 99.5238 10.9246 98.7672 10.3572C98.0296 9.78981 97.1312 9.50611 96.0721 9.50611Z" fill="white"/>
<path d="M116.369 21.9889L112.483 16.7405L108.568 21.9889H104.652L110.553 14.3006L104.908 6.83932H108.851L112.568 11.8041L116.284 6.83932H120.114L114.44 14.2439L120.369 21.9889H116.369Z" fill="white"/>
<g clip-path="url(#clip0_875_410)">
<circle r="2.56445" transform="matrix(-1 0 0 1 11.9885 2.56445)" fill="url(#paint0_linear_875_410)"/>
<circle r="1.58343" transform="matrix(-1 0 0 1 20.6126 11.3823)" fill="url(#paint1_linear_875_410)"/>
<path fill-rule="evenodd" clip-rule="evenodd" d="M8.82293 16.0388C7.96421 15.2707 6.67525 15.3117 5.55193 15.5677C4.221 15.8711 2.76843 15.5592 1.65635 14.5983C-0.200204 12.9942 -0.404889 10.1886 1.19932 8.33193C2.80353 6.4753 5.60916 6.27074 7.46572 7.8749C8.55805 8.81872 9.07851 10.1784 8.9952 11.516C8.92542 12.6363 9.06402 13.8702 9.90062 14.6185V14.6185C10.7711 15.3972 12.0747 15.3658 13.2192 15.1329C14.522 14.8677 15.9292 15.1877 17.013 16.1242C18.8695 17.7283 19.0742 20.534 17.47 22.3906C15.8658 24.2472 13.0602 24.4518 11.2036 22.8476C10.0833 21.8796 9.56446 20.4739 9.68174 19.1034C9.77621 17.9995 9.6487 16.7775 8.82293 16.0388V16.0388Z" fill="url(#paint2_linear_875_410)"/>
<path fill-rule="evenodd" clip-rule="evenodd" d="M16.2661 6.93C16.8492 6.39202 16.906 5.50582 16.8045 4.71899C16.6843 3.78673 16.9938 2.81164 17.7257 2.1127C18.9475 0.945849 20.8841 0.990413 22.051 2.21233C23.2179 3.43425 23.1732 5.3708 21.9513 6.53765C21.2324 7.22418 20.2662 7.49133 19.3548 7.34609C18.5915 7.22445 17.7367 7.23815 17.1686 7.76227V7.76227C16.5775 8.30764 16.5131 9.20322 16.5974 10.003C16.6933 10.9135 16.3812 11.8569 15.6679 12.5381C14.446 13.705 12.5095 13.6604 11.3426 12.4385C10.1757 11.2166 10.2204 9.28003 11.4422 8.11318C12.1796 7.40902 13.1772 7.14604 14.1089 7.31674C14.8594 7.45423 15.7054 7.44734 16.2661 6.93V6.93Z" fill="url(#paint3_linear_875_410)"/>
</g>
<defs>
<linearGradient id="paint0_linear_875_410" x1="2.56445" y1="0" x2="2.56445" y2="5.1289" gradientUnits="userSpaceOnUse">
<stop stop-color="#FC7A37"/>
<stop offset="1" stop-color="#F93E4C"/>
</linearGradient>
<linearGradient id="paint1_linear_875_410" x1="1.58343" y1="0" x2="1.58343" y2="3.16686" gradientUnits="userSpaceOnUse">
<stop stop-color="#FC7B37"/>
<stop offset="1" stop-color="#F93E4C"/>
</linearGradient>
<linearGradient id="paint2_linear_875_410" x1="23.8568" y1="27.6923" x2="-6.64898" y2="-0.433685" gradientUnits="userSpaceOnUse">
<stop stop-color="#461DCE"/>
<stop offset="1" stop-color="#8C01D3"/>
</linearGradient>
<linearGradient id="paint3_linear_875_410" x1="2.62622" y1="20.2365" x2="28.618" y2="-2.53688" gradientUnits="userSpaceOnUse">
<stop stop-color="#481CCE"/>
<stop offset="0.896733" stop-color="#8D01D3"/>
</linearGradient>
<clipPath id="clip0_875_410">
<rect width="23.0059" height="24" fill="white"/>
</clipPath>
</defs>
</svg>
