<svg xmlns="http://www.w3.org/2000/svg" xmlns:xlink="http://www.w3.org/1999/xlink" width="500" zoomAndPan="magnify" viewBox="0 0 375 374.999991" height="500" preserveAspectRatio="xMidYMid meet" version="1.0"><defs><clipPath id="9e8e7cdea0"><path d="M 242 79 L 263.429688 79 L 263.429688 104 L 242 104 Z M 242 79 " clip-rule="nonzero"/></clipPath></defs><path fill="#4739ff" d="M 120.144531 70.242188 C 117.953125 68.816406 115.058594 70.394531 115.058594 73.019531 L 115.058594 85.0625 C 115.058594 88.816406 116.957031 92.3125 120.101562 94.339844 L 134.460938 103.605469 L 138.722656 98.679688 C 143.503906 93.15625 142.308594 84.664062 136.195312 80.6875 Z M 120.144531 70.242188 " fill-opacity="1" fill-rule="nonzero"/><path fill="#7b46ff" d="M 148.757812 70.242188 C 150.949219 68.816406 153.84375 70.394531 153.84375 73.019531 L 153.84375 85.066406 C 153.84375 88.816406 151.945312 92.3125 148.804688 94.339844 L 134.460938 103.605469 L 130.191406 98.683594 C 125.40625 93.160156 126.597656 84.660156 132.714844 80.679688 Z M 148.757812 70.242188 " fill-opacity="1" fill-rule="nonzero"/><path fill="#22f4ff" d="M 134.449219 79.550781 L 132.714844 80.679688 C 126.597656 84.660156 125.40625 93.160156 130.191406 98.683594 L 134.460938 103.605469 L 138.722656 98.679688 C 143.5 93.15625 142.308594 84.664062 136.191406 80.6875 Z M 134.449219 79.550781 " fill-opacity="1" fill-rule="evenodd"/><path fill="#22f4ff" d="M 134.460938 64.457031 C 134.835938 64.457031 135.207031 64.492188 135.574219 64.566406 C 135.945312 64.636719 136.300781 64.742188 136.648438 64.886719 C 136.992188 65.027344 137.324219 65.199219 137.636719 65.40625 C 137.949219 65.609375 138.234375 65.84375 138.5 66.105469 C 138.765625 66.367188 139.003906 66.648438 139.210938 66.957031 C 139.421875 67.265625 139.597656 67.589844 139.738281 67.929688 C 139.882812 68.269531 139.992188 68.621094 140.066406 68.984375 C 140.136719 69.347656 140.175781 69.714844 140.175781 70.082031 C 140.175781 70.453125 140.136719 70.816406 140.066406 71.179688 C 139.992188 71.542969 139.882812 71.894531 139.738281 72.234375 C 139.597656 72.574219 139.421875 72.898438 139.210938 73.207031 C 139.003906 73.515625 138.765625 73.796875 138.5 74.058594 C 138.234375 74.320312 137.949219 74.554688 137.636719 74.757812 C 137.324219 74.964844 136.992188 75.136719 136.648438 75.277344 C 136.300781 75.421875 135.945312 75.527344 135.574219 75.597656 C 135.207031 75.671875 134.835938 75.707031 134.460938 75.707031 C 134.085938 75.707031 133.714844 75.671875 133.347656 75.597656 C 132.976562 75.527344 132.621094 75.421875 132.273438 75.277344 C 131.925781 75.136719 131.597656 74.964844 131.285156 74.757812 C 130.972656 74.554688 130.6875 74.320312 130.421875 74.058594 C 130.15625 73.796875 129.917969 73.515625 129.710938 73.207031 C 129.5 72.898438 129.324219 72.574219 129.183594 72.234375 C 129.039062 71.894531 128.929688 71.542969 128.855469 71.179688 C 128.785156 70.816406 128.746094 70.453125 128.746094 70.082031 C 128.746094 69.714844 128.785156 69.347656 128.855469 68.984375 C 128.929688 68.621094 129.039062 68.269531 129.183594 67.929688 C 129.324219 67.589844 129.5 67.265625 129.710938 66.957031 C 129.917969 66.648438 130.15625 66.367188 130.421875 66.105469 C 130.6875 65.84375 130.972656 65.609375 131.285156 65.40625 C 131.597656 65.199219 131.925781 65.027344 132.273438 64.886719 C 132.621094 64.742188 132.976562 64.636719 133.347656 64.566406 C 133.714844 64.492188 134.085938 64.457031 134.460938 64.457031 Z M 134.460938 64.457031 " fill-opacity="1" fill-rule="nonzero"/><path fill="#ffffff" d="M 163.214844 104.195312 C 164.890625 104.195312 166.320312 102.808594 166.320312 101.175781 C 166.320312 99.492188 164.890625 98.058594 163.214844 98.058594 C 161.539062 98.058594 160.109375 99.492188 160.109375 101.175781 C 160.109375 102.808594 161.539062 104.195312 163.214844 104.195312 Z M 163.214844 104.195312 " fill-opacity="1" fill-rule="nonzero"/><path fill="#ffffff" d="M 176.609375 103.601562 L 176.609375 90.582031 C 176.609375 85.980469 179.269531 82.167969 184.398438 82.167969 C 188.09375 82.167969 190.707031 84.148438 190.707031 89.742188 L 190.707031 103.652344 L 194.109375 103.652344 L 194.109375 89 C 194.109375 82.960938 191.296875 79.050781 185.039062 79.050781 C 181.046875 79.050781 178.136719 80.980469 176.609375 83.851562 L 176.609375 67.566406 L 173.207031 67.566406 L 173.207031 103.601562 Z M 176.609375 103.601562 " fill-opacity="1" fill-rule="nonzero"/><path fill="#ffffff" d="M 204.289062 103.652344 L 204.289062 88.800781 C 204.289062 85.136719 206.703125 82.167969 210.699219 82.167969 C 214.296875 82.167969 216.613281 84.542969 216.613281 88.601562 L 216.613281 103.652344 L 219.964844 103.652344 L 219.964844 88.851562 C 219.964844 85.136719 222.332031 82.117188 226.324219 82.117188 C 229.972656 82.117188 232.238281 84.542969 232.238281 88.652344 L 232.238281 103.652344 L 235.542969 103.652344 L 235.542969 87.960938 C 235.542969 82.414062 232.140625 79.050781 226.964844 79.050781 C 223.121094 79.050781 220.210938 81.03125 219.128906 84.148438 C 217.992188 81.03125 215.183594 79.050781 211.4375 79.050781 C 208.085938 79.050781 205.421875 80.585938 204.238281 83.109375 L 203.84375 79.691406 L 200.886719 79.691406 L 200.886719 103.652344 Z M 204.289062 103.652344 " fill-opacity="1" fill-rule="nonzero"/><g clip-path="url(#9e8e7cdea0)"><path fill="#ffffff" d="M 245.785156 103.652344 L 245.785156 91.128906 C 245.785156 85.730469 248.546875 82.167969 253.425781 82.167969 C 257.371094 82.167969 259.886719 84.148438 259.886719 89.742188 L 259.886719 103.652344 L 263.285156 103.652344 L 263.285156 89 C 263.285156 82.960938 260.574219 79.050781 254.019531 79.050781 C 250.566406 79.050781 247.414062 80.78125 245.835938 83.851562 L 245.34375 79.691406 L 242.386719 79.691406 L 242.386719 103.652344 Z M 245.785156 103.652344 " fill-opacity="1" fill-rule="nonzero"/></g></svg>