<svg xmlns="http://www.w3.org/2000/svg" xmlns:xlink="http://www.w3.org/1999/xlink" width="500" zoomAndPan="magnify" viewBox="0 0 375 374.999991" height="500" preserveAspectRatio="xMidYMid meet" version="1.0"><defs><clipPath id="c1362086c0"><path d="M 221 184 L 235.175781 184 L 235.175781 201 L 221 201 Z M 221 184 " clip-rule="nonzero"/></clipPath></defs><rect x="-37.5" width="450" fill="#ffffff" y="-37.499999" height="449.999989" fill-opacity="1"/><rect x="-37.5" width="450" fill="#ffffff" y="-37.499999" height="449.999989" fill-opacity="1"/><rect x="-37.5" width="450" fill="#ffffff" y="-37.499999" height="449.999989" fill-opacity="1"/><path fill="#4739ff" d="M 145.082031 178.941406 C 143.707031 178.039062 141.886719 179.039062 141.886719 180.699219 L 141.886719 188.328125 C 141.886719 190.703125 143.078125 192.917969 145.058594 194.203125 L 154.085938 200.070312 L 156.765625 196.953125 C 159.769531 193.453125 159.019531 188.074219 155.175781 185.554688 Z M 145.082031 178.941406 " fill-opacity="1" fill-rule="nonzero"/><path fill="#7b46ff" d="M 163.074219 178.941406 C 164.453125 178.039062 166.273438 179.039062 166.273438 180.699219 L 166.273438 188.328125 C 166.273438 190.703125 165.078125 192.917969 163.105469 194.203125 L 154.085938 200.070312 L 151.402344 196.953125 C 148.394531 193.453125 149.140625 188.074219 152.988281 185.550781 Z M 163.074219 178.941406 " fill-opacity="1" fill-rule="nonzero"/><path fill="#22f4ff" d="M 154.078125 184.835938 L 152.988281 185.550781 C 149.140625 188.074219 148.394531 193.453125 151.402344 196.953125 L 154.085938 200.070312 L 156.765625 196.953125 C 159.769531 193.453125 159.019531 188.074219 155.175781 185.554688 Z M 154.078125 184.835938 " fill-opacity="1" fill-rule="evenodd"/><path fill="#22f4ff" d="M 154.085938 175.277344 C 154.5625 175.277344 155.019531 175.367188 155.460938 175.546875 C 155.902344 175.730469 156.289062 175.984375 156.625 176.320312 C 156.964844 176.652344 157.222656 177.039062 157.40625 177.476562 C 157.585938 177.914062 157.679688 178.367188 157.679688 178.839844 C 157.679688 179.3125 157.585938 179.765625 157.40625 180.203125 C 157.222656 180.640625 156.964844 181.023438 156.625 181.359375 C 156.289062 181.691406 155.902344 181.949219 155.460938 182.128906 C 155.019531 182.3125 154.5625 182.402344 154.085938 182.402344 C 153.609375 182.402344 153.152344 182.3125 152.710938 182.128906 C 152.269531 181.949219 151.882812 181.691406 151.546875 181.359375 C 151.207031 181.023438 150.949219 180.640625 150.765625 180.203125 C 150.582031 179.765625 150.492188 179.3125 150.492188 178.839844 C 150.492188 178.367188 150.582031 177.914062 150.765625 177.476562 C 150.949219 177.039062 151.207031 176.652344 151.546875 176.320312 C 151.882812 175.984375 152.269531 175.730469 152.710938 175.546875 C 153.152344 175.367188 153.609375 175.277344 154.085938 175.277344 Z M 154.085938 175.277344 " fill-opacity="1" fill-rule="nonzero"/><path fill="#ffffff" d="M 172.164062 200.445312 C 173.21875 200.445312 174.117188 199.566406 174.117188 198.53125 C 174.117188 197.464844 173.21875 196.558594 172.164062 196.558594 C 171.113281 196.558594 170.214844 197.464844 170.214844 198.53125 C 170.214844 199.566406 171.113281 200.445312 172.164062 200.445312 Z M 172.164062 200.445312 " fill-opacity="1" fill-rule="nonzero"/><path fill="#ffffff" d="M 180.589844 200.066406 L 180.589844 191.824219 C 180.589844 188.90625 182.261719 186.492188 185.484375 186.492188 C 187.8125 186.492188 189.453125 187.746094 189.453125 191.289062 L 189.453125 200.097656 L 191.59375 200.097656 L 191.59375 190.820312 C 191.59375 186.996094 189.824219 184.519531 185.890625 184.519531 C 183.378906 184.519531 181.550781 185.742188 180.589844 187.558594 L 180.589844 177.246094 L 178.449219 177.246094 L 178.449219 200.066406 Z M 180.589844 200.066406 " fill-opacity="1" fill-rule="nonzero"/><path fill="#ffffff" d="M 197.996094 200.097656 L 197.996094 190.695312 C 197.996094 188.375 199.511719 186.492188 202.023438 186.492188 C 204.285156 186.492188 205.742188 188 205.742188 190.570312 L 205.742188 200.097656 L 207.851562 200.097656 L 207.851562 190.726562 C 207.851562 188.375 209.339844 186.460938 211.851562 186.460938 C 214.144531 186.460938 215.570312 188 215.570312 190.601562 L 215.570312 200.097656 L 217.648438 200.097656 L 217.648438 190.160156 C 217.648438 186.648438 215.507812 184.519531 212.253906 184.519531 C 209.835938 184.519531 208.007812 185.773438 207.324219 187.746094 C 206.613281 185.773438 204.84375 184.519531 202.488281 184.519531 C 200.382812 184.519531 198.707031 185.492188 197.964844 187.089844 L 197.714844 184.925781 L 195.855469 184.925781 L 195.855469 200.097656 Z M 197.996094 200.097656 " fill-opacity="1" fill-rule="nonzero"/><g clip-path="url(#c1362086c0)"><path fill="#ffffff" d="M 224.089844 200.097656 L 224.089844 192.167969 C 224.089844 188.75 225.824219 186.492188 228.894531 186.492188 C 231.371094 186.492188 232.953125 187.746094 232.953125 191.289062 L 232.953125 200.097656 L 235.09375 200.097656 L 235.09375 190.820312 C 235.09375 186.996094 233.386719 184.519531 229.265625 184.519531 C 227.09375 184.519531 225.109375 185.617188 224.117188 187.558594 L 223.808594 184.925781 L 221.949219 184.925781 L 221.949219 200.097656 Z M 224.089844 200.097656 " fill-opacity="1" fill-rule="nonzero"/></g></svg>