<svg xmlns="http://www.w3.org/2000/svg" xmlns:xlink="http://www.w3.org/1999/xlink" width="500" zoomAndPan="magnify" viewBox="0 0 375 374.999991" height="500" preserveAspectRatio="xMidYMid meet" version="1.0"><defs><clipPath id="633dd43a41"><path d="M 272 179 L 304.710938 179 L 304.710938 219 L 272 219 Z M 272 179 " clip-rule="nonzero"/></clipPath></defs><rect x="-37.5" width="450" fill="#ffffff" y="-37.499999" height="449.999989" fill-opacity="1"/><rect x="-37.5" width="450" fill="#ffffff" y="-37.499999" height="449.999989" fill-opacity="1"/><rect x="-37.5" width="450" fill="#ffffff" y="-37.499999" height="449.999989" fill-opacity="1"/><path fill="#4739ff" d="M 82.6875 166.226562 C 79.289062 164.015625 74.804688 166.464844 74.804688 170.53125 L 74.804688 189.195312 C 74.804688 195.015625 77.75 200.433594 82.621094 203.578125 L 104.871094 217.941406 L 111.476562 210.304688 C 118.878906 201.746094 117.03125 188.582031 107.554688 182.414062 Z M 82.6875 166.226562 " fill-opacity="1" fill-rule="nonzero"/><path fill="#7b46ff" d="M 127.023438 166.226562 C 130.417969 164.015625 134.90625 166.464844 134.90625 170.53125 L 134.90625 189.203125 C 134.90625 195.015625 131.964844 200.433594 127.09375 203.578125 L 104.871094 217.941406 L 98.257812 210.308594 C 90.839844 201.746094 92.6875 188.578125 102.167969 182.40625 Z M 127.023438 166.226562 " fill-opacity="1" fill-rule="nonzero"/><path fill="#22f4ff" d="M 104.855469 180.65625 L 102.167969 182.40625 C 92.6875 188.578125 90.839844 201.746094 98.257812 210.308594 L 104.871094 217.941406 L 111.476562 210.304688 C 118.878906 201.746094 117.03125 188.582031 107.554688 182.414062 Z M 104.855469 180.65625 " fill-opacity="1" fill-rule="evenodd"/><path fill="#22f4ff" d="M 104.871094 157.257812 C 105.453125 157.257812 106.027344 157.316406 106.597656 157.425781 C 107.167969 157.539062 107.722656 157.703125 108.257812 157.921875 C 108.796875 158.140625 109.304688 158.410156 109.789062 158.730469 C 110.273438 159.046875 110.71875 159.40625 111.132812 159.8125 C 111.542969 160.21875 111.910156 160.65625 112.234375 161.132812 C 112.554688 161.609375 112.828125 162.113281 113.050781 162.640625 C 113.273438 163.171875 113.441406 163.714844 113.554688 164.277344 C 113.667969 164.839844 113.726562 165.40625 113.726562 165.976562 C 113.726562 166.550781 113.667969 167.117188 113.554688 167.679688 C 113.441406 168.242188 113.273438 168.785156 113.050781 169.316406 C 112.828125 169.84375 112.554688 170.347656 112.234375 170.820312 C 111.910156 171.296875 111.542969 171.738281 111.132812 172.144531 C 110.71875 172.546875 110.273438 172.910156 109.789062 173.226562 C 109.304688 173.546875 108.796875 173.8125 108.257812 174.03125 C 107.722656 174.253906 107.167969 174.417969 106.597656 174.527344 C 106.027344 174.640625 105.453125 174.695312 104.871094 174.695312 C 104.289062 174.695312 103.714844 174.640625 103.144531 174.527344 C 102.574219 174.417969 102.019531 174.253906 101.480469 174.03125 C 100.945312 173.8125 100.433594 173.546875 99.953125 173.226562 C 99.46875 172.910156 99.019531 172.546875 98.609375 172.144531 C 98.199219 171.738281 97.832031 171.296875 97.507812 170.820312 C 97.183594 170.347656 96.914062 169.84375 96.691406 169.316406 C 96.46875 168.785156 96.300781 168.242188 96.1875 167.679688 C 96.074219 167.117188 96.015625 166.550781 96.015625 165.976562 C 96.015625 165.40625 96.074219 164.839844 96.1875 164.277344 C 96.300781 163.714844 96.46875 163.171875 96.691406 162.640625 C 96.914062 162.113281 97.183594 161.609375 97.507812 161.132812 C 97.832031 160.65625 98.199219 160.21875 98.609375 159.8125 C 99.019531 159.40625 99.46875 159.046875 99.953125 158.730469 C 100.433594 158.410156 100.945312 158.140625 101.480469 157.921875 C 102.019531 157.703125 102.574219 157.539062 103.144531 157.425781 C 103.714844 157.316406 104.289062 157.257812 104.871094 157.257812 Z M 104.871094 157.257812 " fill-opacity="1" fill-rule="nonzero"/><path fill="#ffffff" d="M 149.425781 218.855469 C 152.023438 218.855469 154.238281 216.707031 154.238281 214.171875 C 154.238281 211.566406 152.023438 209.339844 149.425781 209.339844 C 146.828125 209.339844 144.613281 211.566406 144.613281 214.171875 C 144.613281 216.707031 146.828125 218.855469 149.425781 218.855469 Z M 149.425781 218.855469 " fill-opacity="1" fill-rule="nonzero"/><path fill="#ffffff" d="M 170.183594 217.933594 L 170.183594 197.753906 C 170.183594 190.617188 174.308594 184.710938 182.253906 184.710938 C 187.980469 184.710938 192.03125 187.78125 192.03125 196.449219 L 192.03125 218.007812 L 197.300781 218.007812 L 197.300781 195.300781 C 197.300781 185.9375 192.949219 179.878906 183.246094 179.878906 C 177.058594 179.878906 172.550781 182.871094 170.183594 187.320312 L 170.183594 162.078125 L 164.914062 162.078125 L 164.914062 217.933594 Z M 170.183594 217.933594 " fill-opacity="1" fill-rule="nonzero"/><path fill="#ffffff" d="M 213.078125 218.007812 L 213.078125 194.992188 C 213.078125 189.316406 216.820312 184.710938 223.007812 184.710938 C 228.585938 184.710938 232.175781 188.394531 232.175781 194.683594 L 232.175781 218.007812 L 237.371094 218.007812 L 237.371094 195.070312 C 237.371094 189.316406 241.035156 184.632812 247.222656 184.632812 C 252.878906 184.632812 256.390625 188.394531 256.390625 194.761719 L 256.390625 218.007812 L 261.507812 218.007812 L 261.507812 193.6875 C 261.507812 185.09375 256.238281 179.878906 248.21875 179.878906 C 242.257812 179.878906 237.753906 182.945312 236.070312 187.78125 C 234.3125 182.945312 229.960938 179.878906 224.15625 179.878906 C 218.960938 179.878906 214.835938 182.253906 213 186.167969 L 212.390625 180.875 L 207.808594 180.875 L 207.808594 218.007812 Z M 213.078125 218.007812 " fill-opacity="1" fill-rule="nonzero"/><g clip-path="url(#633dd43a41)"><path fill="#ffffff" d="M 277.382812 218.007812 L 277.382812 198.597656 C 277.382812 190.234375 281.660156 184.710938 289.222656 184.710938 C 295.335938 184.710938 299.230469 187.78125 299.230469 196.449219 L 299.230469 218.007812 L 304.5 218.007812 L 304.5 195.300781 C 304.5 185.9375 300.300781 179.878906 290.140625 179.878906 C 284.792969 179.878906 279.902344 182.5625 277.460938 187.320312 L 276.695312 180.875 L 272.113281 180.875 L 272.113281 218.007812 Z M 277.382812 218.007812 " fill-opacity="1" fill-rule="nonzero"/></g></svg>