<svg xmlns="http://www.w3.org/2000/svg" xmlns:xlink="http://www.w3.org/1999/xlink" width="50" zoomAndPan="magnify" viewBox="0 0 75 44.999999" height="30" preserveAspectRatio="xMidYMid meet" version="1.0"><defs><clipPath id="f33a3a075f"><path d="M 63 20 L 73.875 20 L 73.875 33 L 63 33 Z M 63 20 " clip-rule="nonzero"/></clipPath></defs><path fill="#4739ff" d="M 5.078125 15.949219 C 4.023438 15.257812 2.632812 16.023438 2.632812 17.289062 L 2.632812 23.109375 C 2.632812 24.925781 3.546875 26.613281 5.058594 27.59375 L 11.949219 32.074219 L 13.996094 29.691406 C 16.289062 27.023438 15.71875 22.917969 12.78125 20.996094 Z M 5.078125 15.949219 " fill-opacity="1" fill-rule="nonzero"/><path fill="#7b46ff" d="M 18.8125 15.949219 C 19.867188 15.257812 21.253906 16.023438 21.253906 17.289062 L 21.253906 23.113281 C 21.253906 24.925781 20.34375 26.613281 18.835938 27.59375 L 11.949219 32.074219 L 9.902344 29.695312 C 7.605469 27.023438 8.175781 22.917969 11.113281 20.992188 Z M 18.8125 15.949219 " fill-opacity="1" fill-rule="nonzero"/><path fill="#22f4ff" d="M 11.945312 20.449219 L 11.113281 20.992188 C 8.175781 22.917969 7.605469 27.023438 9.902344 29.695312 L 11.949219 32.074219 L 13.996094 29.691406 C 16.289062 27.023438 15.71875 22.917969 12.78125 20.996094 Z M 11.945312 20.449219 " fill-opacity="1" fill-rule="evenodd"/><path fill="#22f4ff" d="M 11.949219 13.152344 C 12.3125 13.152344 12.664062 13.222656 13 13.359375 C 13.335938 13.496094 13.632812 13.691406 13.890625 13.949219 C 14.148438 14.203125 14.34375 14.496094 14.484375 14.832031 C 14.625 15.164062 14.695312 15.511719 14.695312 15.871094 C 14.695312 16.230469 14.625 16.578125 14.484375 16.910156 C 14.34375 17.246094 14.148438 17.539062 13.890625 17.792969 C 13.632812 18.046875 13.335938 18.246094 13 18.382812 C 12.664062 18.519531 12.3125 18.589844 11.949219 18.589844 C 11.585938 18.589844 11.238281 18.519531 10.902344 18.382812 C 10.5625 18.246094 10.269531 18.046875 10.011719 17.792969 C 9.753906 17.539062 9.554688 17.246094 9.414062 16.910156 C 9.277344 16.578125 9.207031 16.230469 9.207031 15.871094 C 9.207031 15.511719 9.277344 15.164062 9.414062 14.832031 C 9.554688 14.496094 9.753906 14.203125 10.011719 13.949219 C 10.269531 13.691406 10.5625 13.496094 10.902344 13.359375 C 11.238281 13.222656 11.585938 13.152344 11.949219 13.152344 Z M 11.949219 13.152344 " fill-opacity="1" fill-rule="nonzero"/><path fill="#ffffff" d="M 25.753906 32.359375 C 26.558594 32.359375 27.246094 31.6875 27.246094 30.898438 C 27.246094 30.085938 26.558594 29.390625 25.753906 29.390625 C 24.949219 29.390625 24.261719 30.085938 24.261719 30.898438 C 24.261719 31.6875 24.949219 32.359375 25.753906 32.359375 Z M 25.753906 32.359375 " fill-opacity="1" fill-rule="nonzero"/><path fill="#ffffff" d="M 32.183594 32.070312 L 32.183594 25.78125 C 32.183594 23.554688 33.464844 21.710938 35.925781 21.710938 C 37.699219 21.710938 38.953125 22.667969 38.953125 25.371094 L 38.953125 32.09375 L 40.585938 32.09375 L 40.585938 25.015625 C 40.585938 22.09375 39.238281 20.203125 36.234375 20.203125 C 34.316406 20.203125 32.917969 21.136719 32.183594 22.527344 L 32.183594 14.652344 L 30.550781 14.652344 L 30.550781 32.070312 Z M 32.183594 32.070312 " fill-opacity="1" fill-rule="nonzero"/><path fill="#ffffff" d="M 45.476562 32.09375 L 45.476562 24.917969 C 45.476562 23.148438 46.636719 21.710938 48.550781 21.710938 C 50.28125 21.710938 51.390625 22.859375 51.390625 24.824219 L 51.390625 32.09375 L 53 32.09375 L 53 24.941406 C 53 23.148438 54.136719 21.6875 56.054688 21.6875 C 57.804688 21.6875 58.894531 22.859375 58.894531 24.847656 L 58.894531 32.09375 L 60.480469 32.09375 L 60.480469 24.511719 C 60.480469 21.832031 58.847656 20.203125 56.363281 20.203125 C 54.515625 20.203125 53.121094 21.160156 52.597656 22.667969 C 52.054688 21.160156 50.707031 20.203125 48.90625 20.203125 C 47.296875 20.203125 46.019531 20.945312 45.453125 22.167969 L 45.261719 20.515625 L 43.84375 20.515625 L 43.84375 32.09375 Z M 45.476562 32.09375 " fill-opacity="1" fill-rule="nonzero"/><g clip-path="url(#f33a3a075f)"><path fill="#ffffff" d="M 65.398438 32.09375 L 65.398438 26.042969 C 65.398438 23.433594 66.722656 21.710938 69.066406 21.710938 C 70.960938 21.710938 72.167969 22.667969 72.167969 25.371094 L 72.167969 32.09375 L 73.800781 32.09375 L 73.800781 25.015625 C 73.800781 22.09375 72.5 20.203125 69.351562 20.203125 C 67.695312 20.203125 66.179688 21.042969 65.421875 22.527344 L 65.183594 20.515625 L 63.765625 20.515625 L 63.765625 32.09375 Z M 65.398438 32.09375 " fill-opacity="1" fill-rule="nonzero"/></g></svg>