<?xml version="1.0" standalone="no"?>
<!DOCTYPE svg PUBLIC "-//W3C//DTD SVG 20010904//EN"
 "http://www.w3.org/TR/2001/REC-SVG-20010904/DTD/svg10.dtd">
<svg version="1.0" xmlns="http://www.w3.org/2000/svg"
 width="700.000000pt" height="700.000000pt" viewBox="0 0 700.000000 700.000000"
 preserveAspectRatio="xMidYMid meet">
<metadata>
Created by potrace 1.14, written by Peter Selinger 2001-2017
</metadata>
<g transform="translate(0.000000,700.000000) scale(0.100000,-0.100000)"
fill="#000000" stroke="none">
<path d="M3458 5611 c-148 -48 -249 -147 -299 -293 -17 -52 -20 -80 -17 -163
3 -89 8 -108 38 -170 167 -347 652 -346 817 2 32 66 38 89 41 163 5 93 -11
167 -50 244 -27 53 -112 142 -166 173 -106 62 -252 80 -364 44z"/>
<path d="M4875 5400 c-205 -44 -370 -201 -421 -401 -13 -52 -15 -92 -10 -209
7 -171 -7 -256 -54 -330 -74 -115 -197 -153 -412 -125 -116 15 -142 15 -243
-7 -202 -43 -378 -241 -407 -458 -35 -269 140 -526 407 -595 291 -74 585 106
661 405 13 51 15 91 10 185 -10 203 21 316 110 394 81 71 181 90 367 71 106
-11 132 -11 199 3 204 41 363 187 422 387 22 72 22 217 0 290 -70 234 -261
386 -499 395 -49 2 -108 0 -130 -5z"/>
<path d="M2160 4423 c-263 -44 -482 -205 -595 -438 -60 -122 -79 -204 -79
-345 0 -139 18 -219 79 -345 158 -327 511 -499 875 -426 358 72 580 3 681
-213 47 -101 59 -178 59 -397 0 -162 3 -209 20 -274 51 -199 175 -367 350
-477 308 -192 711 -146 970 112 156 155 229 334 230 561 0 199 -71 383 -200
522 -84 90 -139 132 -238 181 -153 77 -341 99 -537 63 -103 -19 -269 -22 -347
-6 -168 35 -287 150 -343 329 -13 41 -19 115 -25 285 -9 246 -17 295 -71 413
-80 178 -248 336 -431 408 -112 44 -291 65 -398 47z"/>
<path d="M5023 3877 c-106 -39 -183 -147 -183 -257 0 -116 56 -207 157 -256
141 -69 310 -8 377 136 25 55 27 167 4 221 -24 55 -87 119 -143 145 -56 27
-156 31 -212 11z"/>
</g>
</svg>
