<svg width="859" height="1717" viewBox="0 0 859 1717" fill="none" xmlns="http://www.w3.org/2000/svg">
<g opacity="0.35" filter="url(#filter0_f)">
<ellipse rx="298.68" ry="309.828" transform="matrix(-0.591447 0.806344 0.51822 0.855247 120.212 858.818)" fill="#441ECE"/>
</g>
<mask id="mask0" mask-type="alpha" maskUnits="userSpaceOnUse" x="-55" y="507" width="336" height="335">
<rect width="335" height="335" transform="matrix(-1 0 0 1 280.423 507)" fill="url(#paint0_radial)"/>
</mask>
<g mask="url(#mask0)">
<circle r="3.71706" transform="matrix(-1 0 0 1 276.706 510.717)" fill="#441ECE"/>
<circle opacity="0.8" r="3.71706" transform="matrix(-1 0 0 1 246.97 510.717)" fill="#441ECE"/>
<circle r="3.71706" transform="matrix(-1 0 0 1 217.234 510.717)" fill="#441ECE"/>
<circle opacity="0.4" r="3.71706" transform="matrix(-1 0 0 1 187.498 510.717)" fill="#441ECE"/>
<circle r="3.71706" transform="matrix(-1 0 0 1 157.759 510.717)" fill="#441ECE"/>
<circle r="3.71706" transform="matrix(-1 0 0 1 128.023 510.717)" fill="#441ECE"/>
<circle opacity="0.6" r="3.71706" transform="matrix(-1 0 0 1 98.287 510.717)" fill="#441ECE"/>
<circle opacity="0.4" r="3.71706" transform="matrix(-1 0 0 1 68.551 510.717)" fill="#441ECE"/>
<circle opacity="0.6" r="3.71706" transform="matrix(-1 0 0 1 38.815 510.717)" fill="#441ECE"/>
<circle r="3.71706" transform="matrix(-1 0 0 1 9.07897 510.717)" fill="#441ECE"/>
<circle r="3.71706" transform="matrix(-1 0 0 1 276.706 540.453)" fill="#441ECE"/>
<circle opacity="0.6" r="3.71706" transform="matrix(-1 0 0 1 246.97 540.453)" fill="#441ECE"/>
<circle r="3.71706" transform="matrix(-1 0 0 1 217.234 540.453)" fill="#441ECE"/>
<circle r="3.71706" transform="matrix(-1 0 0 1 187.498 540.453)" fill="#441ECE"/>
<circle opacity="0.6" r="3.71706" transform="matrix(-1 0 0 1 157.759 540.453)" fill="#441ECE"/>
<circle opacity="0.4" r="3.71706" transform="matrix(-1 0 0 1 128.023 540.453)" fill="#441ECE"/>
<circle r="3.71706" transform="matrix(-1 0 0 1 98.287 540.453)" fill="#441ECE"/>
<circle opacity="0.4" r="3.71706" transform="matrix(-1 0 0 1 68.551 540.453)" fill="#441ECE"/>
<circle r="3.71706" transform="matrix(-1 0 0 1 38.815 540.453)" fill="#441ECE"/>
<circle r="3.71706" transform="matrix(-1 0 0 1 9.07897 540.453)" fill="#441ECE"/>
<circle r="3.71706" transform="matrix(-1 0 0 1 276.706 570.19)" fill="#441ECE"/>
<circle r="3.71706" transform="matrix(-1 0 0 1 246.97 570.19)" fill="#441ECE"/>
<circle r="3.71706" transform="matrix(-1 0 0 1 217.234 570.19)" fill="#441ECE"/>
<circle r="3.71706" transform="matrix(-1 0 0 1 187.498 570.19)" fill="#441ECE"/>
<circle opacity="0.6" r="3.71706" transform="matrix(-1 0 0 1 157.759 570.19)" fill="#441ECE"/>
<circle r="3.71706" transform="matrix(-1 0 0 1 128.023 570.19)" fill="#441ECE"/>
<circle opacity="0.8" r="3.71706" transform="matrix(-1 0 0 1 98.287 570.19)" fill="#441ECE"/>
<circle r="3.71706" transform="matrix(-1 0 0 1 68.551 570.19)" fill="#441ECE"/>
<circle opacity="0.4" r="3.71706" transform="matrix(-1 0 0 1 38.815 570.19)" fill="#441ECE"/>
<circle opacity="0.6" r="3.71706" transform="matrix(-1 0 0 1 9.07897 570.19)" fill="#441ECE"/>
<circle opacity="0.6" r="3.71706" transform="matrix(-1 0 0 1 276.706 599.926)" fill="#441ECE"/>
<circle opacity="0.8" r="3.71706" transform="matrix(-1 0 0 1 246.97 599.926)" fill="#441ECE"/>
<circle opacity="0.6" r="3.71706" transform="matrix(-1 0 0 1 217.234 599.926)" fill="#441ECE"/>
<circle r="3.71706" transform="matrix(-1 0 0 1 187.498 599.926)" fill="#441ECE"/>
<circle r="3.71706" transform="matrix(-1 0 0 1 157.759 599.926)" fill="#441ECE"/>
<circle r="3.71706" transform="matrix(-1 0 0 1 128.023 599.926)" fill="#441ECE"/>
<circle opacity="0.4" r="3.71706" transform="matrix(-1 0 0 1 98.287 599.926)" fill="#441ECE"/>
<circle opacity="0.4" r="3.71706" transform="matrix(-1 0 0 1 68.551 599.926)" fill="#441ECE"/>
<circle opacity="0.6" r="3.71706" transform="matrix(-1 0 0 1 38.815 599.926)" fill="#441ECE"/>
<circle opacity="0.6" r="3.71706" transform="matrix(-1 0 0 1 9.07897 599.926)" fill="#441ECE"/>
<circle r="3.71706" transform="matrix(-1 0 0 1 276.706 629.662)" fill="#441ECE"/>
<circle r="3.71706" transform="matrix(-1 0 0 1 246.97 629.662)" fill="#441ECE"/>
<circle r="3.71706" transform="matrix(-1 0 0 1 217.234 629.662)" fill="#441ECE"/>
<circle opacity="0.6" r="3.71706" transform="matrix(-1 0 0 1 187.498 629.662)" fill="#441ECE"/>
<circle opacity="0.6" r="3.71706" transform="matrix(-1 0 0 1 157.759 629.662)" fill="#441ECE"/>
<circle opacity="0.4" r="3.71706" transform="matrix(-1 0 0 1 128.023 629.662)" fill="#441ECE"/>
<circle opacity="0.8" r="3.71706" transform="matrix(-1 0 0 1 98.287 629.662)" fill="#441ECE"/>
<circle r="3.71706" transform="matrix(-1 0 0 1 68.551 629.662)" fill="#441ECE"/>
<circle opacity="0.4" r="3.71706" transform="matrix(-1 0 0 1 38.815 629.662)" fill="#441ECE"/>
<circle r="3.71706" transform="matrix(-1 0 0 1 9.07897 629.662)" fill="#441ECE"/>
<circle opacity="0.6" r="3.71706" transform="matrix(-1 0 0 1 276.706 659.4)" fill="#441ECE"/>
<circle opacity="0.6" r="3.71706" transform="matrix(-1 0 0 1 246.97 659.4)" fill="#441ECE"/>
<circle opacity="0.6" r="3.71706" transform="matrix(-1 0 0 1 217.234 659.4)" fill="#441ECE"/>
<circle opacity="0.6" r="3.71706" transform="matrix(-1 0 0 1 187.498 659.4)" fill="#441ECE"/>
<circle r="3.71706" transform="matrix(-1 0 0 1 157.759 659.4)" fill="#441ECE"/>
<circle opacity="0.6" r="3.71706" transform="matrix(-1 0 0 1 128.023 659.4)" fill="#441ECE"/>
<circle r="3.71706" transform="matrix(-1 0 0 1 98.287 659.4)" fill="#441ECE"/>
<circle r="3.71706" transform="matrix(-1 0 0 1 68.551 659.4)" fill="#441ECE"/>
<circle opacity="0.4" r="3.71706" transform="matrix(-1 0 0 1 38.815 659.4)" fill="#441ECE"/>
<circle opacity="0.4" r="3.71706" transform="matrix(-1 0 0 1 9.07897 659.4)" fill="#441ECE"/>
<circle opacity="0.6" r="3.71706" transform="matrix(-1 0 0 1 276.706 689.136)" fill="#441ECE"/>
<circle r="3.71706" transform="matrix(-1 0 0 1 246.97 689.136)" fill="#441ECE"/>
<circle opacity="0.8" r="3.71706" transform="matrix(-1 0 0 1 217.234 689.136)" fill="#441ECE"/>
<circle opacity="0.8" r="3.71706" transform="matrix(-1 0 0 1 187.498 689.136)" fill="#441ECE"/>
<circle opacity="0.4" r="3.71706" transform="matrix(-1 0 0 1 157.759 689.136)" fill="#441ECE"/>
<circle r="3.71706" transform="matrix(-1 0 0 1 128.023 689.136)" fill="#441ECE"/>
<circle r="3.71706" transform="matrix(-1 0 0 1 98.287 689.136)" fill="#441ECE"/>
<circle opacity="0.8" r="3.71706" transform="matrix(-1 0 0 1 68.551 689.136)" fill="#441ECE"/>
<circle r="3.71706" transform="matrix(-1 0 0 1 38.815 689.136)" fill="#441ECE"/>
<circle r="3.71706" transform="matrix(-1 0 0 1 9.07897 689.136)" fill="#441ECE"/>
<circle opacity="0.6" r="3.71706" transform="matrix(-1 0 0 1 276.706 718.872)" fill="#441ECE"/>
<circle opacity="0.8" r="3.71706" transform="matrix(-1 0 0 1 246.97 718.872)" fill="#441ECE"/>
<circle opacity="0.8" r="3.71706" transform="matrix(-1 0 0 1 217.234 718.872)" fill="#441ECE"/>
<circle r="3.71706" transform="matrix(-1 0 0 1 187.498 718.872)" fill="#441ECE"/>
<circle r="3.71706" transform="matrix(-1 0 0 1 157.759 718.872)" fill="#441ECE"/>
<circle opacity="0.8" r="3.71706" transform="matrix(-1 0 0 1 128.023 718.872)" fill="#441ECE"/>
<circle opacity="0.4" r="3.71706" transform="matrix(-1 0 0 1 98.287 718.872)" fill="#441ECE"/>
<circle opacity="0.4" r="3.71706" transform="matrix(-1 0 0 1 68.551 718.872)" fill="#441ECE"/>
<circle r="3.71706" transform="matrix(-1 0 0 1 38.815 718.872)" fill="#441ECE"/>
<circle opacity="0.4" r="3.71706" transform="matrix(-1 0 0 1 9.07897 718.872)" fill="#441ECE"/>
<circle r="3.71706" transform="matrix(-1 0 0 1 276.706 748.609)" fill="#441ECE"/>
<circle r="3.71706" transform="matrix(-1 0 0 1 246.97 748.609)" fill="#441ECE"/>
<circle r="3.71706" transform="matrix(-1 0 0 1 217.234 748.609)" fill="#441ECE"/>
<circle opacity="0.4" r="3.71706" transform="matrix(-1 0 0 1 187.498 748.609)" fill="#441ECE"/>
<circle r="3.71706" transform="matrix(-1 0 0 1 157.759 748.609)" fill="#441ECE"/>
<circle opacity="0.4" r="3.71706" transform="matrix(-1 0 0 1 128.023 748.609)" fill="#441ECE"/>
<circle r="3.71706" transform="matrix(-1 0 0 1 98.287 748.609)" fill="#441ECE"/>
<circle r="3.71706" transform="matrix(-1 0 0 1 68.551 748.609)" fill="#441ECE"/>
<circle r="3.71706" transform="matrix(-1 0 0 1 38.815 748.609)" fill="#441ECE"/>
<circle r="3.71706" transform="matrix(-1 0 0 1 9.07897 748.609)" fill="#441ECE"/>
<circle opacity="0.6" r="3.71706" transform="matrix(-1 0 0 1 276.706 778.345)" fill="#441ECE"/>
<circle opacity="0.8" r="3.71706" transform="matrix(-1 0 0 1 246.97 778.345)" fill="#441ECE"/>
<circle opacity="0.4" r="3.71706" transform="matrix(-1 0 0 1 217.234 778.345)" fill="#441ECE"/>
<circle opacity="0.4" r="3.71706" transform="matrix(-1 0 0 1 187.498 778.345)" fill="#441ECE"/>
<circle r="3.71706" transform="matrix(-1 0 0 1 157.759 778.345)" fill="#441ECE"/>
<circle r="3.71706" transform="matrix(-1 0 0 1 128.023 778.345)" fill="#441ECE"/>
<circle opacity="0.6" r="3.71706" transform="matrix(-1 0 0 1 98.287 778.345)" fill="#441ECE"/>
<circle opacity="0.4" r="3.71706" transform="matrix(-1 0 0 1 68.551 778.345)" fill="#441ECE"/>
<circle r="3.71706" transform="matrix(-1 0 0 1 38.815 778.345)" fill="#441ECE"/>
<circle r="3.71706" transform="matrix(-1 0 0 1 9.07897 778.345)" fill="#441ECE"/>
<circle opacity="0.6" r="3.71706" transform="matrix(-1 0 0 1 276.706 808.081)" fill="#441ECE"/>
<circle r="3.71706" transform="matrix(-1 0 0 1 246.97 808.081)" fill="#441ECE"/>
<circle opacity="0.6" r="3.71706" transform="matrix(-1 0 0 1 217.234 808.081)" fill="#441ECE"/>
<circle opacity="0.8" r="3.71706" transform="matrix(-1 0 0 1 187.498 808.081)" fill="#441ECE"/>
<circle opacity="0.6" r="3.71706" transform="matrix(-1 0 0 1 157.759 808.081)" fill="#441ECE"/>
<circle r="3.71706" transform="matrix(-1 0 0 1 128.023 808.081)" fill="#441ECE"/>
<circle opacity="0.6" r="3.71706" transform="matrix(-1 0 0 1 98.287 808.081)" fill="#441ECE"/>
<circle opacity="0.6" r="3.71706" transform="matrix(-1 0 0 1 68.551 808.081)" fill="#441ECE"/>
<circle opacity="0.8" r="3.71706" transform="matrix(-1 0 0 1 38.815 808.081)" fill="#441ECE"/>
<circle opacity="0.4" r="3.71706" transform="matrix(-1 0 0 1 9.07897 808.081)" fill="#441ECE"/>
<circle opacity="0.4" r="3.71706" transform="matrix(-1 0 0 1 276.706 837.817)" fill="#441ECE"/>
<circle r="3.71706" transform="matrix(-1 0 0 1 246.97 837.817)" fill="#441ECE"/>
<circle opacity="0.4" r="3.71706" transform="matrix(-1 0 0 1 217.234 837.817)" fill="#441ECE"/>
<circle r="3.71706" transform="matrix(-1 0 0 1 187.498 837.817)" fill="#441ECE"/>
<circle r="3.71706" transform="matrix(-1 0 0 1 157.759 837.817)" fill="#441ECE"/>
<circle opacity="0.6" r="3.71706" transform="matrix(-1 0 0 1 128.023 837.817)" fill="#441ECE"/>
<circle r="3.71706" transform="matrix(-1 0 0 1 98.287 837.817)" fill="#441ECE"/>
<circle r="3.71706" transform="matrix(-1 0 0 1 68.551 837.817)" fill="#441ECE"/>
<circle opacity="0.6" r="3.71706" transform="matrix(-1 0 0 1 38.815 837.817)" fill="#441ECE"/>
<circle r="3.71706" transform="matrix(-1 0 0 1 9.07897 837.817)" fill="#441ECE"/>
</g>
<defs>
<filter id="filter0_f" x="-618.506" y="0.741089" width="1477.44" height="1716.15" filterUnits="userSpaceOnUse" color-interpolation-filters="sRGB">
<feFlood flood-opacity="0" result="BackgroundImageFix"/>
<feBlend mode="normal" in="SourceGraphic" in2="BackgroundImageFix" result="shape"/>
<feGaussianBlur stdDeviation="250" result="effect1_foregroundBlur"/>
</filter>
<radialGradient id="paint0_radial" cx="0" cy="0" r="1" gradientUnits="userSpaceOnUse" gradientTransform="translate(167.5 167.5) rotate(90) scale(167.733)">
<stop stop-color="white"/>
<stop offset="0.244792" stop-color="white" stop-opacity="0.5"/>
<stop offset="1" stop-color="white" stop-opacity="0"/>
</radialGradient>
</defs>
</svg>
