<svg width="325" height="325" viewBox="0 0 325 325" fill="none" xmlns="http://www.w3.org/2000/svg">
<circle cx="162.5" cy="162.5" r="162.5" fill="url(#paint0_linear)"/>
<circle cx="162.5" cy="162.5" r="138.125" fill="url(#paint1_linear)"/>
<circle cx="162.5" cy="162.5" r="138.125" fill="url(#paint2_linear)"/>
<path d="M198.403 86.9801C195.842 88.2049 193.312 89.6767 190.774 91.1998C190.244 91.518 189.713 91.8385 189.182 92.1594C187.173 93.3727 185.154 94.592 183.114 95.7145C177.955 98.553 172.622 100.796 166.855 100.796H159.101C153.334 100.796 148.001 98.553 142.842 95.7145C140.802 94.592 138.783 93.3728 136.774 92.1594C136.243 91.8385 135.712 91.518 135.182 91.1998C132.644 89.6767 130.114 88.2049 127.553 86.98C124.425 85.4844 120.922 84.6468 117.223 84.6468C103.983 84.6468 93.25 95.3799 93.25 108.62C93.25 121.86 103.983 132.593 117.223 132.593C120.922 132.593 124.425 131.755 127.553 130.26C130.114 129.035 132.644 127.563 135.182 126.04C135.712 125.722 136.243 125.401 136.774 125.08C138.783 123.867 140.802 122.648 142.842 121.525C148.001 118.687 153.334 116.444 159.101 116.444H166.855C172.622 116.444 177.955 118.687 183.114 121.525C185.154 122.648 187.173 123.867 189.182 125.08C189.713 125.401 190.244 125.722 190.774 126.04C193.312 127.563 195.842 129.035 198.403 130.26C201.531 131.755 205.034 132.593 208.733 132.593C221.973 132.593 232.706 121.86 232.706 108.62C232.706 95.3799 221.973 84.6468 208.733 84.6468C205.034 84.6468 201.531 85.4844 198.403 86.9801Z" fill="url(#paint3_linear)" stroke="url(#paint4_linear)" stroke-width="0.5"/>
<g filter="url(#filter0_d)">
<path d="M162.428 225.791C149.132 225.791 137.56 236.619 124.933 240.782C122.536 241.572 119.975 242 117.313 242C103.886 242 93.0003 231.115 93.0003 217.687C93.0003 204.259 103.886 193.374 117.313 193.374C119.975 193.374 122.536 193.801 124.933 194.592C137.56 198.755 149.132 209.582 162.428 209.582C166.904 209.582 170.532 213.211 170.532 217.687C170.532 222.163 166.904 225.791 162.428 225.791Z" fill="url(#paint5_linear)"/>
<path d="M124.855 240.545C129.64 238.967 134.268 236.43 138.92 233.88C140.38 233.079 141.843 232.278 143.313 231.504C149.451 228.275 155.715 225.541 162.428 225.541C166.766 225.541 170.282 222.025 170.282 217.687C170.282 213.349 166.766 209.832 162.428 209.832C155.715 209.832 149.451 207.099 143.313 203.869C141.843 203.096 140.38 202.294 138.92 201.494C134.268 198.944 129.64 196.407 124.855 194.829C122.483 194.047 119.948 193.624 117.313 193.624C104.024 193.624 93.2503 204.397 93.2503 217.687C93.2503 230.977 104.024 241.75 117.313 241.75C119.948 241.75 122.483 241.327 124.855 240.545Z" stroke="url(#paint6_linear)" stroke-width="0.5"/>
</g>
<g filter="url(#filter1_d)">
<circle r="24.3132" transform="matrix(-1 0 0 1 208.686 217.686)" fill="url(#paint7_linear)"/>
<circle r="24.0632" transform="matrix(-1 0 0 1 208.686 217.686)" stroke="url(#paint8_linear)" stroke-width="0.5"/>
</g>
<defs>
<filter id="filter0_d" x="81.4802" y="181.854" width="100.572" height="71.6666" filterUnits="userSpaceOnUse" color-interpolation-filters="sRGB">
<feFlood flood-opacity="0" result="BackgroundImageFix"/>
<feColorMatrix in="SourceAlpha" type="matrix" values="0 0 0 0 0 0 0 0 0 0 0 0 0 0 0 0 0 0 127 0"/>
<feOffset/>
<feGaussianBlur stdDeviation="5.76007"/>
<feColorMatrix type="matrix" values="0 0 0 0 0.960784 0 0 0 0 0.443137 0 0 0 0 0.254902 0 0 0 0.3 0"/>
<feBlend mode="normal" in2="BackgroundImageFix" result="effect1_dropShadow"/>
<feBlend mode="normal" in="SourceGraphic" in2="effect1_dropShadow" result="shape"/>
</filter>
<filter id="filter1_d" x="172.853" y="181.853" width="71.6666" height="71.6666" filterUnits="userSpaceOnUse" color-interpolation-filters="sRGB">
<feFlood flood-opacity="0" result="BackgroundImageFix"/>
<feColorMatrix in="SourceAlpha" type="matrix" values="0 0 0 0 0 0 0 0 0 0 0 0 0 0 0 0 0 0 127 0"/>
<feOffset/>
<feGaussianBlur stdDeviation="5.76007"/>
<feColorMatrix type="matrix" values="0 0 0 0 0.960784 0 0 0 0 0.443137 0 0 0 0 0.254902 0 0 0 0.3 0"/>
<feBlend mode="normal" in2="BackgroundImageFix" result="effect1_dropShadow"/>
<feBlend mode="normal" in="SourceGraphic" in2="effect1_dropShadow" result="shape"/>
</filter>
<linearGradient id="paint0_linear" x1="162.5" y1="162.5" x2="162.5" y2="505.917" gradientUnits="userSpaceOnUse">
<stop stop-color="#8D01D3" stop-opacity="0"/>
<stop offset="1" stop-color="#8D01D3"/>
</linearGradient>
<linearGradient id="paint1_linear" x1="162.5" y1="162.5" x2="162.5" y2="454.404" gradientUnits="userSpaceOnUse">
<stop stop-color="#CC67FF" stop-opacity="0.08"/>
<stop offset="1" stop-color="#B726FF" stop-opacity="0.4"/>
</linearGradient>
<linearGradient id="paint2_linear" x1="162.5" y1="162.5" x2="162.5" y2="300.625" gradientUnits="userSpaceOnUse">
<stop stop-color="#12132F" stop-opacity="0"/>
<stop offset="1" stop-color="#8D01D3" stop-opacity="0.4"/>
</linearGradient>
<linearGradient id="paint3_linear" x1="232.848" y1="91.2758" x2="163.563" y2="44.8244" gradientUnits="userSpaceOnUse">
<stop stop-color="#6D45FF"/>
<stop offset="1" stop-color="#441ECE"/>
</linearGradient>
<linearGradient id="paint4_linear" x1="102.323" y1="125.72" x2="149.873" y2="170.569" gradientUnits="userSpaceOnUse">
<stop stop-color="white"/>
<stop offset="1" stop-color="white" stop-opacity="0"/>
</linearGradient>
<linearGradient id="paint5_linear" x1="151.27" y1="202.894" x2="106.627" y2="238.764" gradientUnits="userSpaceOnUse">
<stop stop-color="#FC8234"/>
<stop offset="1" stop-color="#F93C4C"/>
</linearGradient>
<linearGradient id="paint6_linear" x1="103.618" y1="236.303" x2="140.929" y2="246.775" gradientUnits="userSpaceOnUse">
<stop stop-color="white"/>
<stop offset="1" stop-color="white" stop-opacity="0"/>
</linearGradient>
<linearGradient id="paint7_linear" x1="5.07281" y1="4.34128" x2="39.2578" y2="41.375" gradientUnits="userSpaceOnUse">
<stop stop-color="#FC8234"/>
<stop offset="1" stop-color="#F93C4C"/>
</linearGradient>
<linearGradient id="paint8_linear" x1="44.9553" y1="44.2237" x2="3.65674" y2="42.3529" gradientUnits="userSpaceOnUse">
<stop stop-color="white"/>
<stop offset="1" stop-color="white" stop-opacity="0"/>
</linearGradient>
</defs>
</svg>
