<svg width="600" height="600" viewBox="0 0 600 600" fill="none" xmlns="http://www.w3.org/2000/svg">
<circle cx="300" cy="300" r="300" fill="url(#paint0_linear)"/>
<circle cx="300" cy="300" r="255" fill="url(#paint1_linear)"/>
<circle cx="300" cy="300" r="255" fill="url(#paint2_linear)"/>
<path d="M311.629 334.622L311.625 334.623C307.788 336.006 303.649 336.759 299.334 336.76C293.74 336.76 288.441 335.493 283.71 333.23C279.033 330.994 274.43 328.214 269.797 325.415L269.763 325.395C259.102 318.957 248.277 312.419 236.212 312.419L224.526 312.419C212.461 312.419 201.636 318.957 190.975 325.395L190.942 325.415C186.309 328.214 181.705 330.994 177.028 333.23C172.297 335.493 166.999 336.76 161.404 336.76C141.377 336.76 125.143 320.525 125.143 300.498C125.143 280.472 141.377 264.237 161.404 264.237C166.999 264.237 172.297 265.504 177.028 267.767C181.705 270.003 186.309 272.783 190.942 275.581L190.975 275.602C201.636 282.04 212.461 288.578 224.526 288.578L236.212 288.578C248.277 288.578 259.103 282.04 269.763 275.601L269.797 275.581C274.43 272.783 279.033 270.003 283.71 267.767C284.966 267.166 286.262 266.636 287.592 266.181L287.596 266.179C291.434 264.797 295.572 264.043 299.887 264.043C305.482 264.043 310.781 265.31 315.512 267.573C320.188 269.809 324.792 272.589 329.425 275.387L329.458 275.407C340.119 281.846 350.945 288.384 363.009 288.384H374.696C386.76 288.384 397.586 281.846 408.247 275.407L408.28 275.387C412.913 272.589 417.517 269.809 422.194 267.573C426.925 265.31 432.223 264.043 437.818 264.043C457.844 264.043 474.079 280.278 474.079 300.304C474.079 320.331 457.844 336.565 437.818 336.565C432.223 336.565 426.925 335.298 422.194 333.036C417.517 330.8 412.913 328.019 408.28 325.221L408.247 325.201C397.586 318.763 386.761 312.225 374.696 312.225L363.009 312.225C350.945 312.225 340.119 318.763 329.459 325.201L329.425 325.221C324.792 328.019 320.188 330.8 315.512 333.036C314.256 333.637 312.96 334.167 311.629 334.622Z" fill="url(#paint3_linear)" stroke="url(#paint4_linear)" stroke-width="0.5"/>
<g filter="url(#filter0_d)">
<path d="M292.362 236.139C272.828 236.139 256.144 251.328 238.522 259.755C233.109 262.343 227.048 263.792 220.648 263.792C197.74 263.792 179.168 245.221 179.168 222.312C179.168 199.403 197.74 180.832 220.648 180.832C227.048 180.832 233.109 182.281 238.522 184.869C256.144 193.296 272.828 208.485 292.362 208.485H305.638C325.172 208.485 341.856 193.296 359.478 184.869C364.891 182.281 370.952 180.832 377.352 180.832C400.261 180.832 418.832 199.403 418.832 222.312C418.832 245.221 400.261 263.792 377.352 263.792C370.952 263.792 364.891 262.343 359.478 259.755C341.856 251.328 325.172 236.139 305.639 236.139H292.362Z" fill="url(#paint5_linear)"/>
<path d="M292.362 235.889C282.531 235.889 273.431 239.711 264.604 244.568C261.115 246.488 257.662 248.573 254.222 250.651C253.311 251.201 252.402 251.75 251.493 252.295C247.146 254.904 242.808 257.428 238.414 259.529C233.034 262.102 227.01 263.542 220.648 263.542C197.878 263.542 179.418 245.083 179.418 222.312C179.418 199.541 197.878 181.082 220.648 181.082C227.01 181.082 233.034 182.522 238.414 185.095C242.808 187.196 247.146 189.72 251.493 192.329C252.402 192.874 253.311 193.424 254.222 193.973C257.662 196.051 261.115 198.136 264.604 200.056C273.431 204.913 282.531 208.735 292.362 208.735H305.638C315.469 208.735 324.569 204.913 333.396 200.056C336.885 198.136 340.338 196.051 343.778 193.973C344.689 193.424 345.598 192.874 346.507 192.329C350.854 189.72 355.192 187.196 359.586 185.095C364.966 182.522 370.99 181.082 377.352 181.082C400.122 181.082 418.582 199.541 418.582 222.312C418.582 245.083 400.122 263.542 377.352 263.542C370.99 263.542 364.966 262.102 359.586 259.529C355.192 257.428 350.854 254.904 346.507 252.295C345.598 251.75 344.689 251.201 343.779 250.651C340.339 248.573 336.886 246.488 333.396 244.568C324.569 239.711 315.469 235.889 305.639 235.889H292.362Z" stroke="url(#paint6_linear)" stroke-width="0.5"/>
</g>
<g filter="url(#filter1_d)">
<path d="M293.63 391.783C274.097 391.783 257.412 406.972 239.79 415.399C234.378 417.987 228.317 419.436 221.917 419.436C199.008 419.436 180.437 400.865 180.437 377.956C180.437 355.047 199.008 336.476 221.917 336.476C228.317 336.476 234.378 337.925 239.79 340.513C257.412 348.94 274.097 364.129 293.63 364.129H306.907C326.441 364.129 343.125 348.94 360.747 340.513C366.159 337.925 372.221 336.476 378.62 336.476C401.529 336.476 420.1 355.047 420.1 377.956C420.1 400.865 401.529 419.436 378.62 419.436C372.221 419.436 366.159 417.987 360.747 415.399C343.125 406.972 326.441 391.783 306.907 391.783H293.63Z" fill="url(#paint7_linear)"/>
<path d="M293.63 391.533C283.799 391.533 274.699 395.355 265.873 400.211C262.383 402.132 258.93 404.217 255.49 406.295C254.58 406.844 253.67 407.394 252.762 407.939C248.415 410.548 244.077 413.072 239.682 415.173C234.303 417.746 228.279 419.186 221.917 419.186C199.146 419.186 180.687 400.727 180.687 377.956C180.687 355.185 199.146 336.726 221.917 336.726C228.279 336.726 234.303 338.166 239.682 340.739C244.077 342.84 248.415 345.364 252.762 347.973C253.671 348.518 254.58 349.067 255.49 349.617C258.93 351.695 262.383 353.78 265.873 355.7C274.699 360.557 283.799 364.379 293.63 364.379H306.907C316.738 364.379 325.838 360.557 334.664 355.7C338.154 353.78 341.607 351.695 345.047 349.617C345.957 349.067 346.867 348.518 347.776 347.973C352.122 345.364 356.461 342.84 360.855 340.739C366.234 338.166 372.259 336.726 378.62 336.726C401.391 336.726 419.85 355.185 419.85 377.956C419.85 400.727 401.391 419.186 378.62 419.186C372.259 419.186 366.234 417.746 360.855 415.173C356.461 413.072 352.122 410.548 347.776 407.939C346.867 407.394 345.958 406.845 345.047 406.295C341.607 404.217 338.154 402.132 334.664 400.211C325.838 395.355 316.738 391.533 306.907 391.533H293.63Z" stroke="url(#paint8_linear)" stroke-width="0.5"/>
</g>
<g filter="url(#filter2_d)">
<circle cx="299.708" cy="138.55" r="37.9271" transform="rotate(-135 299.708 138.55)" fill="url(#paint9_linear)"/>
<circle cx="299.708" cy="138.55" r="37.6771" transform="rotate(-135 299.708 138.55)" stroke="url(#paint10_linear)" stroke-width="0.5"/>
</g>
<g filter="url(#filter3_d)">
<circle cx="299.708" cy="461.699" r="37.9271" transform="rotate(-135 299.708 461.699)" fill="url(#paint11_linear)"/>
<circle cx="299.708" cy="461.699" r="37.6771" transform="rotate(-135 299.708 461.699)" stroke="url(#paint12_linear)" stroke-width="0.5"/>
</g>
<defs>
<filter id="filter0_d" x="162.332" y="163.995" width="273.336" height="116.633" filterUnits="userSpaceOnUse" color-interpolation-filters="sRGB">
<feFlood flood-opacity="0" result="BackgroundImageFix"/>
<feColorMatrix in="SourceAlpha" type="matrix" values="0 0 0 0 0 0 0 0 0 0 0 0 0 0 0 0 0 0 127 0"/>
<feOffset/>
<feGaussianBlur stdDeviation="8.41817"/>
<feColorMatrix type="matrix" values="0 0 0 0 0.278431 0 0 0 0 0.109804 0 0 0 0 0.807843 0 0 0 0.4 0"/>
<feBlend mode="normal" in2="BackgroundImageFix" result="effect1_dropShadow"/>
<feBlend mode="normal" in="SourceGraphic" in2="effect1_dropShadow" result="shape"/>
</filter>
<filter id="filter1_d" x="163.601" y="319.639" width="273.336" height="116.633" filterUnits="userSpaceOnUse" color-interpolation-filters="sRGB">
<feFlood flood-opacity="0" result="BackgroundImageFix"/>
<feColorMatrix in="SourceAlpha" type="matrix" values="0 0 0 0 0 0 0 0 0 0 0 0 0 0 0 0 0 0 127 0"/>
<feOffset/>
<feGaussianBlur stdDeviation="8.41817"/>
<feColorMatrix type="matrix" values="0 0 0 0 0.278431 0 0 0 0 0.109804 0 0 0 0 0.807843 0 0 0 0.4 0"/>
<feBlend mode="normal" in2="BackgroundImageFix" result="effect1_dropShadow"/>
<feBlend mode="normal" in="SourceGraphic" in2="effect1_dropShadow" result="shape"/>
</filter>
<filter id="filter2_d" x="203.98" y="42.8223" width="191.456" height="191.456" filterUnits="userSpaceOnUse" color-interpolation-filters="sRGB">
<feFlood flood-opacity="0" result="BackgroundImageFix"/>
<feColorMatrix in="SourceAlpha" type="matrix" values="0 0 0 0 0 0 0 0 0 0 0 0 0 0 0 0 0 0 127 0"/>
<feOffset/>
<feGaussianBlur stdDeviation="21.0454"/>
<feColorMatrix type="matrix" values="0 0 0 0 0.960784 0 0 0 0 0.443137 0 0 0 0 0.254902 0 0 0 0.3 0"/>
<feBlend mode="normal" in2="BackgroundImageFix" result="effect1_dropShadow"/>
<feBlend mode="normal" in="SourceGraphic" in2="effect1_dropShadow" result="shape"/>
</filter>
<filter id="filter3_d" x="203.98" y="365.971" width="191.456" height="191.456" filterUnits="userSpaceOnUse" color-interpolation-filters="sRGB">
<feFlood flood-opacity="0" result="BackgroundImageFix"/>
<feColorMatrix in="SourceAlpha" type="matrix" values="0 0 0 0 0 0 0 0 0 0 0 0 0 0 0 0 0 0 127 0"/>
<feOffset/>
<feGaussianBlur stdDeviation="21.0454"/>
<feColorMatrix type="matrix" values="0 0 0 0 0.960784 0 0 0 0 0.443137 0 0 0 0 0.254902 0 0 0 0.3 0"/>
<feBlend mode="normal" in2="BackgroundImageFix" result="effect1_dropShadow"/>
<feBlend mode="normal" in="SourceGraphic" in2="effect1_dropShadow" result="shape"/>
</filter>
<linearGradient id="paint0_linear" x1="300" y1="300" x2="300" y2="934" gradientUnits="userSpaceOnUse">
<stop stop-color="#8D01D3" stop-opacity="0"/>
<stop offset="1" stop-color="#8D01D3"/>
</linearGradient>
<linearGradient id="paint1_linear" x1="300" y1="300" x2="300" y2="838.9" gradientUnits="userSpaceOnUse">
<stop stop-color="#CC67FF" stop-opacity="0.08"/>
<stop offset="1" stop-color="#B726FF" stop-opacity="0.4"/>
</linearGradient>
<linearGradient id="paint2_linear" x1="300" y1="300" x2="300" y2="555" gradientUnits="userSpaceOnUse">
<stop stop-color="#12132F" stop-opacity="0"/>
<stop offset="1" stop-color="#8D01D3" stop-opacity="0.4"/>
</linearGradient>
<linearGradient id="paint3_linear" x1="459.93" y1="331.31" x2="131.028" y2="279.419" gradientUnits="userSpaceOnUse">
<stop stop-color="#6D45FF"/>
<stop offset="1" stop-color="#441ECE"/>
</linearGradient>
<linearGradient id="paint4_linear" x1="155.185" y1="265.885" x2="456.836" y2="251.32" gradientUnits="userSpaceOnUse">
<stop stop-color="white"/>
<stop offset="1" stop-color="white" stop-opacity="0"/>
</linearGradient>
<linearGradient id="paint5_linear" x1="394.505" y1="254.981" x2="282.034" y2="325.042" gradientUnits="userSpaceOnUse">
<stop stop-color="#CC67FF"/>
<stop offset="1" stop-color="#7B03B6"/>
</linearGradient>
<linearGradient id="paint6_linear" x1="199.95" y1="188.407" x2="282.25" y2="116.213" gradientUnits="userSpaceOnUse">
<stop stop-color="white"/>
<stop offset="1" stop-color="white" stop-opacity="0"/>
</linearGradient>
<linearGradient id="paint7_linear" x1="398.522" y1="413.953" x2="291.458" y2="485.095" gradientUnits="userSpaceOnUse">
<stop stop-color="#CC67FF"/>
<stop offset="1" stop-color="#7B03B6"/>
</linearGradient>
<linearGradient id="paint8_linear" x1="210.28" y1="340.493" x2="292.113" y2="272.516" gradientUnits="userSpaceOnUse">
<stop stop-color="white"/>
<stop offset="1" stop-color="white" stop-opacity="0"/>
</linearGradient>
<linearGradient id="paint9_linear" x1="263.976" y1="137.862" x2="339.051" y2="139.891" gradientUnits="userSpaceOnUse">
<stop stop-color="#FC8234"/>
<stop offset="1" stop-color="#F93C4C"/>
</linearGradient>
<linearGradient id="paint10_linear" x1="341.08" y1="144.355" x2="291.782" y2="176.319" gradientUnits="userSpaceOnUse">
<stop stop-color="white"/>
<stop offset="1" stop-color="white" stop-opacity="0"/>
</linearGradient>
<linearGradient id="paint11_linear" x1="266.438" y1="460.227" x2="334.615" y2="461.038" gradientUnits="userSpaceOnUse">
<stop stop-color="#FC8234"/>
<stop offset="1" stop-color="#F93C4C"/>
</linearGradient>
<linearGradient id="paint12_linear" x1="340.296" y1="464.285" x2="293.253" y2="501.94" gradientUnits="userSpaceOnUse">
<stop stop-color="white"/>
<stop offset="1" stop-color="white" stop-opacity="0"/>
</linearGradient>
</defs>
</svg>
