<svg width="32" height="32" viewBox="0 0 32 32" fill="none" xmlns="http://www.w3.org/2000/svg">
<circle cx="16" cy="16" r="15.75" fill="url(#paint0_linear)" stroke="url(#paint1_linear)" stroke-width="0.5"/>
<path d="M12.41 21.196C11.1873 21.196 10.226 20.734 9.526 19.81C8.83533 18.8767 8.49 17.64 8.49 16.1C8.49 14.56 8.83533 13.328 9.526 12.404C10.226 11.4707 11.1873 11.004 12.41 11.004C13.642 11.004 14.6033 11.4707 15.294 12.404C15.9847 13.328 16.33 14.56 16.33 16.1C16.33 17.64 15.9847 18.8767 15.294 19.81C14.6033 20.734 13.642 21.196 12.41 21.196ZM10.926 18.494C11.262 19.0353 11.7567 19.306 12.41 19.306C13.0633 19.306 13.558 19.0307 13.894 18.48C14.2393 17.9293 14.412 17.136 14.412 16.1C14.412 15.0547 14.2393 14.2567 13.894 13.706C13.558 13.1553 13.0633 12.88 12.41 12.88C11.7567 12.88 11.262 13.1553 10.926 13.706C10.59 14.2567 10.422 15.0547 10.422 16.1C10.422 17.1453 10.59 17.9433 10.926 18.494ZM16.7503 21V19.558L20.0963 16.114C20.8429 15.33 21.2163 14.6767 21.2163 14.154C21.2163 13.7713 21.0949 13.4633 20.8523 13.23C20.6189 12.9967 20.3156 12.88 19.9423 12.88C19.2049 12.88 18.6589 13.2627 18.3043 14.028L16.6803 13.076C16.9883 12.404 17.4316 11.8907 18.0103 11.536C18.5889 11.1813 19.2236 11.004 19.9143 11.004C20.8009 11.004 21.5616 11.284 22.1963 11.844C22.8309 12.3947 23.1483 13.1413 23.1483 14.084C23.1483 15.1013 22.6116 16.1467 21.5383 17.22L19.6203 19.138H23.3023V21H16.7503Z" fill="#441ECE"/>
<defs>
<linearGradient id="paint0_linear" x1="27.2" y1="27.2" x2="5" y2="4.4" gradientUnits="userSpaceOnUse">
<stop stop-color="#131533"/>
<stop offset="1" stop-color="#0B0C1D"/>
</linearGradient>
<linearGradient id="paint1_linear" x1="10.0465" y1="1.56957e-06" x2="34.8302" y2="9.81055" gradientUnits="userSpaceOnUse">
<stop stop-color="#7D7DFF"/>
<stop offset="1" stop-color="#7D7DFF" stop-opacity="0"/>
</linearGradient>
</defs>
</svg>
