<svg width="280" height="335" viewBox="0 0 280 335" fill="none" xmlns="http://www.w3.org/2000/svg">
<circle cx="3.71806" cy="3.71706" r="3.71706" fill="#441ECE"/>
<circle opacity="0.8" cx="33.4541" cy="3.71706" r="3.71706" fill="#441ECE"/>
<circle cx="63.1901" cy="3.71706" r="3.71706" fill="#441ECE"/>
<circle opacity="0.4" cx="92.926" cy="3.71706" r="3.71706" fill="#441ECE"/>
<circle cx="122.665" cy="3.71706" r="3.71706" fill="#441ECE"/>
<circle cx="152.401" cy="3.71706" r="3.71706" fill="#441ECE"/>
<circle opacity="0.6" cx="182.137" cy="3.71706" r="3.71706" fill="#441ECE"/>
<circle opacity="0.4" cx="211.873" cy="3.71706" r="3.71706" fill="#441ECE"/>
<circle opacity="0.6" cx="241.609" cy="3.71706" r="3.71706" fill="#441ECE"/>
<circle cx="271.345" cy="3.71706" r="3.71706" fill="#441ECE"/>
<circle cx="3.71806" cy="33.4529" r="3.71706" fill="#441ECE"/>
<circle opacity="0.6" cx="33.4541" cy="33.4529" r="3.71706" fill="#441ECE"/>
<circle cx="63.1901" cy="33.4529" r="3.71706" fill="#441ECE"/>
<circle cx="92.926" cy="33.4529" r="3.71706" fill="#441ECE"/>
<circle opacity="0.6" cx="122.665" cy="33.4529" r="3.71706" fill="#441ECE"/>
<circle opacity="0.4" cx="152.401" cy="33.4529" r="3.71706" fill="#441ECE"/>
<circle cx="182.137" cy="33.4529" r="3.71706" fill="#441ECE"/>
<circle opacity="0.4" cx="211.873" cy="33.4529" r="3.71706" fill="#441ECE"/>
<circle cx="241.609" cy="33.4529" r="3.71706" fill="#441ECE"/>
<circle cx="271.345" cy="33.4529" r="3.71706" fill="#441ECE"/>
<circle cx="3.71806" cy="63.1902" r="3.71706" fill="#441ECE"/>
<circle cx="33.4541" cy="63.1902" r="3.71706" fill="#441ECE"/>
<circle cx="63.1901" cy="63.1902" r="3.71706" fill="#441ECE"/>
<circle cx="92.926" cy="63.1902" r="3.71706" fill="#441ECE"/>
<circle opacity="0.6" cx="122.665" cy="63.1902" r="3.71706" fill="#441ECE"/>
<circle cx="152.401" cy="63.1902" r="3.71706" fill="#441ECE"/>
<circle opacity="0.8" cx="182.137" cy="63.1902" r="3.71706" fill="#441ECE"/>
<circle cx="211.873" cy="63.1902" r="3.71706" fill="#441ECE"/>
<circle opacity="0.4" cx="241.609" cy="63.1902" r="3.71706" fill="#441ECE"/>
<circle opacity="0.6" cx="271.345" cy="63.1902" r="3.71706" fill="#441ECE"/>
<circle opacity="0.6" cx="3.71806" cy="92.9265" r="3.71706" fill="#441ECE"/>
<circle opacity="0.8" cx="33.4541" cy="92.9265" r="3.71706" fill="#441ECE"/>
<circle opacity="0.6" cx="63.1901" cy="92.9265" r="3.71706" fill="#441ECE"/>
<circle cx="92.926" cy="92.9265" r="3.71706" fill="#441ECE"/>
<circle cx="122.665" cy="92.9265" r="3.71706" fill="#441ECE"/>
<circle cx="152.401" cy="92.9265" r="3.71706" fill="#441ECE"/>
<circle opacity="0.4" cx="182.137" cy="92.9265" r="3.71706" fill="#441ECE"/>
<circle opacity="0.4" cx="211.873" cy="92.9265" r="3.71706" fill="#441ECE"/>
<circle opacity="0.6" cx="241.609" cy="92.9265" r="3.71706" fill="#441ECE"/>
<circle opacity="0.6" cx="271.345" cy="92.9265" r="3.71706" fill="#441ECE"/>
<circle cx="3.71806" cy="122.662" r="3.71706" fill="#441ECE"/>
<circle cx="33.4541" cy="122.662" r="3.71706" fill="#441ECE"/>
<circle cx="63.1901" cy="122.662" r="3.71706" fill="#441ECE"/>
<circle opacity="0.6" cx="92.926" cy="122.662" r="3.71706" fill="#441ECE"/>
<circle opacity="0.6" cx="122.665" cy="122.662" r="3.71706" fill="#441ECE"/>
<circle opacity="0.4" cx="152.401" cy="122.662" r="3.71706" fill="#441ECE"/>
<circle opacity="0.8" cx="182.137" cy="122.662" r="3.71706" fill="#441ECE"/>
<circle cx="211.873" cy="122.662" r="3.71706" fill="#441ECE"/>
<circle opacity="0.4" cx="241.609" cy="122.662" r="3.71706" fill="#441ECE"/>
<circle cx="271.345" cy="122.662" r="3.71706" fill="#441ECE"/>
<circle opacity="0.6" cx="3.71806" cy="152.4" r="3.71706" fill="#441ECE"/>
<circle opacity="0.6" cx="33.4541" cy="152.4" r="3.71706" fill="#441ECE"/>
<circle opacity="0.6" cx="63.1901" cy="152.4" r="3.71706" fill="#441ECE"/>
<circle opacity="0.6" cx="92.926" cy="152.4" r="3.71706" fill="#441ECE"/>
<circle cx="122.665" cy="152.4" r="3.71706" fill="#441ECE"/>
<circle opacity="0.6" cx="152.401" cy="152.4" r="3.71706" fill="#441ECE"/>
<circle cx="182.137" cy="152.4" r="3.71706" fill="#441ECE"/>
<circle cx="211.873" cy="152.4" r="3.71706" fill="#441ECE"/>
<circle opacity="0.4" cx="241.609" cy="152.4" r="3.71706" fill="#441ECE"/>
<circle opacity="0.4" cx="271.345" cy="152.4" r="3.71706" fill="#441ECE"/>
<circle opacity="0.6" cx="3.71806" cy="182.136" r="3.71706" fill="#441ECE"/>
<circle cx="33.4541" cy="182.136" r="3.71706" fill="#441ECE"/>
<circle opacity="0.8" cx="63.1901" cy="182.136" r="3.71706" fill="#441ECE"/>
<circle opacity="0.8" cx="92.926" cy="182.136" r="3.71706" fill="#441ECE"/>
<circle opacity="0.4" cx="122.665" cy="182.136" r="3.71706" fill="#441ECE"/>
<circle cx="152.401" cy="182.136" r="3.71706" fill="#441ECE"/>
<circle cx="182.137" cy="182.136" r="3.71706" fill="#441ECE"/>
<circle opacity="0.8" cx="211.873" cy="182.136" r="3.71706" fill="#441ECE"/>
<circle cx="241.609" cy="182.136" r="3.71706" fill="#441ECE"/>
<circle cx="271.345" cy="182.136" r="3.71706" fill="#441ECE"/>
<circle opacity="0.6" cx="3.71806" cy="211.872" r="3.71706" fill="#441ECE"/>
<circle opacity="0.8" cx="33.4541" cy="211.872" r="3.71706" fill="#441ECE"/>
<circle opacity="0.8" cx="63.1901" cy="211.872" r="3.71706" fill="#441ECE"/>
<circle cx="92.926" cy="211.872" r="3.71706" fill="#441ECE"/>
<circle cx="122.665" cy="211.872" r="3.71706" fill="#441ECE"/>
<circle opacity="0.8" cx="152.401" cy="211.872" r="3.71706" fill="#441ECE"/>
<circle opacity="0.4" cx="182.137" cy="211.872" r="3.71706" fill="#441ECE"/>
<circle opacity="0.4" cx="211.873" cy="211.872" r="3.71706" fill="#441ECE"/>
<circle cx="241.609" cy="211.872" r="3.71706" fill="#441ECE"/>
<circle opacity="0.4" cx="271.345" cy="211.872" r="3.71706" fill="#441ECE"/>
<circle cx="3.71806" cy="241.609" r="3.71706" fill="#441ECE"/>
<circle cx="33.4541" cy="241.609" r="3.71706" fill="#441ECE"/>
<circle cx="63.1901" cy="241.609" r="3.71706" fill="#441ECE"/>
<circle opacity="0.4" cx="92.926" cy="241.609" r="3.71706" fill="#441ECE"/>
<circle cx="122.665" cy="241.609" r="3.71706" fill="#441ECE"/>
<circle opacity="0.4" cx="152.401" cy="241.609" r="3.71706" fill="#441ECE"/>
<circle cx="182.137" cy="241.609" r="3.71706" fill="#441ECE"/>
<circle cx="211.873" cy="241.609" r="3.71706" fill="#441ECE"/>
<circle cx="241.609" cy="241.609" r="3.71706" fill="#441ECE"/>
<circle cx="271.345" cy="241.609" r="3.71706" fill="#441ECE"/>
<circle opacity="0.6" cx="3.71806" cy="271.345" r="3.71706" fill="#441ECE"/>
<circle opacity="0.8" cx="33.4541" cy="271.345" r="3.71706" fill="#441ECE"/>
<circle opacity="0.4" cx="63.1901" cy="271.345" r="3.71706" fill="#441ECE"/>
<circle opacity="0.4" cx="92.926" cy="271.345" r="3.71706" fill="#441ECE"/>
<circle cx="122.665" cy="271.345" r="3.71706" fill="#441ECE"/>
<circle cx="152.401" cy="271.345" r="3.71706" fill="#441ECE"/>
<circle opacity="0.6" cx="182.137" cy="271.345" r="3.71706" fill="#441ECE"/>
<circle opacity="0.4" cx="211.873" cy="271.345" r="3.71706" fill="#441ECE"/>
<circle cx="241.609" cy="271.345" r="3.71706" fill="#441ECE"/>
<circle cx="271.345" cy="271.345" r="3.71706" fill="#441ECE"/>
<circle opacity="0.6" cx="3.71806" cy="301.081" r="3.71706" fill="#441ECE"/>
<circle cx="33.4541" cy="301.081" r="3.71706" fill="#441ECE"/>
<circle opacity="0.6" cx="63.1901" cy="301.081" r="3.71706" fill="#441ECE"/>
<circle opacity="0.8" cx="92.926" cy="301.081" r="3.71706" fill="#441ECE"/>
<circle opacity="0.6" cx="122.665" cy="301.081" r="3.71706" fill="#441ECE"/>
<circle cx="152.401" cy="301.081" r="3.71706" fill="#441ECE"/>
<circle opacity="0.6" cx="182.137" cy="301.081" r="3.71706" fill="#441ECE"/>
<circle opacity="0.6" cx="211.873" cy="301.081" r="3.71706" fill="#441ECE"/>
<circle opacity="0.8" cx="241.609" cy="301.081" r="3.71706" fill="#441ECE"/>
<circle opacity="0.4" cx="271.345" cy="301.081" r="3.71706" fill="#441ECE"/>
<circle opacity="0.4" cx="3.71806" cy="330.817" r="3.71706" fill="#441ECE"/>
<circle cx="33.4541" cy="330.817" r="3.71706" fill="#441ECE"/>
<circle opacity="0.4" cx="63.1901" cy="330.817" r="3.71706" fill="#441ECE"/>
<circle cx="92.926" cy="330.817" r="3.71706" fill="#441ECE"/>
<circle cx="122.665" cy="330.817" r="3.71706" fill="#441ECE"/>
<circle opacity="0.6" cx="152.401" cy="330.817" r="3.71706" fill="#441ECE"/>
<circle cx="182.137" cy="330.817" r="3.71706" fill="#441ECE"/>
<circle cx="211.873" cy="330.817" r="3.71706" fill="#441ECE"/>
<circle opacity="0.6" cx="241.609" cy="330.817" r="3.71706" fill="#441ECE"/>
<circle cx="271.345" cy="330.817" r="3.71706" fill="#441ECE"/>
</svg>
