<svg width="233" height="335" viewBox="0 0 233 335" fill="none" xmlns="http://www.w3.org/2000/svg">
<circle cx="20.6648" cy="3.71706" r="3.71706" fill="#0038C8"/>
<circle cx="20.6648" cy="3.71706" r="3.71706" fill="url(#paint0_linear)"/>
<circle cx="50.4008" cy="3.71706" r="3.71706" fill="#0038C8"/>
<circle cx="50.4008" cy="3.71706" r="3.71706" fill="url(#paint1_linear)"/>
<g opacity="0.6">
<circle cx="80.1368" cy="3.71706" r="3.71706" fill="#0038C8"/>
<circle cx="80.1368" cy="3.71706" r="3.71706" fill="url(#paint2_linear)"/>
</g>
<g opacity="0.4">
<circle cx="109.873" cy="3.71706" r="3.71706" fill="#0038C8"/>
<circle cx="109.873" cy="3.71706" r="3.71706" fill="url(#paint3_linear)"/>
</g>
<g opacity="0.6">
<circle cx="139.609" cy="3.71706" r="3.71706" fill="#0038C8"/>
<circle cx="139.609" cy="3.71706" r="3.71706" fill="url(#paint4_linear)"/>
</g>
<circle cx="169.345" cy="3.71706" r="3.71706" fill="#0038C8"/>
<circle cx="169.345" cy="3.71706" r="3.71706" fill="url(#paint5_linear)"/>
<circle cx="199.084" cy="3.71706" r="3.71706" fill="#0038C8"/>
<circle cx="199.084" cy="3.71706" r="3.71706" fill="url(#paint6_linear)"/>
<g opacity="0.4">
<circle cx="228.82" cy="3.71706" r="3.71706" fill="#0038C8"/>
<circle cx="228.82" cy="3.71706" r="3.71706" fill="url(#paint7_linear)"/>
</g>
<g opacity="0.6">
<circle cx="20.6648" cy="33.4529" r="3.71706" fill="#0038C8"/>
<circle cx="20.6648" cy="33.4529" r="3.71706" fill="url(#paint8_linear)"/>
</g>
<g opacity="0.4">
<circle cx="50.4008" cy="33.4529" r="3.71706" fill="#0038C8"/>
<circle cx="50.4008" cy="33.4529" r="3.71706" fill="url(#paint9_linear)"/>
</g>
<circle cx="80.1368" cy="33.4529" r="3.71706" fill="#0038C8"/>
<circle cx="80.1368" cy="33.4529" r="3.71706" fill="url(#paint10_linear)"/>
<g opacity="0.4">
<circle cx="109.873" cy="33.4529" r="3.71706" fill="#0038C8"/>
<circle cx="109.873" cy="33.4529" r="3.71706" fill="url(#paint11_linear)"/>
</g>
<circle cx="139.609" cy="33.4529" r="3.71706" fill="#0038C8"/>
<circle cx="139.609" cy="33.4529" r="3.71706" fill="url(#paint12_linear)"/>
<circle cx="169.345" cy="33.4529" r="3.71706" fill="#0038C8"/>
<circle cx="169.345" cy="33.4529" r="3.71706" fill="url(#paint13_linear)"/>
<g opacity="0.8">
<circle cx="199.084" cy="33.4529" r="3.71706" fill="#0038C8"/>
<circle cx="199.084" cy="33.4529" r="3.71706" fill="url(#paint14_linear)"/>
</g>
<circle cx="228.82" cy="33.4529" r="3.71706" fill="#0038C8"/>
<circle cx="228.82" cy="33.4529" r="3.71706" fill="url(#paint15_linear)"/>
<g opacity="0.6">
<circle cx="20.6648" cy="63.1902" r="3.71706" fill="#0038C8"/>
<circle cx="20.6648" cy="63.1902" r="3.71706" fill="url(#paint16_linear)"/>
</g>
<circle cx="50.4008" cy="63.1902" r="3.71706" fill="#0038C8"/>
<circle cx="50.4008" cy="63.1902" r="3.71706" fill="url(#paint17_linear)"/>
<g opacity="0.8">
<circle cx="80.1368" cy="63.1902" r="3.71706" fill="#0038C8"/>
<circle cx="80.1368" cy="63.1902" r="3.71706" fill="url(#paint18_linear)"/>
</g>
<circle cx="109.873" cy="63.1902" r="3.71706" fill="#0038C8"/>
<circle cx="109.873" cy="63.1902" r="3.71706" fill="url(#paint19_linear)"/>
<g opacity="0.4">
<circle cx="139.609" cy="63.1902" r="3.71706" fill="#0038C8"/>
<circle cx="139.609" cy="63.1902" r="3.71706" fill="url(#paint20_linear)"/>
</g>
<g opacity="0.6">
<circle cx="169.345" cy="63.1902" r="3.71706" fill="#0038C8"/>
<circle cx="169.345" cy="63.1902" r="3.71706" fill="url(#paint21_linear)"/>
</g>
<g opacity="0.6">
<circle cx="199.084" cy="63.1902" r="3.71706" fill="#0038C8"/>
<circle cx="199.084" cy="63.1902" r="3.71706" fill="url(#paint22_linear)"/>
</g>
<circle cx="228.82" cy="63.1902" r="3.71706" fill="#0038C8"/>
<circle cx="228.82" cy="63.1902" r="3.71706" fill="url(#paint23_linear)"/>
<circle cx="20.6648" cy="92.9265" r="3.71706" fill="#0038C8"/>
<circle cx="20.6648" cy="92.9265" r="3.71706" fill="url(#paint24_linear)"/>
<circle cx="50.4008" cy="92.9265" r="3.71706" fill="#0038C8"/>
<circle cx="50.4008" cy="92.9265" r="3.71706" fill="url(#paint25_linear)"/>
<g opacity="0.4">
<circle cx="80.1368" cy="92.9265" r="3.71706" fill="#0038C8"/>
<circle cx="80.1368" cy="92.9265" r="3.71706" fill="url(#paint26_linear)"/>
</g>
<g opacity="0.4">
<circle cx="109.873" cy="92.9265" r="3.71706" fill="#0038C8"/>
<circle cx="109.873" cy="92.9265" r="3.71706" fill="url(#paint27_linear)"/>
</g>
<g opacity="0.6">
<circle cx="139.609" cy="92.9265" r="3.71706" fill="#0038C8"/>
<circle cx="139.609" cy="92.9265" r="3.71706" fill="url(#paint28_linear)"/>
</g>
<g opacity="0.6">
<circle cx="169.345" cy="92.9265" r="3.71706" fill="#0038C8"/>
<circle cx="169.345" cy="92.9265" r="3.71706" fill="url(#paint29_linear)"/>
</g>
<g opacity="0.4">
<circle cx="199.084" cy="92.9265" r="3.71706" fill="#0038C8"/>
<circle cx="199.084" cy="92.9265" r="3.71706" fill="url(#paint30_linear)"/>
</g>
<circle cx="228.82" cy="92.9265" r="3.71706" fill="#0038C8"/>
<circle cx="228.82" cy="92.9265" r="3.71706" fill="url(#paint31_linear)"/>
<g opacity="0.6">
<circle cx="20.6648" cy="122.662" r="3.71706" fill="#0038C8"/>
<circle cx="20.6648" cy="122.662" r="3.71706" fill="url(#paint32_linear)"/>
</g>
<g opacity="0.4">
<circle cx="50.4008" cy="122.662" r="3.71706" fill="#0038C8"/>
<circle cx="50.4008" cy="122.662" r="3.71706" fill="url(#paint33_linear)"/>
</g>
<g opacity="0.8">
<circle cx="80.1368" cy="122.662" r="3.71706" fill="#0038C8"/>
<circle cx="80.1368" cy="122.662" r="3.71706" fill="url(#paint34_linear)"/>
</g>
<circle cx="109.873" cy="122.662" r="3.71706" fill="#0038C8"/>
<circle cx="109.873" cy="122.662" r="3.71706" fill="url(#paint35_linear)"/>
<g opacity="0.4">
<circle cx="139.609" cy="122.662" r="3.71706" fill="#0038C8"/>
<circle cx="139.609" cy="122.662" r="3.71706" fill="url(#paint36_linear)"/>
</g>
<circle cx="169.345" cy="122.662" r="3.71706" fill="#0038C8"/>
<circle cx="169.345" cy="122.662" r="3.71706" fill="url(#paint37_linear)"/>
<circle cx="199.084" cy="122.662" r="3.71706" fill="#0038C8"/>
<circle cx="199.084" cy="122.662" r="3.71706" fill="url(#paint38_linear)"/>
<g opacity="0.4">
<circle cx="228.82" cy="122.662" r="3.71706" fill="#0038C8"/>
<circle cx="228.82" cy="122.662" r="3.71706" fill="url(#paint39_linear)"/>
</g>
<circle cx="20.6648" cy="152.4" r="3.71706" fill="#0038C8"/>
<circle cx="20.6648" cy="152.4" r="3.71706" fill="url(#paint40_linear)"/>
<g opacity="0.6">
<circle cx="50.4008" cy="152.4" r="3.71706" fill="#0038C8"/>
<circle cx="50.4008" cy="152.4" r="3.71706" fill="url(#paint41_linear)"/>
</g>
<circle cx="80.1368" cy="152.4" r="3.71706" fill="#0038C8"/>
<circle cx="80.1368" cy="152.4" r="3.71706" fill="url(#paint42_linear)"/>
<circle cx="109.873" cy="152.4" r="3.71706" fill="#0038C8"/>
<circle cx="109.873" cy="152.4" r="3.71706" fill="url(#paint43_linear)"/>
<g opacity="0.4">
<circle cx="139.609" cy="152.4" r="3.71706" fill="#0038C8"/>
<circle cx="139.609" cy="152.4" r="3.71706" fill="url(#paint44_linear)"/>
</g>
<g opacity="0.4">
<circle cx="169.345" cy="152.4" r="3.71706" fill="#0038C8"/>
<circle cx="169.345" cy="152.4" r="3.71706" fill="url(#paint45_linear)"/>
</g>
<g opacity="0.4">
<circle cx="199.084" cy="152.4" r="3.71706" fill="#0038C8"/>
<circle cx="199.084" cy="152.4" r="3.71706" fill="url(#paint46_linear)"/>
</g>
<circle cx="228.82" cy="152.4" r="3.71706" fill="#0038C8"/>
<circle cx="228.82" cy="152.4" r="3.71706" fill="url(#paint47_linear)"/>
<g opacity="0.4">
<circle cx="20.6648" cy="182.136" r="3.71706" fill="#0038C8"/>
<circle cx="20.6648" cy="182.136" r="3.71706" fill="url(#paint48_linear)"/>
</g>
<circle cx="50.4008" cy="182.136" r="3.71706" fill="#0038C8"/>
<circle cx="50.4008" cy="182.136" r="3.71706" fill="url(#paint49_linear)"/>
<circle cx="80.1368" cy="182.136" r="3.71706" fill="#0038C8"/>
<circle cx="80.1368" cy="182.136" r="3.71706" fill="url(#paint50_linear)"/>
<g opacity="0.8">
<circle cx="109.873" cy="182.136" r="3.71706" fill="#0038C8"/>
<circle cx="109.873" cy="182.136" r="3.71706" fill="url(#paint51_linear)"/>
</g>
<circle cx="139.609" cy="182.136" r="3.71706" fill="#0038C8"/>
<circle cx="139.609" cy="182.136" r="3.71706" fill="url(#paint52_linear)"/>
<circle cx="169.345" cy="182.136" r="3.71706" fill="#0038C8"/>
<circle cx="169.345" cy="182.136" r="3.71706" fill="url(#paint53_linear)"/>
<g opacity="0.6">
<circle cx="199.084" cy="182.136" r="3.71706" fill="#0038C8"/>
<circle cx="199.084" cy="182.136" r="3.71706" fill="url(#paint54_linear)"/>
</g>
<g opacity="0.6">
<circle cx="228.82" cy="182.136" r="3.71706" fill="#0038C8"/>
<circle cx="228.82" cy="182.136" r="3.71706" fill="url(#paint55_linear)"/>
</g>
<circle cx="20.6648" cy="211.872" r="3.71706" fill="#0038C8"/>
<circle cx="20.6648" cy="211.872" r="3.71706" fill="url(#paint56_linear)"/>
<g opacity="0.8">
<circle cx="50.4008" cy="211.872" r="3.71706" fill="#0038C8"/>
<circle cx="50.4008" cy="211.872" r="3.71706" fill="url(#paint57_linear)"/>
</g>
<g opacity="0.4">
<circle cx="80.1368" cy="211.872" r="3.71706" fill="#0038C8"/>
<circle cx="80.1368" cy="211.872" r="3.71706" fill="url(#paint58_linear)"/>
</g>
<g opacity="0.4">
<circle cx="109.873" cy="211.872" r="3.71706" fill="#0038C8"/>
<circle cx="109.873" cy="211.872" r="3.71706" fill="url(#paint59_linear)"/>
</g>
<circle cx="139.609" cy="211.872" r="3.71706" fill="#0038C8"/>
<circle cx="139.609" cy="211.872" r="3.71706" fill="url(#paint60_linear)"/>
<g opacity="0.4">
<circle cx="169.345" cy="211.872" r="3.71706" fill="#0038C8"/>
<circle cx="169.345" cy="211.872" r="3.71706" fill="url(#paint61_linear)"/>
</g>
<g opacity="0.4">
<circle cx="199.084" cy="211.872" r="3.71706" fill="#0038C8"/>
<circle cx="199.084" cy="211.872" r="3.71706" fill="url(#paint62_linear)"/>
</g>
<circle cx="228.82" cy="211.872" r="3.71706" fill="#0038C8"/>
<circle cx="228.82" cy="211.872" r="3.71706" fill="url(#paint63_linear)"/>
<circle cx="20.6648" cy="241.609" r="3.71706" fill="#0038C8"/>
<circle cx="20.6648" cy="241.609" r="3.71706" fill="url(#paint64_linear)"/>
<g opacity="0.4">
<circle cx="50.4008" cy="241.609" r="3.71706" fill="#0038C8"/>
<circle cx="50.4008" cy="241.609" r="3.71706" fill="url(#paint65_linear)"/>
</g>
<circle cx="80.1368" cy="241.609" r="3.71706" fill="#0038C8"/>
<circle cx="80.1368" cy="241.609" r="3.71706" fill="url(#paint66_linear)"/>
<circle cx="109.873" cy="241.609" r="3.71706" fill="#0038C8"/>
<circle cx="109.873" cy="241.609" r="3.71706" fill="url(#paint67_linear)"/>
<circle cx="139.609" cy="241.609" r="3.71706" fill="#0038C8"/>
<circle cx="139.609" cy="241.609" r="3.71706" fill="url(#paint68_linear)"/>
<circle cx="169.345" cy="241.609" r="3.71706" fill="#0038C8"/>
<circle cx="169.345" cy="241.609" r="3.71706" fill="url(#paint69_linear)"/>
<g opacity="0.6">
<circle cx="199.084" cy="241.609" r="3.71706" fill="#0038C8"/>
<circle cx="199.084" cy="241.609" r="3.71706" fill="url(#paint70_linear)"/>
</g>
<g opacity="0.8">
<circle cx="228.82" cy="241.609" r="3.71706" fill="#0038C8"/>
<circle cx="228.82" cy="241.609" r="3.71706" fill="url(#paint71_linear)"/>
</g>
<circle cx="20.6648" cy="271.345" r="3.71706" fill="#0038C8"/>
<circle cx="20.6648" cy="271.345" r="3.71706" fill="url(#paint72_linear)"/>
<circle cx="50.4008" cy="271.345" r="3.71706" fill="#0038C8"/>
<circle cx="50.4008" cy="271.345" r="3.71706" fill="url(#paint73_linear)"/>
<g opacity="0.6">
<circle cx="80.1368" cy="271.345" r="3.71706" fill="#0038C8"/>
<circle cx="80.1368" cy="271.345" r="3.71706" fill="url(#paint74_linear)"/>
</g>
<g opacity="0.4">
<circle cx="109.873" cy="271.345" r="3.71706" fill="#0038C8"/>
<circle cx="109.873" cy="271.345" r="3.71706" fill="url(#paint75_linear)"/>
</g>
<circle cx="139.609" cy="271.345" r="3.71706" fill="#0038C8"/>
<circle cx="139.609" cy="271.345" r="3.71706" fill="url(#paint76_linear)"/>
<circle cx="169.345" cy="271.345" r="3.71706" fill="#0038C8"/>
<circle cx="169.345" cy="271.345" r="3.71706" fill="url(#paint77_linear)"/>
<g opacity="0.4">
<circle cx="199.084" cy="271.345" r="3.71706" fill="#0038C8"/>
<circle cx="199.084" cy="271.345" r="3.71706" fill="url(#paint78_linear)"/>
</g>
<g opacity="0.4">
<circle cx="228.82" cy="271.345" r="3.71706" fill="#0038C8"/>
<circle cx="228.82" cy="271.345" r="3.71706" fill="url(#paint79_linear)"/>
</g>
<g opacity="0.6">
<circle cx="20.6648" cy="301.081" r="3.71706" fill="#0038C8"/>
<circle cx="20.6648" cy="301.081" r="3.71706" fill="url(#paint80_linear)"/>
</g>
<circle cx="50.4008" cy="301.081" r="3.71706" fill="#0038C8"/>
<circle cx="50.4008" cy="301.081" r="3.71706" fill="url(#paint81_linear)"/>
<g opacity="0.6">
<circle cx="80.1368" cy="301.081" r="3.71706" fill="#0038C8"/>
<circle cx="80.1368" cy="301.081" r="3.71706" fill="url(#paint82_linear)"/>
</g>
<g opacity="0.6">
<circle cx="109.873" cy="301.081" r="3.71706" fill="#0038C8"/>
<circle cx="109.873" cy="301.081" r="3.71706" fill="url(#paint83_linear)"/>
</g>
<g opacity="0.8">
<circle cx="139.609" cy="301.081" r="3.71706" fill="#0038C8"/>
<circle cx="139.609" cy="301.081" r="3.71706" fill="url(#paint84_linear)"/>
</g>
<g opacity="0.4">
<circle cx="169.345" cy="301.081" r="3.71706" fill="#0038C8"/>
<circle cx="169.345" cy="301.081" r="3.71706" fill="url(#paint85_linear)"/>
</g>
<circle cx="199.084" cy="301.081" r="3.71706" fill="#0038C8"/>
<circle cx="199.084" cy="301.081" r="3.71706" fill="url(#paint86_linear)"/>
<g opacity="0.4">
<circle cx="228.82" cy="301.081" r="3.71706" fill="#0038C8"/>
<circle cx="228.82" cy="301.081" r="3.71706" fill="url(#paint87_linear)"/>
</g>
<circle cx="20.6648" cy="330.817" r="3.71706" fill="#0038C8"/>
<circle cx="20.6648" cy="330.817" r="3.71706" fill="url(#paint88_linear)"/>
<g opacity="0.6">
<circle cx="50.4008" cy="330.817" r="3.71706" fill="#0038C8"/>
<circle cx="50.4008" cy="330.817" r="3.71706" fill="url(#paint89_linear)"/>
</g>
<circle cx="80.1368" cy="330.817" r="3.71706" fill="#0038C8"/>
<circle cx="80.1368" cy="330.817" r="3.71706" fill="url(#paint90_linear)"/>
<circle cx="109.873" cy="330.817" r="3.71706" fill="#0038C8"/>
<circle cx="109.873" cy="330.817" r="3.71706" fill="url(#paint91_linear)"/>
<g opacity="0.6">
<circle cx="139.609" cy="330.817" r="3.71706" fill="#0038C8"/>
<circle cx="139.609" cy="330.817" r="3.71706" fill="url(#paint92_linear)"/>
</g>
<circle cx="169.345" cy="330.817" r="3.71706" fill="#0038C8"/>
<circle cx="169.345" cy="330.817" r="3.71706" fill="url(#paint93_linear)"/>
<g opacity="0.4">
<circle cx="199.084" cy="330.817" r="3.71706" fill="#0038C8"/>
<circle cx="199.084" cy="330.817" r="3.71706" fill="url(#paint94_linear)"/>
</g>
<g opacity="0.8">
<circle cx="228.82" cy="330.817" r="3.71706" fill="#0038C8"/>
<circle cx="228.82" cy="330.817" r="3.71706" fill="url(#paint95_linear)"/>
</g>
<defs>
<linearGradient id="paint0_linear" x1="10.6385" y1="3.71706" x2="24.2857" y2="3.78903" gradientUnits="userSpaceOnUse">
<stop stop-color="#0038C8"/>
<stop offset="1" stop-color="#8D00D3"/>
</linearGradient>
<linearGradient id="paint1_linear" x1="40.3744" y1="3.71706" x2="54.0217" y2="3.78903" gradientUnits="userSpaceOnUse">
<stop stop-color="#0038C8"/>
<stop offset="1" stop-color="#8D00D3"/>
</linearGradient>
<linearGradient id="paint2_linear" x1="70.1105" y1="3.71706" x2="83.7577" y2="3.78903" gradientUnits="userSpaceOnUse">
<stop stop-color="#0038C8"/>
<stop offset="1" stop-color="#8D00D3"/>
</linearGradient>
<linearGradient id="paint3_linear" x1="99.8465" y1="3.71706" x2="113.494" y2="3.78903" gradientUnits="userSpaceOnUse">
<stop stop-color="#0038C8"/>
<stop offset="1" stop-color="#8D00D3"/>
</linearGradient>
<linearGradient id="paint4_linear" x1="129.582" y1="3.71706" x2="143.23" y2="3.78903" gradientUnits="userSpaceOnUse">
<stop stop-color="#0038C8"/>
<stop offset="1" stop-color="#8D00D3"/>
</linearGradient>
<linearGradient id="paint5_linear" x1="159.318" y1="3.71706" x2="172.966" y2="3.78903" gradientUnits="userSpaceOnUse">
<stop stop-color="#0038C8"/>
<stop offset="1" stop-color="#8D00D3"/>
</linearGradient>
<linearGradient id="paint6_linear" x1="189.057" y1="3.71706" x2="202.704" y2="3.78903" gradientUnits="userSpaceOnUse">
<stop stop-color="#0038C8"/>
<stop offset="1" stop-color="#8D00D3"/>
</linearGradient>
<linearGradient id="paint7_linear" x1="218.793" y1="3.71706" x2="232.44" y2="3.78903" gradientUnits="userSpaceOnUse">
<stop stop-color="#0038C8"/>
<stop offset="1" stop-color="#8D00D3"/>
</linearGradient>
<linearGradient id="paint8_linear" x1="10.6385" y1="33.4529" x2="24.2857" y2="33.5249" gradientUnits="userSpaceOnUse">
<stop stop-color="#0038C8"/>
<stop offset="1" stop-color="#8D00D3"/>
</linearGradient>
<linearGradient id="paint9_linear" x1="40.3744" y1="33.4529" x2="54.0217" y2="33.5249" gradientUnits="userSpaceOnUse">
<stop stop-color="#0038C8"/>
<stop offset="1" stop-color="#8D00D3"/>
</linearGradient>
<linearGradient id="paint10_linear" x1="70.1105" y1="33.4529" x2="83.7577" y2="33.5249" gradientUnits="userSpaceOnUse">
<stop stop-color="#0038C8"/>
<stop offset="1" stop-color="#8D00D3"/>
</linearGradient>
<linearGradient id="paint11_linear" x1="99.8465" y1="33.4529" x2="113.494" y2="33.5249" gradientUnits="userSpaceOnUse">
<stop stop-color="#0038C8"/>
<stop offset="1" stop-color="#8D00D3"/>
</linearGradient>
<linearGradient id="paint12_linear" x1="129.582" y1="33.4529" x2="143.23" y2="33.5249" gradientUnits="userSpaceOnUse">
<stop stop-color="#0038C8"/>
<stop offset="1" stop-color="#8D00D3"/>
</linearGradient>
<linearGradient id="paint13_linear" x1="159.318" y1="33.4529" x2="172.966" y2="33.5249" gradientUnits="userSpaceOnUse">
<stop stop-color="#0038C8"/>
<stop offset="1" stop-color="#8D00D3"/>
</linearGradient>
<linearGradient id="paint14_linear" x1="189.057" y1="33.4529" x2="202.704" y2="33.5249" gradientUnits="userSpaceOnUse">
<stop stop-color="#0038C8"/>
<stop offset="1" stop-color="#8D00D3"/>
</linearGradient>
<linearGradient id="paint15_linear" x1="218.793" y1="33.4529" x2="232.44" y2="33.5249" gradientUnits="userSpaceOnUse">
<stop stop-color="#0038C8"/>
<stop offset="1" stop-color="#8D00D3"/>
</linearGradient>
<linearGradient id="paint16_linear" x1="10.6385" y1="63.1902" x2="24.2857" y2="63.2622" gradientUnits="userSpaceOnUse">
<stop stop-color="#0038C8"/>
<stop offset="1" stop-color="#8D00D3"/>
</linearGradient>
<linearGradient id="paint17_linear" x1="40.3744" y1="63.1902" x2="54.0217" y2="63.2622" gradientUnits="userSpaceOnUse">
<stop stop-color="#0038C8"/>
<stop offset="1" stop-color="#8D00D3"/>
</linearGradient>
<linearGradient id="paint18_linear" x1="70.1105" y1="63.1902" x2="83.7577" y2="63.2622" gradientUnits="userSpaceOnUse">
<stop stop-color="#0038C8"/>
<stop offset="1" stop-color="#8D00D3"/>
</linearGradient>
<linearGradient id="paint19_linear" x1="99.8465" y1="63.1902" x2="113.494" y2="63.2622" gradientUnits="userSpaceOnUse">
<stop stop-color="#0038C8"/>
<stop offset="1" stop-color="#8D00D3"/>
</linearGradient>
<linearGradient id="paint20_linear" x1="129.582" y1="63.1902" x2="143.23" y2="63.2622" gradientUnits="userSpaceOnUse">
<stop stop-color="#0038C8"/>
<stop offset="1" stop-color="#8D00D3"/>
</linearGradient>
<linearGradient id="paint21_linear" x1="159.318" y1="63.1902" x2="172.966" y2="63.2622" gradientUnits="userSpaceOnUse">
<stop stop-color="#0038C8"/>
<stop offset="1" stop-color="#8D00D3"/>
</linearGradient>
<linearGradient id="paint22_linear" x1="189.057" y1="63.1902" x2="202.704" y2="63.2622" gradientUnits="userSpaceOnUse">
<stop stop-color="#0038C8"/>
<stop offset="1" stop-color="#8D00D3"/>
</linearGradient>
<linearGradient id="paint23_linear" x1="218.793" y1="63.1902" x2="232.44" y2="63.2622" gradientUnits="userSpaceOnUse">
<stop stop-color="#0038C8"/>
<stop offset="1" stop-color="#8D00D3"/>
</linearGradient>
<linearGradient id="paint24_linear" x1="10.6385" y1="92.9265" x2="24.2857" y2="92.9985" gradientUnits="userSpaceOnUse">
<stop stop-color="#0038C8"/>
<stop offset="1" stop-color="#8D00D3"/>
</linearGradient>
<linearGradient id="paint25_linear" x1="40.3744" y1="92.9265" x2="54.0217" y2="92.9985" gradientUnits="userSpaceOnUse">
<stop stop-color="#0038C8"/>
<stop offset="1" stop-color="#8D00D3"/>
</linearGradient>
<linearGradient id="paint26_linear" x1="70.1105" y1="92.9265" x2="83.7577" y2="92.9985" gradientUnits="userSpaceOnUse">
<stop stop-color="#0038C8"/>
<stop offset="1" stop-color="#8D00D3"/>
</linearGradient>
<linearGradient id="paint27_linear" x1="99.8465" y1="92.9265" x2="113.494" y2="92.9985" gradientUnits="userSpaceOnUse">
<stop stop-color="#0038C8"/>
<stop offset="1" stop-color="#8D00D3"/>
</linearGradient>
<linearGradient id="paint28_linear" x1="129.582" y1="92.9265" x2="143.23" y2="92.9985" gradientUnits="userSpaceOnUse">
<stop stop-color="#0038C8"/>
<stop offset="1" stop-color="#8D00D3"/>
</linearGradient>
<linearGradient id="paint29_linear" x1="159.318" y1="92.9265" x2="172.966" y2="92.9985" gradientUnits="userSpaceOnUse">
<stop stop-color="#0038C8"/>
<stop offset="1" stop-color="#8D00D3"/>
</linearGradient>
<linearGradient id="paint30_linear" x1="189.057" y1="92.9265" x2="202.704" y2="92.9985" gradientUnits="userSpaceOnUse">
<stop stop-color="#0038C8"/>
<stop offset="1" stop-color="#8D00D3"/>
</linearGradient>
<linearGradient id="paint31_linear" x1="218.793" y1="92.9265" x2="232.44" y2="92.9985" gradientUnits="userSpaceOnUse">
<stop stop-color="#0038C8"/>
<stop offset="1" stop-color="#8D00D3"/>
</linearGradient>
<linearGradient id="paint32_linear" x1="10.6385" y1="122.662" x2="24.2857" y2="122.734" gradientUnits="userSpaceOnUse">
<stop stop-color="#0038C8"/>
<stop offset="1" stop-color="#8D00D3"/>
</linearGradient>
<linearGradient id="paint33_linear" x1="40.3744" y1="122.662" x2="54.0217" y2="122.734" gradientUnits="userSpaceOnUse">
<stop stop-color="#0038C8"/>
<stop offset="1" stop-color="#8D00D3"/>
</linearGradient>
<linearGradient id="paint34_linear" x1="70.1105" y1="122.662" x2="83.7577" y2="122.734" gradientUnits="userSpaceOnUse">
<stop stop-color="#0038C8"/>
<stop offset="1" stop-color="#8D00D3"/>
</linearGradient>
<linearGradient id="paint35_linear" x1="99.8465" y1="122.662" x2="113.494" y2="122.734" gradientUnits="userSpaceOnUse">
<stop stop-color="#0038C8"/>
<stop offset="1" stop-color="#8D00D3"/>
</linearGradient>
<linearGradient id="paint36_linear" x1="129.582" y1="122.662" x2="143.23" y2="122.734" gradientUnits="userSpaceOnUse">
<stop stop-color="#0038C8"/>
<stop offset="1" stop-color="#8D00D3"/>
</linearGradient>
<linearGradient id="paint37_linear" x1="159.318" y1="122.662" x2="172.966" y2="122.734" gradientUnits="userSpaceOnUse">
<stop stop-color="#0038C8"/>
<stop offset="1" stop-color="#8D00D3"/>
</linearGradient>
<linearGradient id="paint38_linear" x1="189.057" y1="122.662" x2="202.704" y2="122.734" gradientUnits="userSpaceOnUse">
<stop stop-color="#0038C8"/>
<stop offset="1" stop-color="#8D00D3"/>
</linearGradient>
<linearGradient id="paint39_linear" x1="218.793" y1="122.662" x2="232.44" y2="122.734" gradientUnits="userSpaceOnUse">
<stop stop-color="#0038C8"/>
<stop offset="1" stop-color="#8D00D3"/>
</linearGradient>
<linearGradient id="paint40_linear" x1="10.6385" y1="152.4" x2="24.2857" y2="152.472" gradientUnits="userSpaceOnUse">
<stop stop-color="#0038C8"/>
<stop offset="1" stop-color="#8D00D3"/>
</linearGradient>
<linearGradient id="paint41_linear" x1="40.3744" y1="152.4" x2="54.0217" y2="152.472" gradientUnits="userSpaceOnUse">
<stop stop-color="#0038C8"/>
<stop offset="1" stop-color="#8D00D3"/>
</linearGradient>
<linearGradient id="paint42_linear" x1="70.1105" y1="152.4" x2="83.7577" y2="152.472" gradientUnits="userSpaceOnUse">
<stop stop-color="#0038C8"/>
<stop offset="1" stop-color="#8D00D3"/>
</linearGradient>
<linearGradient id="paint43_linear" x1="99.8465" y1="152.4" x2="113.494" y2="152.472" gradientUnits="userSpaceOnUse">
<stop stop-color="#0038C8"/>
<stop offset="1" stop-color="#8D00D3"/>
</linearGradient>
<linearGradient id="paint44_linear" x1="129.582" y1="152.4" x2="143.23" y2="152.472" gradientUnits="userSpaceOnUse">
<stop stop-color="#0038C8"/>
<stop offset="1" stop-color="#8D00D3"/>
</linearGradient>
<linearGradient id="paint45_linear" x1="159.318" y1="152.4" x2="172.966" y2="152.472" gradientUnits="userSpaceOnUse">
<stop stop-color="#0038C8"/>
<stop offset="1" stop-color="#8D00D3"/>
</linearGradient>
<linearGradient id="paint46_linear" x1="189.057" y1="152.4" x2="202.704" y2="152.472" gradientUnits="userSpaceOnUse">
<stop stop-color="#0038C8"/>
<stop offset="1" stop-color="#8D00D3"/>
</linearGradient>
<linearGradient id="paint47_linear" x1="218.793" y1="152.4" x2="232.44" y2="152.472" gradientUnits="userSpaceOnUse">
<stop stop-color="#0038C8"/>
<stop offset="1" stop-color="#8D00D3"/>
</linearGradient>
<linearGradient id="paint48_linear" x1="10.6385" y1="182.136" x2="24.2857" y2="182.208" gradientUnits="userSpaceOnUse">
<stop stop-color="#0038C8"/>
<stop offset="1" stop-color="#8D00D3"/>
</linearGradient>
<linearGradient id="paint49_linear" x1="40.3744" y1="182.136" x2="54.0217" y2="182.208" gradientUnits="userSpaceOnUse">
<stop stop-color="#0038C8"/>
<stop offset="1" stop-color="#8D00D3"/>
</linearGradient>
<linearGradient id="paint50_linear" x1="70.1105" y1="182.136" x2="83.7577" y2="182.208" gradientUnits="userSpaceOnUse">
<stop stop-color="#0038C8"/>
<stop offset="1" stop-color="#8D00D3"/>
</linearGradient>
<linearGradient id="paint51_linear" x1="99.8465" y1="182.136" x2="113.494" y2="182.208" gradientUnits="userSpaceOnUse">
<stop stop-color="#0038C8"/>
<stop offset="1" stop-color="#8D00D3"/>
</linearGradient>
<linearGradient id="paint52_linear" x1="129.582" y1="182.136" x2="143.23" y2="182.208" gradientUnits="userSpaceOnUse">
<stop stop-color="#0038C8"/>
<stop offset="1" stop-color="#8D00D3"/>
</linearGradient>
<linearGradient id="paint53_linear" x1="159.318" y1="182.136" x2="172.966" y2="182.208" gradientUnits="userSpaceOnUse">
<stop stop-color="#0038C8"/>
<stop offset="1" stop-color="#8D00D3"/>
</linearGradient>
<linearGradient id="paint54_linear" x1="189.057" y1="182.136" x2="202.704" y2="182.208" gradientUnits="userSpaceOnUse">
<stop stop-color="#0038C8"/>
<stop offset="1" stop-color="#8D00D3"/>
</linearGradient>
<linearGradient id="paint55_linear" x1="218.793" y1="182.136" x2="232.44" y2="182.208" gradientUnits="userSpaceOnUse">
<stop stop-color="#0038C8"/>
<stop offset="1" stop-color="#8D00D3"/>
</linearGradient>
<linearGradient id="paint56_linear" x1="10.6385" y1="211.872" x2="24.2857" y2="211.944" gradientUnits="userSpaceOnUse">
<stop stop-color="#0038C8"/>
<stop offset="1" stop-color="#8D00D3"/>
</linearGradient>
<linearGradient id="paint57_linear" x1="40.3744" y1="211.872" x2="54.0217" y2="211.944" gradientUnits="userSpaceOnUse">
<stop stop-color="#0038C8"/>
<stop offset="1" stop-color="#8D00D3"/>
</linearGradient>
<linearGradient id="paint58_linear" x1="70.1105" y1="211.872" x2="83.7577" y2="211.944" gradientUnits="userSpaceOnUse">
<stop stop-color="#0038C8"/>
<stop offset="1" stop-color="#8D00D3"/>
</linearGradient>
<linearGradient id="paint59_linear" x1="99.8465" y1="211.872" x2="113.494" y2="211.944" gradientUnits="userSpaceOnUse">
<stop stop-color="#0038C8"/>
<stop offset="1" stop-color="#8D00D3"/>
</linearGradient>
<linearGradient id="paint60_linear" x1="129.582" y1="211.872" x2="143.23" y2="211.944" gradientUnits="userSpaceOnUse">
<stop stop-color="#0038C8"/>
<stop offset="1" stop-color="#8D00D3"/>
</linearGradient>
<linearGradient id="paint61_linear" x1="159.318" y1="211.872" x2="172.966" y2="211.944" gradientUnits="userSpaceOnUse">
<stop stop-color="#0038C8"/>
<stop offset="1" stop-color="#8D00D3"/>
</linearGradient>
<linearGradient id="paint62_linear" x1="189.057" y1="211.872" x2="202.704" y2="211.944" gradientUnits="userSpaceOnUse">
<stop stop-color="#0038C8"/>
<stop offset="1" stop-color="#8D00D3"/>
</linearGradient>
<linearGradient id="paint63_linear" x1="218.793" y1="211.872" x2="232.44" y2="211.944" gradientUnits="userSpaceOnUse">
<stop stop-color="#0038C8"/>
<stop offset="1" stop-color="#8D00D3"/>
</linearGradient>
<linearGradient id="paint64_linear" x1="10.6385" y1="241.609" x2="24.2857" y2="241.681" gradientUnits="userSpaceOnUse">
<stop stop-color="#0038C8"/>
<stop offset="1" stop-color="#8D00D3"/>
</linearGradient>
<linearGradient id="paint65_linear" x1="40.3744" y1="241.609" x2="54.0217" y2="241.681" gradientUnits="userSpaceOnUse">
<stop stop-color="#0038C8"/>
<stop offset="1" stop-color="#8D00D3"/>
</linearGradient>
<linearGradient id="paint66_linear" x1="70.1105" y1="241.609" x2="83.7577" y2="241.681" gradientUnits="userSpaceOnUse">
<stop stop-color="#0038C8"/>
<stop offset="1" stop-color="#8D00D3"/>
</linearGradient>
<linearGradient id="paint67_linear" x1="99.8465" y1="241.609" x2="113.494" y2="241.681" gradientUnits="userSpaceOnUse">
<stop stop-color="#0038C8"/>
<stop offset="1" stop-color="#8D00D3"/>
</linearGradient>
<linearGradient id="paint68_linear" x1="129.582" y1="241.609" x2="143.23" y2="241.681" gradientUnits="userSpaceOnUse">
<stop stop-color="#0038C8"/>
<stop offset="1" stop-color="#8D00D3"/>
</linearGradient>
<linearGradient id="paint69_linear" x1="159.318" y1="241.609" x2="172.966" y2="241.681" gradientUnits="userSpaceOnUse">
<stop stop-color="#0038C8"/>
<stop offset="1" stop-color="#8D00D3"/>
</linearGradient>
<linearGradient id="paint70_linear" x1="189.057" y1="241.609" x2="202.704" y2="241.681" gradientUnits="userSpaceOnUse">
<stop stop-color="#0038C8"/>
<stop offset="1" stop-color="#8D00D3"/>
</linearGradient>
<linearGradient id="paint71_linear" x1="218.793" y1="241.609" x2="232.44" y2="241.681" gradientUnits="userSpaceOnUse">
<stop stop-color="#0038C8"/>
<stop offset="1" stop-color="#8D00D3"/>
</linearGradient>
<linearGradient id="paint72_linear" x1="10.6385" y1="271.345" x2="24.2857" y2="271.417" gradientUnits="userSpaceOnUse">
<stop stop-color="#0038C8"/>
<stop offset="1" stop-color="#8D00D3"/>
</linearGradient>
<linearGradient id="paint73_linear" x1="40.3744" y1="271.345" x2="54.0217" y2="271.417" gradientUnits="userSpaceOnUse">
<stop stop-color="#0038C8"/>
<stop offset="1" stop-color="#8D00D3"/>
</linearGradient>
<linearGradient id="paint74_linear" x1="70.1105" y1="271.345" x2="83.7577" y2="271.417" gradientUnits="userSpaceOnUse">
<stop stop-color="#0038C8"/>
<stop offset="1" stop-color="#8D00D3"/>
</linearGradient>
<linearGradient id="paint75_linear" x1="99.8465" y1="271.345" x2="113.494" y2="271.417" gradientUnits="userSpaceOnUse">
<stop stop-color="#0038C8"/>
<stop offset="1" stop-color="#8D00D3"/>
</linearGradient>
<linearGradient id="paint76_linear" x1="129.582" y1="271.345" x2="143.23" y2="271.417" gradientUnits="userSpaceOnUse">
<stop stop-color="#0038C8"/>
<stop offset="1" stop-color="#8D00D3"/>
</linearGradient>
<linearGradient id="paint77_linear" x1="159.318" y1="271.345" x2="172.966" y2="271.417" gradientUnits="userSpaceOnUse">
<stop stop-color="#0038C8"/>
<stop offset="1" stop-color="#8D00D3"/>
</linearGradient>
<linearGradient id="paint78_linear" x1="189.057" y1="271.345" x2="202.704" y2="271.417" gradientUnits="userSpaceOnUse">
<stop stop-color="#0038C8"/>
<stop offset="1" stop-color="#8D00D3"/>
</linearGradient>
<linearGradient id="paint79_linear" x1="218.793" y1="271.345" x2="232.44" y2="271.417" gradientUnits="userSpaceOnUse">
<stop stop-color="#0038C8"/>
<stop offset="1" stop-color="#8D00D3"/>
</linearGradient>
<linearGradient id="paint80_linear" x1="10.6385" y1="301.081" x2="24.2857" y2="301.153" gradientUnits="userSpaceOnUse">
<stop stop-color="#0038C8"/>
<stop offset="1" stop-color="#8D00D3"/>
</linearGradient>
<linearGradient id="paint81_linear" x1="40.3744" y1="301.081" x2="54.0217" y2="301.153" gradientUnits="userSpaceOnUse">
<stop stop-color="#0038C8"/>
<stop offset="1" stop-color="#8D00D3"/>
</linearGradient>
<linearGradient id="paint82_linear" x1="70.1105" y1="301.081" x2="83.7577" y2="301.153" gradientUnits="userSpaceOnUse">
<stop stop-color="#0038C8"/>
<stop offset="1" stop-color="#8D00D3"/>
</linearGradient>
<linearGradient id="paint83_linear" x1="99.8465" y1="301.081" x2="113.494" y2="301.153" gradientUnits="userSpaceOnUse">
<stop stop-color="#0038C8"/>
<stop offset="1" stop-color="#8D00D3"/>
</linearGradient>
<linearGradient id="paint84_linear" x1="129.582" y1="301.081" x2="143.23" y2="301.153" gradientUnits="userSpaceOnUse">
<stop stop-color="#0038C8"/>
<stop offset="1" stop-color="#8D00D3"/>
</linearGradient>
<linearGradient id="paint85_linear" x1="159.318" y1="301.081" x2="172.966" y2="301.153" gradientUnits="userSpaceOnUse">
<stop stop-color="#0038C8"/>
<stop offset="1" stop-color="#8D00D3"/>
</linearGradient>
<linearGradient id="paint86_linear" x1="189.057" y1="301.081" x2="202.704" y2="301.153" gradientUnits="userSpaceOnUse">
<stop stop-color="#0038C8"/>
<stop offset="1" stop-color="#8D00D3"/>
</linearGradient>
<linearGradient id="paint87_linear" x1="218.793" y1="301.081" x2="232.44" y2="301.153" gradientUnits="userSpaceOnUse">
<stop stop-color="#0038C8"/>
<stop offset="1" stop-color="#8D00D3"/>
</linearGradient>
<linearGradient id="paint88_linear" x1="10.6385" y1="330.817" x2="24.2857" y2="330.889" gradientUnits="userSpaceOnUse">
<stop stop-color="#0038C8"/>
<stop offset="1" stop-color="#8D00D3"/>
</linearGradient>
<linearGradient id="paint89_linear" x1="40.3744" y1="330.817" x2="54.0217" y2="330.889" gradientUnits="userSpaceOnUse">
<stop stop-color="#0038C8"/>
<stop offset="1" stop-color="#8D00D3"/>
</linearGradient>
<linearGradient id="paint90_linear" x1="70.1105" y1="330.817" x2="83.7577" y2="330.889" gradientUnits="userSpaceOnUse">
<stop stop-color="#0038C8"/>
<stop offset="1" stop-color="#8D00D3"/>
</linearGradient>
<linearGradient id="paint91_linear" x1="99.8465" y1="330.817" x2="113.494" y2="330.889" gradientUnits="userSpaceOnUse">
<stop stop-color="#0038C8"/>
<stop offset="1" stop-color="#8D00D3"/>
</linearGradient>
<linearGradient id="paint92_linear" x1="129.582" y1="330.817" x2="143.23" y2="330.889" gradientUnits="userSpaceOnUse">
<stop stop-color="#0038C8"/>
<stop offset="1" stop-color="#8D00D3"/>
</linearGradient>
<linearGradient id="paint93_linear" x1="159.318" y1="330.817" x2="172.966" y2="330.889" gradientUnits="userSpaceOnUse">
<stop stop-color="#0038C8"/>
<stop offset="1" stop-color="#8D00D3"/>
</linearGradient>
<linearGradient id="paint94_linear" x1="189.057" y1="330.817" x2="202.704" y2="330.889" gradientUnits="userSpaceOnUse">
<stop stop-color="#0038C8"/>
<stop offset="1" stop-color="#8D00D3"/>
</linearGradient>
<linearGradient id="paint95_linear" x1="218.793" y1="330.817" x2="232.44" y2="330.889" gradientUnits="userSpaceOnUse">
<stop stop-color="#0038C8"/>
<stop offset="1" stop-color="#8D00D3"/>
</linearGradient>
</defs>
</svg>
