<svg width="14" height="15" viewBox="0 0 14 15" fill="none" xmlns="http://www.w3.org/2000/svg">
<path d="M9.81999 5.03597L9.80243 5.03751C9.54806 5.06037 9.32051 5.18223 9.1617 5.38051C9.00374 5.57785 8.9347 5.82495 8.96724 6.07647C8.99151 6.26376 9.13281 6.82253 9.15849 7.02242L7.0338 3.05734C6.85228 2.73122 6.47392 2.56769 6.11353 2.65966L6.09812 2.66362C5.85195 2.72645 5.64936 2.89414 5.54239 3.1238C5.43596 3.35235 5.4373 3.61442 5.54616 3.84275C5.82524 4.42822 6.52586 5.73673 6.86015 6.45939L4.66329 3.63754C4.39857 3.30674 3.92459 3.24272 3.58409 3.49194L3.57221 3.50064C3.21324 3.76337 3.13478 4.26897 3.39733 4.62767L5.43325 7.27772L3.21237 5.38315C3.03782 5.24124 2.81181 5.18605 2.59224 5.23178C2.37273 5.27749 2.18819 5.41814 2.08588 5.61777C1.93875 5.90479 1.99314 6.25194 2.22116 6.48159L4.72356 8.87092L3.19576 8.05143C2.81633 7.8721 2.37304 8.02532 2.18651 8.40014C2.01739 8.74004 2.11981 9.14695 2.43006 9.36771L4.64801 10.946C4.9162 11.1369 5.17362 11.3481 5.41308 11.5739L6.68798 12.7756C7.40631 13.4528 8.50364 13.5228 9.297 12.9422L11.2753 11.4942C11.723 11.1665 11.93 10.6045 11.8027 10.0625L10.7861 5.73509C10.683 5.29633 10.2676 4.99575 9.81999 5.03597Z" fill="#F6EBFC"/>
</svg>
