<svg width="13" height="12" viewBox="0 0 13 12" fill="none" xmlns="http://www.w3.org/2000/svg">
<path d="M1.96281 0.663574C2.33646 0.663574 2.62902 0.781366 2.8416 1.01585C3.05417 1.25034 3.16813 1.54619 3.18347 1.90067C3.18347 2.25075 3.06403 2.54606 2.82352 2.78602C2.583 3.02544 2.25428 3.14543 1.83845 3.14543H1.82365C1.41768 3.14543 1.09608 3.02544 0.856663 2.78602C0.619984 2.54606 0.5 2.25075 0.5 1.90067C0.5 1.54071 0.630393 1.24486 0.893371 1.01202C1.15635 0.779723 1.51356 0.663574 1.96281 0.663574ZM0.657239 4.1283H3.22291V11.3361H0.657239V4.1283ZM12.5 7.2035V11.3361H9.93487V7.48127C9.93487 6.99093 9.83406 6.5981 9.63354 6.29897C9.43412 6.00257 9.10047 5.8541 8.6293 5.8541C8.27044 5.8541 7.98226 5.94504 7.7675 6.12803C7.55219 6.30992 7.39604 6.51099 7.30181 6.73178C7.27113 6.81177 7.25195 6.89998 7.24154 6.99805C7.23168 7.09447 7.2273 7.19912 7.2273 7.30924V11.3366H4.64628C4.65724 10.1171 4.66327 8.99832 4.66327 7.98367V6.7022V5.53797C4.66327 5.1835 4.65943 4.88108 4.6534 4.63015C4.65012 4.38142 4.64628 4.21322 4.64628 4.1283H7.2273V5.14899L7.21305 5.17857H7.2273V5.14899C7.30729 5.02353 7.40974 4.89258 7.53465 4.75507C7.66121 4.6181 7.81242 4.4899 7.99651 4.37156C8.17895 4.25432 8.39864 4.15789 8.65614 4.07954C8.91529 4.0023 9.21004 3.96394 9.54588 3.96394C9.96336 3.96394 10.3534 4.0275 10.7172 4.15515C11.0799 4.2828 11.3917 4.48278 11.6568 4.75562C11.9204 5.02681 12.1269 5.3643 12.277 5.76753C12.4266 6.16967 12.5 6.64851 12.5 7.2035Z" fill="#7D7DFF"/>
</svg>
