<svg width="121" height="24" viewBox="0 0 121 24" fill="none" xmlns="http://www.w3.org/2000/svg">
<path d="M37.9889 22.2726C35.9841 22.2726 34.1684 21.8376 32.5418 20.9676C30.9342 20.0787 29.667 18.8588 28.7402 17.3079C27.8324 15.757 27.3785 14.0075 27.3785 12.0594C27.3785 10.1113 27.8419 8.36185 28.7686 6.81095C29.6954 5.26005 30.9626 4.0496 32.5702 3.17958C34.1967 2.29066 36.0124 1.84619 38.0173 1.84619C39.6438 1.84619 41.1285 2.12989 42.4713 2.69729C43.8142 3.26469 44.949 4.08743 45.8758 5.16549L43.4927 7.40672C42.0553 5.85583 40.2869 5.08038 38.1875 5.08038C36.8257 5.08038 35.6058 5.38299 34.5277 5.98822C33.4497 6.57453 32.608 7.39727 32.0028 8.45641C31.3976 9.51556 31.095 10.7166 31.095 12.0594C31.095 13.4023 31.3976 14.6033 32.0028 15.6624C32.608 16.7216 33.4497 17.5537 34.5277 18.159C35.6058 18.7453 36.8257 19.0384 38.1875 19.0384C40.2869 19.0384 42.0553 18.2535 43.4927 16.6837L45.8758 18.9533C44.949 20.0314 43.8047 20.8541 42.443 21.4215C41.1001 21.9889 39.6154 22.2726 37.9889 22.2726Z" fill="white"/>
<path d="M55.3239 22.1875C53.7919 22.1875 52.4112 21.8565 51.1818 21.1946C49.9525 20.5326 48.9879 19.6153 48.2881 18.4427C47.6072 17.2511 47.2668 15.9083 47.2668 14.4141C47.2668 12.92 47.6072 11.5866 48.2881 10.4139C48.9879 9.24132 49.9525 8.32402 51.1818 7.66205C52.4112 7.00008 53.7919 6.6691 55.3239 6.6691C56.8748 6.6691 58.2649 7.00008 59.4943 7.66205C60.7236 8.32402 61.6788 9.24132 62.3596 10.4139C63.0594 11.5866 63.4093 12.92 63.4093 14.4141C63.4093 15.9083 63.0594 17.2511 62.3596 18.4427C61.6788 19.6153 60.7236 20.5326 59.4943 21.1946C58.2649 21.8565 56.8748 22.1875 55.3239 22.1875ZM55.3239 19.1519C56.6289 19.1519 57.707 18.7169 58.5581 17.8469C59.4092 16.9769 59.8347 15.8326 59.8347 14.4141C59.8347 12.9956 59.4092 11.8514 58.5581 10.9813C57.707 10.1113 56.6289 9.67633 55.3239 9.67633C54.0188 9.67633 52.9408 10.1113 52.0897 10.9813C51.2575 11.8514 50.8414 12.9956 50.8414 14.4141C50.8414 15.8326 51.2575 16.9769 52.0897 17.8469C52.9408 18.7169 54.0188 19.1519 55.3239 19.1519Z" fill="white"/>
<path d="M70.1765 9.05219C71.1978 7.46346 72.9946 6.6691 75.5668 6.6691V10.0451C75.2642 9.9884 74.9899 9.96003 74.7441 9.96003C73.3634 9.96003 72.2853 10.3667 71.5099 11.1799C70.7344 11.9743 70.3467 13.128 70.3467 14.6411V21.9889H66.8004V6.83932H70.1765V9.05219Z" fill="white"/>
<path d="M87.0861 21.1662C86.67 21.5066 86.1594 21.762 85.5542 21.9322C84.9678 22.1024 84.3437 22.1875 83.6817 22.1875C82.0174 22.1875 80.7312 21.7525 79.8234 20.8825C78.9156 20.0125 78.4616 18.7453 78.4616 17.0809V3.49166H82.0079V6.9528H86.0648V9.78981H82.0079V16.9958C82.0079 17.7334 82.1876 18.3008 82.5469 18.698C82.9252 19.0763 83.4453 19.2654 84.1073 19.2654C84.9016 19.2654 85.5636 19.0574 86.0932 18.6413L87.0861 21.1662Z" fill="white"/>
<path d="M96.7246 19.1803C98.3701 19.1803 99.7413 18.6318 100.838 17.5348L102.711 19.7193C102.049 20.5326 101.198 21.1473 100.157 21.5634C99.1172 21.9795 97.9446 22.1875 96.6395 22.1875C94.9752 22.1875 93.5094 21.8565 92.2422 21.1946C90.975 20.5326 89.9915 19.6153 89.2917 18.4427C88.6108 17.2511 88.2704 15.9083 88.2704 14.4141C88.2704 12.9389 88.6014 11.6149 89.2633 10.4423C89.9442 9.25078 90.871 8.32402 92.0436 7.66205C93.2351 7.00008 94.578 6.6691 96.0721 6.6691C97.4906 6.6691 98.7767 6.98117 99.9305 7.60531C101.103 8.21054 102.03 9.09001 102.711 10.2437C103.392 11.3785 103.732 12.7119 103.732 14.2439L92.1287 16.5135C92.4881 17.3835 93.0649 18.0455 93.8593 18.4994C94.6536 18.9533 95.6088 19.1803 96.7246 19.1803ZM96.0721 9.50611C94.7671 9.50611 93.708 9.93166 92.8947 10.7828C92.1003 11.6339 91.7031 12.7781 91.7031 14.2155V14.2439L100.271 12.5984C100.025 11.6717 99.5238 10.9246 98.7673 10.3572C98.0297 9.78981 97.1313 9.50611 96.0721 9.50611Z" fill="white"/>
<path d="M116.369 21.9889L112.483 16.7405L108.568 21.9889H104.653L110.553 14.3006L104.908 6.83932H108.851L112.568 11.8041L116.284 6.83932H120.114L114.44 14.2439L120.37 21.9889H116.369Z" fill="white"/>
<g clip-path="url(#clip0)">
<circle r="2.56445" transform="matrix(-1 0 0 1 11.9885 2.56445)" fill="url(#paint0_linear)"/>
<circle r="1.58343" transform="matrix(-1 0 0 1 20.6127 11.3823)" fill="url(#paint1_linear)"/>
<path fill-rule="evenodd" clip-rule="evenodd" d="M8.82286 16.0388C7.96415 15.2707 6.67519 15.3117 5.55187 15.5677C4.22094 15.8711 2.76837 15.5592 1.65629 14.5983C-0.200265 12.9942 -0.40495 10.1886 1.19926 8.33193C2.80347 6.4753 5.6091 6.27074 7.46566 7.8749C8.55799 8.81872 9.07845 10.1784 8.99514 11.516C8.92536 12.6363 9.06396 13.8702 9.90056 14.6185C10.7711 15.3972 12.0746 15.3658 13.2191 15.1329C14.5219 14.8677 15.9291 15.1877 17.0129 16.1242C18.8695 17.7283 19.0742 20.534 17.47 22.3906C15.8657 24.2472 13.0601 24.4518 11.2036 22.8476C10.0832 21.8796 9.5644 20.4739 9.68168 19.1034C9.77615 17.9995 9.64864 16.7775 8.82286 16.0388Z" fill="url(#paint2_linear)"/>
<path fill-rule="evenodd" clip-rule="evenodd" d="M16.2661 6.93C16.8492 6.39202 16.906 5.50582 16.8045 4.71899C16.6843 3.78673 16.9938 2.81164 17.7257 2.1127C18.9475 0.945849 20.8841 0.990413 22.051 2.21233C23.2179 3.43425 23.1732 5.3708 21.9513 6.53765C21.2324 7.22418 20.2662 7.49133 19.3548 7.34609C18.5915 7.22445 17.7367 7.23815 17.1686 7.76227C16.5775 8.30764 16.5131 9.20322 16.5974 10.003C16.6933 10.9135 16.3812 11.8569 15.6679 12.5381C14.446 13.705 12.5095 13.6604 11.3426 12.4385C10.1757 11.2166 10.2204 9.28003 11.4422 8.11318C12.1796 7.40902 13.1772 7.14604 14.1089 7.31674C14.8594 7.45423 15.7054 7.44734 16.2661 6.93Z" fill="url(#paint3_linear)"/>
</g>
<defs>
<linearGradient id="paint0_linear" x1="2.56445" y1="0" x2="2.56445" y2="5.1289" gradientUnits="userSpaceOnUse">
<stop stop-color="#FC7A37"/>
<stop offset="1" stop-color="#F93E4C"/>
</linearGradient>
<linearGradient id="paint1_linear" x1="1.58343" y1="0" x2="1.58343" y2="3.16686" gradientUnits="userSpaceOnUse">
<stop stop-color="#FC7B37"/>
<stop offset="1" stop-color="#F93E4C"/>
</linearGradient>
<linearGradient id="paint2_linear" x1="23.8567" y1="27.6923" x2="-6.64904" y2="-0.433685" gradientUnits="userSpaceOnUse">
<stop stop-color="#461DCE"/>
<stop offset="1" stop-color="#8C01D3"/>
</linearGradient>
<linearGradient id="paint3_linear" x1="2.62622" y1="20.2365" x2="28.618" y2="-2.53688" gradientUnits="userSpaceOnUse">
<stop stop-color="#481CCE"/>
<stop offset="0.896733" stop-color="#8D01D3"/>
</linearGradient>
<clipPath id="clip0">
<rect width="23.0059" height="24" fill="white"/>
</clipPath>
</defs>
</svg>
