<svg width="12" height="7" viewBox="0 0 12 7" fill="none" xmlns="http://www.w3.org/2000/svg">
<path d="M6.67266 3.60723C6.67266 1.95032 5.34676 0.607143 3.71126 0.607143C2.07576 0.607143 0.749756 1.95063 0.749756 3.60723C0.749756 5.26384 2.07566 6.60742 3.71126 6.60742C5.34686 6.60742 6.67266 5.26414 6.67266 3.60723ZM9.92142 3.60723C9.92142 2.04761 9.25847 0.782785 8.44067 0.782785C7.62287 0.782785 6.95992 2.04761 6.95992 3.60723C6.95992 5.16685 7.62277 6.43168 8.44057 6.43168C9.25837 6.43168 9.92132 5.16726 9.92132 3.60723H9.92142ZM11.2502 3.60723C11.2502 2.21019 11.0171 1.07697 10.7295 1.07697C10.4418 1.07697 10.2088 2.20989 10.2088 3.60723C10.2088 5.00457 10.4419 6.13749 10.7295 6.13749C11.017 6.13749 11.2502 5.00468 11.2502 3.60723Z" fill="#F8F6FD"/>
</svg>
