<svg width="98" height="131" viewBox="0 0 98 131" fill="none" xmlns="http://www.w3.org/2000/svg">
<path d="M5.66728 32.7366V32.9348H5.8655H49.9728L34.9079 50.5295L34.9069 50.5308C30.9709 55.2052 28.4977 59.5455 28.4977 63.9132H28.4976L28.4978 63.9187C28.5928 67.3329 30.0199 70.419 32.5653 72.6498C35.11 74.88 38.7611 76.246 43.2924 76.246H48.7193C56.8887 76.246 62.7433 80.8645 62.7433 87.4356C62.7433 90.7417 61.4558 93.5814 59.2296 95.5962C57.0021 97.6121 53.8237 98.8119 50.0292 98.8119C41.8727 98.8119 34.2782 94.3781 30.9404 85.3136L30.8622 85.1012L30.662 85.2067L0.907584 100.888L0.740369 100.976L0.820459 101.148C10.0278 120.83 27.5092 130.198 49.4678 130.198C63.8256 130.198 75.7583 125.657 84.104 118.082C92.4506 110.506 97.1982 99.9046 97.1982 87.809C97.1982 69.4044 85.0025 55.2044 71.553 52.9451L84.2392 37.9049L84.2402 37.9038C89.6742 31.3612 93.0813 25.1547 93.0813 19.1085C93.0813 14.1063 91.0932 9.52371 87.2586 6.19421C83.4255 2.86599 77.7618 0.801786 70.4269 0.801786H5.8655H5.66728V1V32.7366Z" fill="url(#paint0_linear)" stroke="url(#paint1_linear)" stroke-width="0.396429"/>
<defs>
<linearGradient id="paint0_linear" x1="16.6392" y1="117.471" x2="118.181" y2="36.5696" gradientUnits="userSpaceOnUse">
<stop stop-color="#441ECE"/>
<stop offset="1" stop-color="#9745FF"/>
</linearGradient>
<linearGradient id="paint1_linear" x1="91.211" y1="20.0865" x2="1.6954" y2="102.697" gradientUnits="userSpaceOnUse">
<stop stop-color="white"/>
<stop offset="1" stop-color="white" stop-opacity="0"/>
</linearGradient>
</defs>
</svg>
