<svg width="32" height="32" viewBox="0 0 32 32" fill="none" xmlns="http://www.w3.org/2000/svg">
<circle cx="16" cy="16" r="15.75" fill="url(#paint0_linear)" stroke="url(#paint1_linear)" stroke-width="0.5"/>
<path d="M12.4846 21.196C11.2619 21.196 10.3006 20.734 9.60061 19.81C8.90994 18.8767 8.56461 17.64 8.56461 16.1C8.56461 14.56 8.90994 13.328 9.60061 12.404C10.3006 11.4707 11.2619 11.004 12.4846 11.004C13.7166 11.004 14.6779 11.4707 15.3686 12.404C16.0593 13.328 16.4046 14.56 16.4046 16.1C16.4046 17.64 16.0593 18.8767 15.3686 19.81C14.6779 20.734 13.7166 21.196 12.4846 21.196ZM11.0006 18.494C11.3366 19.0353 11.8313 19.306 12.4846 19.306C13.1379 19.306 13.6326 19.0307 13.9686 18.48C14.3139 17.9293 14.4866 17.136 14.4866 16.1C14.4866 15.0547 14.3139 14.2567 13.9686 13.706C13.6326 13.1553 13.1379 12.88 12.4846 12.88C11.8313 12.88 11.3366 13.1553 11.0006 13.706C10.6646 14.2567 10.4966 15.0547 10.4966 16.1C10.4966 17.1453 10.6646 17.9433 11.0006 18.494ZM21.2385 15.176C21.9012 15.372 22.4378 15.7173 22.8485 16.212C23.2685 16.6973 23.4785 17.2853 23.4785 17.976C23.4785 18.984 23.1378 19.7727 22.4565 20.342C21.7845 20.9113 20.9585 21.196 19.9785 21.196C19.2132 21.196 18.5272 21.0233 17.9205 20.678C17.3232 20.3233 16.8892 19.8053 16.6185 19.124L18.2705 18.172C18.5132 18.928 19.0825 19.306 19.9785 19.306C20.4732 19.306 20.8558 19.1893 21.1265 18.956C21.4065 18.7133 21.5465 18.3867 21.5465 17.976C21.5465 17.5747 21.4065 17.2527 21.1265 17.01C20.8558 16.7673 20.4732 16.646 19.9785 16.646H19.5585L18.8165 15.526L20.7485 13.006H16.9125V11.2H23.0725V12.796L21.2385 15.176Z" fill="#F93E4C"/>
<defs>
<linearGradient id="paint0_linear" x1="27.2" y1="27.2" x2="5" y2="4.4" gradientUnits="userSpaceOnUse">
<stop stop-color="#131533"/>
<stop offset="1" stop-color="#0B0C1D"/>
</linearGradient>
<linearGradient id="paint1_linear" x1="10.0465" y1="1.56957e-06" x2="34.8302" y2="9.81055" gradientUnits="userSpaceOnUse">
<stop stop-color="#F93C4C"/>
<stop offset="1" stop-color="#CC67FF" stop-opacity="0"/>
</linearGradient>
</defs>
</svg>
