<svg width="80" height="80" viewBox="0 0 80 80" fill="none" xmlns="http://www.w3.org/2000/svg">
<circle cx="40" cy="40" r="39.75" fill="url(#paint0_linear)" stroke="url(#paint1_linear)" stroke-width="0.5"/>
<circle cx="54.5593" cy="53" r="9" fill="#FC8234"/>
<circle cx="54.5593" cy="53" r="9" fill="url(#paint2_linear)"/>
<g filter="url(#filter0_bii)">
<path d="M28.0429 24.694C29.5944 20.661 33.4692 18 37.7902 18C42.1113 18 45.9861 20.6611 47.5375 24.694L55.9684 46.6103C57.7093 51.1358 54.3688 56 49.5199 56H26.0605C21.2117 56 17.8712 51.1358 19.6121 46.6103L28.0429 24.694Z" fill="white" fill-opacity="0.03"/>
</g>
<circle cx="25.5593" cy="32" r="6" transform="rotate(-180 25.5593 32)" fill="#FC8234"/>
<circle cx="25.5593" cy="32" r="6" transform="rotate(-180 25.5593 32)" fill="url(#paint3_linear)"/>
<defs>
<filter id="filter0_bii" x="7.71838" y="6.57343" width="60.1437" height="60.8531" filterUnits="userSpaceOnUse" color-interpolation-filters="sRGB">
<feFlood flood-opacity="0" result="BackgroundImageFix"/>
<feGaussianBlur in="BackgroundImage" stdDeviation="5.71329"/>
<feComposite in2="SourceAlpha" operator="in" result="effect1_backgroundBlur"/>
<feBlend mode="normal" in="SourceGraphic" in2="effect1_backgroundBlur" result="shape"/>
<feColorMatrix in="SourceAlpha" type="matrix" values="0 0 0 0 0 0 0 0 0 0 0 0 0 0 0 0 0 0 127 0" result="hardAlpha"/>
<feOffset dy="0.531469"/>
<feGaussianBlur stdDeviation="0.265734"/>
<feComposite in2="hardAlpha" operator="arithmetic" k2="-1" k3="1"/>
<feColorMatrix type="matrix" values="0 0 0 0 1 0 0 0 0 1 0 0 0 0 1 0 0 0 0.15 0"/>
<feBlend mode="normal" in2="shape" result="effect2_innerShadow"/>
<feColorMatrix in="SourceAlpha" type="matrix" values="0 0 0 0 0 0 0 0 0 0 0 0 0 0 0 0 0 0 127 0" result="hardAlpha"/>
<feOffset/>
<feGaussianBlur stdDeviation="4.51748"/>
<feComposite in2="hardAlpha" operator="arithmetic" k2="-1" k3="1"/>
<feColorMatrix type="matrix" values="0 0 0 0 1 0 0 0 0 1 0 0 0 0 1 0 0 0 0.05 0"/>
<feBlend mode="normal" in2="effect2_innerShadow" result="effect3_innerShadow"/>
</filter>
<linearGradient id="paint0_linear" x1="68" y1="68" x2="12.5" y2="11" gradientUnits="userSpaceOnUse">
<stop stop-color="#131533"/>
<stop offset="1" stop-color="#0B0C1D"/>
</linearGradient>
<linearGradient id="paint1_linear" x1="25.1163" y1="3.92393e-06" x2="87.0754" y2="24.5264" gradientUnits="userSpaceOnUse">
<stop stop-color="#FC7937"/>
<stop offset="1" stop-color="#FC7937" stop-opacity="0"/>
</linearGradient>
<linearGradient id="paint2_linear" x1="43.7757" y1="53" x2="63.5593" y2="53" gradientUnits="userSpaceOnUse">
<stop stop-color="#FC8234"/>
<stop offset="1" stop-color="#F93C4C"/>
</linearGradient>
<linearGradient id="paint3_linear" x1="18.3703" y1="32" x2="31.5593" y2="32" gradientUnits="userSpaceOnUse">
<stop stop-color="#FC8234"/>
<stop offset="1" stop-color="#F93C4C"/>
</linearGradient>
</defs>
</svg>
